G04 #@! TF.GenerationSoftware,KiCad,Pcbnew,(5.1.2)-1*
G04 #@! TF.CreationDate,2021-08-24T10:23:30+09:00*
G04 #@! TF.ProjectId,csa,6373612e-6b69-4636-9164-5f7063625858,v1.3*
G04 #@! TF.SameCoordinates,Original*
G04 #@! TF.FileFunction,Legend,Bot*
G04 #@! TF.FilePolarity,Positive*
%FSLAX46Y46*%
G04 Gerber Fmt 4.6, Leading zero omitted, Abs format (unit mm)*
G04 Created by KiCad (PCBNEW (5.1.2)-1) date 2021-08-24 10:23:30*
%MOMM*%
%LPD*%
G04 APERTURE LIST*
%ADD10C,0.150000*%
%ADD11C,3.302000*%
%ADD12O,1.802000X1.802000*%
%ADD13R,1.802000X1.802000*%
%ADD14C,2.602000*%
%ADD15R,2.602000X2.602000*%
G04 APERTURE END LIST*
D10*
X158664761Y-130802142D02*
X158712380Y-130849761D01*
X158855238Y-130897380D01*
X158950476Y-130897380D01*
X159093333Y-130849761D01*
X159188571Y-130754523D01*
X159236190Y-130659285D01*
X159283809Y-130468809D01*
X159283809Y-130325952D01*
X159236190Y-130135476D01*
X159188571Y-130040238D01*
X159093333Y-129945000D01*
X158950476Y-129897380D01*
X158855238Y-129897380D01*
X158712380Y-129945000D01*
X158664761Y-129992619D01*
X158379047Y-129897380D02*
X157807619Y-129897380D01*
X158093333Y-130897380D02*
X158093333Y-129897380D01*
X156760000Y-130849761D02*
X156617142Y-130897380D01*
X156379047Y-130897380D01*
X156283809Y-130849761D01*
X156236190Y-130802142D01*
X156188571Y-130706904D01*
X156188571Y-130611666D01*
X156236190Y-130516428D01*
X156283809Y-130468809D01*
X156379047Y-130421190D01*
X156569523Y-130373571D01*
X156664761Y-130325952D01*
X156712380Y-130278333D01*
X156760000Y-130183095D01*
X156760000Y-130087857D01*
X156712380Y-129992619D01*
X156664761Y-129945000D01*
X156569523Y-129897380D01*
X156331428Y-129897380D01*
X156188571Y-129945000D01*
X155379047Y-130849761D02*
X155474285Y-130897380D01*
X155664761Y-130897380D01*
X155760000Y-130849761D01*
X155807619Y-130754523D01*
X155807619Y-130373571D01*
X155760000Y-130278333D01*
X155664761Y-130230714D01*
X155474285Y-130230714D01*
X155379047Y-130278333D01*
X155331428Y-130373571D01*
X155331428Y-130468809D01*
X155807619Y-130564047D01*
X154902857Y-130230714D02*
X154902857Y-130897380D01*
X154902857Y-130325952D02*
X154855238Y-130278333D01*
X154760000Y-130230714D01*
X154617142Y-130230714D01*
X154521904Y-130278333D01*
X154474285Y-130373571D01*
X154474285Y-130897380D01*
X154045714Y-130849761D02*
X153950476Y-130897380D01*
X153760000Y-130897380D01*
X153664761Y-130849761D01*
X153617142Y-130754523D01*
X153617142Y-130706904D01*
X153664761Y-130611666D01*
X153760000Y-130564047D01*
X153902857Y-130564047D01*
X153998095Y-130516428D01*
X154045714Y-130421190D01*
X154045714Y-130373571D01*
X153998095Y-130278333D01*
X153902857Y-130230714D01*
X153760000Y-130230714D01*
X153664761Y-130278333D01*
X153045714Y-130897380D02*
X153140952Y-130849761D01*
X153188571Y-130802142D01*
X153236190Y-130706904D01*
X153236190Y-130421190D01*
X153188571Y-130325952D01*
X153140952Y-130278333D01*
X153045714Y-130230714D01*
X152902857Y-130230714D01*
X152807619Y-130278333D01*
X152760000Y-130325952D01*
X152712380Y-130421190D01*
X152712380Y-130706904D01*
X152760000Y-130802142D01*
X152807619Y-130849761D01*
X152902857Y-130897380D01*
X153045714Y-130897380D01*
X152283809Y-130897380D02*
X152283809Y-130230714D01*
X152283809Y-130421190D02*
X152236190Y-130325952D01*
X152188571Y-130278333D01*
X152093333Y-130230714D01*
X151998095Y-130230714D01*
X150950476Y-130611666D02*
X150474285Y-130611666D01*
X151045714Y-130897380D02*
X150712380Y-129897380D01*
X150379047Y-130897380D01*
X150045714Y-130897380D02*
X150045714Y-130230714D01*
X150045714Y-130325952D02*
X149998095Y-130278333D01*
X149902857Y-130230714D01*
X149760000Y-130230714D01*
X149664761Y-130278333D01*
X149617142Y-130373571D01*
X149617142Y-130897380D01*
X149617142Y-130373571D02*
X149569523Y-130278333D01*
X149474285Y-130230714D01*
X149331428Y-130230714D01*
X149236190Y-130278333D01*
X149188571Y-130373571D01*
X149188571Y-130897380D01*
X148712380Y-130230714D02*
X148712380Y-131230714D01*
X148712380Y-130278333D02*
X148617142Y-130230714D01*
X148426666Y-130230714D01*
X148331428Y-130278333D01*
X148283809Y-130325952D01*
X148236190Y-130421190D01*
X148236190Y-130706904D01*
X148283809Y-130802142D01*
X148331428Y-130849761D01*
X148426666Y-130897380D01*
X148617142Y-130897380D01*
X148712380Y-130849761D01*
X161045714Y-131642619D02*
X160998095Y-131595000D01*
X160902857Y-131547380D01*
X160664761Y-131547380D01*
X160569523Y-131595000D01*
X160521904Y-131642619D01*
X160474285Y-131737857D01*
X160474285Y-131833095D01*
X160521904Y-131975952D01*
X161093333Y-132547380D01*
X160474285Y-132547380D01*
X159521904Y-132547380D02*
X160093333Y-132547380D01*
X159807619Y-132547380D02*
X159807619Y-131547380D01*
X159902857Y-131690238D01*
X159998095Y-131785476D01*
X160093333Y-131833095D01*
X158902857Y-131547380D02*
X158807619Y-131547380D01*
X158712380Y-131595000D01*
X158664761Y-131642619D01*
X158617142Y-131737857D01*
X158569523Y-131928333D01*
X158569523Y-132166428D01*
X158617142Y-132356904D01*
X158664761Y-132452142D01*
X158712380Y-132499761D01*
X158807619Y-132547380D01*
X158902857Y-132547380D01*
X158998095Y-132499761D01*
X159045714Y-132452142D01*
X159093333Y-132356904D01*
X159140952Y-132166428D01*
X159140952Y-131928333D01*
X159093333Y-131737857D01*
X159045714Y-131642619D01*
X158998095Y-131595000D01*
X158902857Y-131547380D01*
X157998095Y-131975952D02*
X158093333Y-131928333D01*
X158140952Y-131880714D01*
X158188571Y-131785476D01*
X158188571Y-131737857D01*
X158140952Y-131642619D01*
X158093333Y-131595000D01*
X157998095Y-131547380D01*
X157807619Y-131547380D01*
X157712380Y-131595000D01*
X157664761Y-131642619D01*
X157617142Y-131737857D01*
X157617142Y-131785476D01*
X157664761Y-131880714D01*
X157712380Y-131928333D01*
X157807619Y-131975952D01*
X157998095Y-131975952D01*
X158093333Y-132023571D01*
X158140952Y-132071190D01*
X158188571Y-132166428D01*
X158188571Y-132356904D01*
X158140952Y-132452142D01*
X158093333Y-132499761D01*
X157998095Y-132547380D01*
X157807619Y-132547380D01*
X157712380Y-132499761D01*
X157664761Y-132452142D01*
X157617142Y-132356904D01*
X157617142Y-132166428D01*
X157664761Y-132071190D01*
X157712380Y-132023571D01*
X157807619Y-131975952D01*
X156521904Y-131880714D02*
X156283809Y-132547380D01*
X156045714Y-131880714D01*
X155140952Y-132547380D02*
X155712380Y-132547380D01*
X155426666Y-132547380D02*
X155426666Y-131547380D01*
X155521904Y-131690238D01*
X155617142Y-131785476D01*
X155712380Y-131833095D01*
X154712380Y-132452142D02*
X154664761Y-132499761D01*
X154712380Y-132547380D01*
X154760000Y-132499761D01*
X154712380Y-132452142D01*
X154712380Y-132547380D01*
X154331428Y-131547380D02*
X153712380Y-131547380D01*
X154045714Y-131928333D01*
X153902857Y-131928333D01*
X153807619Y-131975952D01*
X153760000Y-132023571D01*
X153712380Y-132118809D01*
X153712380Y-132356904D01*
X153760000Y-132452142D01*
X153807619Y-132499761D01*
X153902857Y-132547380D01*
X154188571Y-132547380D01*
X154283809Y-132499761D01*
X154331428Y-132452142D01*
X151950476Y-132452142D02*
X151998095Y-132499761D01*
X152140952Y-132547380D01*
X152236190Y-132547380D01*
X152379047Y-132499761D01*
X152474285Y-132404523D01*
X152521904Y-132309285D01*
X152569523Y-132118809D01*
X152569523Y-131975952D01*
X152521904Y-131785476D01*
X152474285Y-131690238D01*
X152379047Y-131595000D01*
X152236190Y-131547380D01*
X152140952Y-131547380D01*
X151998095Y-131595000D01*
X151950476Y-131642619D01*
X151521904Y-132547380D02*
X151521904Y-131880714D01*
X151521904Y-132071190D02*
X151474285Y-131975952D01*
X151426666Y-131928333D01*
X151331428Y-131880714D01*
X151236190Y-131880714D01*
X150521904Y-132499761D02*
X150617142Y-132547380D01*
X150807619Y-132547380D01*
X150902857Y-132499761D01*
X150950476Y-132404523D01*
X150950476Y-132023571D01*
X150902857Y-131928333D01*
X150807619Y-131880714D01*
X150617142Y-131880714D01*
X150521904Y-131928333D01*
X150474285Y-132023571D01*
X150474285Y-132118809D01*
X150950476Y-132214047D01*
X150093333Y-132499761D02*
X149998095Y-132547380D01*
X149807619Y-132547380D01*
X149712380Y-132499761D01*
X149664761Y-132404523D01*
X149664761Y-132356904D01*
X149712380Y-132261666D01*
X149807619Y-132214047D01*
X149950476Y-132214047D01*
X150045714Y-132166428D01*
X150093333Y-132071190D01*
X150093333Y-132023571D01*
X150045714Y-131928333D01*
X149950476Y-131880714D01*
X149807619Y-131880714D01*
X149712380Y-131928333D01*
X148807619Y-132499761D02*
X148902857Y-132547380D01*
X149093333Y-132547380D01*
X149188571Y-132499761D01*
X149236190Y-132452142D01*
X149283809Y-132356904D01*
X149283809Y-132071190D01*
X149236190Y-131975952D01*
X149188571Y-131928333D01*
X149093333Y-131880714D01*
X148902857Y-131880714D01*
X148807619Y-131928333D01*
X147998095Y-132499761D02*
X148093333Y-132547380D01*
X148283809Y-132547380D01*
X148379047Y-132499761D01*
X148426666Y-132404523D01*
X148426666Y-132023571D01*
X148379047Y-131928333D01*
X148283809Y-131880714D01*
X148093333Y-131880714D01*
X147998095Y-131928333D01*
X147950476Y-132023571D01*
X147950476Y-132118809D01*
X148426666Y-132214047D01*
X147521904Y-131880714D02*
X147521904Y-132547380D01*
X147521904Y-131975952D02*
X147474285Y-131928333D01*
X147379047Y-131880714D01*
X147236190Y-131880714D01*
X147140952Y-131928333D01*
X147093333Y-132023571D01*
X147093333Y-132547380D01*
X146760000Y-131880714D02*
X146379047Y-131880714D01*
X146617142Y-131547380D02*
X146617142Y-132404523D01*
X146569523Y-132499761D01*
X146474285Y-132547380D01*
X146379047Y-132547380D01*
%LPC*%
D11*
X140000000Y-112000000D03*
X140000000Y-132000000D03*
D12*
X165000000Y-124640000D03*
X165000000Y-122100000D03*
D13*
X165000000Y-119560000D03*
D14*
X141000000Y-124500000D03*
D15*
X141000000Y-119500000D03*
M02*
