G04 #@! TF.GenerationSoftware,KiCad,Pcbnew,(5.1.2)-1*
G04 #@! TF.CreationDate,2021-08-24T10:23:30+09:00*
G04 #@! TF.ProjectId,csa,6373612e-6b69-4636-9164-5f7063625858,v1.3*
G04 #@! TF.SameCoordinates,Original*
G04 #@! TF.FileFunction,Copper,L1,Top*
G04 #@! TF.FilePolarity,Positive*
%FSLAX46Y46*%
G04 Gerber Fmt 4.6, Leading zero omitted, Abs format (unit mm)*
G04 Created by KiCad (PCBNEW (5.1.2)-1) date 2021-08-24 10:23:30*
%MOMM*%
%LPD*%
G04 APERTURE LIST*
%ADD10C,0.100000*%
%ADD11C,0.875000*%
%ADD12C,1.250000*%
%ADD13C,0.300000*%
%ADD14R,1.100000X0.400000*%
%ADD15R,0.650000X1.060000*%
%ADD16O,1.700000X1.700000*%
%ADD17R,1.700000X1.700000*%
%ADD18C,2.500000*%
%ADD19R,2.500000X2.500000*%
%ADD20C,0.800000*%
%ADD21C,0.250000*%
%ADD22C,0.800000*%
%ADD23C,0.600000*%
%ADD24C,0.254000*%
G04 APERTURE END LIST*
D10*
G36*
X144917691Y-129611053D02*
G01*
X144938926Y-129614203D01*
X144959750Y-129619419D01*
X144979962Y-129626651D01*
X144999368Y-129635830D01*
X145017781Y-129646866D01*
X145035024Y-129659654D01*
X145050930Y-129674070D01*
X145065346Y-129689976D01*
X145078134Y-129707219D01*
X145089170Y-129725632D01*
X145098349Y-129745038D01*
X145105581Y-129765250D01*
X145110797Y-129786074D01*
X145113947Y-129807309D01*
X145115000Y-129828750D01*
X145115000Y-130266250D01*
X145113947Y-130287691D01*
X145110797Y-130308926D01*
X145105581Y-130329750D01*
X145098349Y-130349962D01*
X145089170Y-130369368D01*
X145078134Y-130387781D01*
X145065346Y-130405024D01*
X145050930Y-130420930D01*
X145035024Y-130435346D01*
X145017781Y-130448134D01*
X144999368Y-130459170D01*
X144979962Y-130468349D01*
X144959750Y-130475581D01*
X144938926Y-130480797D01*
X144917691Y-130483947D01*
X144896250Y-130485000D01*
X144383750Y-130485000D01*
X144362309Y-130483947D01*
X144341074Y-130480797D01*
X144320250Y-130475581D01*
X144300038Y-130468349D01*
X144280632Y-130459170D01*
X144262219Y-130448134D01*
X144244976Y-130435346D01*
X144229070Y-130420930D01*
X144214654Y-130405024D01*
X144201866Y-130387781D01*
X144190830Y-130369368D01*
X144181651Y-130349962D01*
X144174419Y-130329750D01*
X144169203Y-130308926D01*
X144166053Y-130287691D01*
X144165000Y-130266250D01*
X144165000Y-129828750D01*
X144166053Y-129807309D01*
X144169203Y-129786074D01*
X144174419Y-129765250D01*
X144181651Y-129745038D01*
X144190830Y-129725632D01*
X144201866Y-129707219D01*
X144214654Y-129689976D01*
X144229070Y-129674070D01*
X144244976Y-129659654D01*
X144262219Y-129646866D01*
X144280632Y-129635830D01*
X144300038Y-129626651D01*
X144320250Y-129619419D01*
X144341074Y-129614203D01*
X144362309Y-129611053D01*
X144383750Y-129610000D01*
X144896250Y-129610000D01*
X144917691Y-129611053D01*
X144917691Y-129611053D01*
G37*
D11*
X144640000Y-130047500D03*
D10*
G36*
X144917691Y-128036053D02*
G01*
X144938926Y-128039203D01*
X144959750Y-128044419D01*
X144979962Y-128051651D01*
X144999368Y-128060830D01*
X145017781Y-128071866D01*
X145035024Y-128084654D01*
X145050930Y-128099070D01*
X145065346Y-128114976D01*
X145078134Y-128132219D01*
X145089170Y-128150632D01*
X145098349Y-128170038D01*
X145105581Y-128190250D01*
X145110797Y-128211074D01*
X145113947Y-128232309D01*
X145115000Y-128253750D01*
X145115000Y-128691250D01*
X145113947Y-128712691D01*
X145110797Y-128733926D01*
X145105581Y-128754750D01*
X145098349Y-128774962D01*
X145089170Y-128794368D01*
X145078134Y-128812781D01*
X145065346Y-128830024D01*
X145050930Y-128845930D01*
X145035024Y-128860346D01*
X145017781Y-128873134D01*
X144999368Y-128884170D01*
X144979962Y-128893349D01*
X144959750Y-128900581D01*
X144938926Y-128905797D01*
X144917691Y-128908947D01*
X144896250Y-128910000D01*
X144383750Y-128910000D01*
X144362309Y-128908947D01*
X144341074Y-128905797D01*
X144320250Y-128900581D01*
X144300038Y-128893349D01*
X144280632Y-128884170D01*
X144262219Y-128873134D01*
X144244976Y-128860346D01*
X144229070Y-128845930D01*
X144214654Y-128830024D01*
X144201866Y-128812781D01*
X144190830Y-128794368D01*
X144181651Y-128774962D01*
X144174419Y-128754750D01*
X144169203Y-128733926D01*
X144166053Y-128712691D01*
X144165000Y-128691250D01*
X144165000Y-128253750D01*
X144166053Y-128232309D01*
X144169203Y-128211074D01*
X144174419Y-128190250D01*
X144181651Y-128170038D01*
X144190830Y-128150632D01*
X144201866Y-128132219D01*
X144214654Y-128114976D01*
X144229070Y-128099070D01*
X144244976Y-128084654D01*
X144262219Y-128071866D01*
X144280632Y-128060830D01*
X144300038Y-128051651D01*
X144320250Y-128044419D01*
X144341074Y-128039203D01*
X144362309Y-128036053D01*
X144383750Y-128035000D01*
X144896250Y-128035000D01*
X144917691Y-128036053D01*
X144917691Y-128036053D01*
G37*
D11*
X144640000Y-128472500D03*
D10*
G36*
X147669504Y-127266204D02*
G01*
X147693773Y-127269804D01*
X147717571Y-127275765D01*
X147740671Y-127284030D01*
X147762849Y-127294520D01*
X147783893Y-127307133D01*
X147803598Y-127321747D01*
X147821777Y-127338223D01*
X147838253Y-127356402D01*
X147852867Y-127376107D01*
X147865480Y-127397151D01*
X147875970Y-127419329D01*
X147884235Y-127442429D01*
X147890196Y-127466227D01*
X147893796Y-127490496D01*
X147895000Y-127515000D01*
X147895000Y-128265000D01*
X147893796Y-128289504D01*
X147890196Y-128313773D01*
X147884235Y-128337571D01*
X147875970Y-128360671D01*
X147865480Y-128382849D01*
X147852867Y-128403893D01*
X147838253Y-128423598D01*
X147821777Y-128441777D01*
X147803598Y-128458253D01*
X147783893Y-128472867D01*
X147762849Y-128485480D01*
X147740671Y-128495970D01*
X147717571Y-128504235D01*
X147693773Y-128510196D01*
X147669504Y-128513796D01*
X147645000Y-128515000D01*
X146395000Y-128515000D01*
X146370496Y-128513796D01*
X146346227Y-128510196D01*
X146322429Y-128504235D01*
X146299329Y-128495970D01*
X146277151Y-128485480D01*
X146256107Y-128472867D01*
X146236402Y-128458253D01*
X146218223Y-128441777D01*
X146201747Y-128423598D01*
X146187133Y-128403893D01*
X146174520Y-128382849D01*
X146164030Y-128360671D01*
X146155765Y-128337571D01*
X146149804Y-128313773D01*
X146146204Y-128289504D01*
X146145000Y-128265000D01*
X146145000Y-127515000D01*
X146146204Y-127490496D01*
X146149804Y-127466227D01*
X146155765Y-127442429D01*
X146164030Y-127419329D01*
X146174520Y-127397151D01*
X146187133Y-127376107D01*
X146201747Y-127356402D01*
X146218223Y-127338223D01*
X146236402Y-127321747D01*
X146256107Y-127307133D01*
X146277151Y-127294520D01*
X146299329Y-127284030D01*
X146322429Y-127275765D01*
X146346227Y-127269804D01*
X146370496Y-127266204D01*
X146395000Y-127265000D01*
X147645000Y-127265000D01*
X147669504Y-127266204D01*
X147669504Y-127266204D01*
G37*
D12*
X147020000Y-127890000D03*
D10*
G36*
X147669504Y-124466204D02*
G01*
X147693773Y-124469804D01*
X147717571Y-124475765D01*
X147740671Y-124484030D01*
X147762849Y-124494520D01*
X147783893Y-124507133D01*
X147803598Y-124521747D01*
X147821777Y-124538223D01*
X147838253Y-124556402D01*
X147852867Y-124576107D01*
X147865480Y-124597151D01*
X147875970Y-124619329D01*
X147884235Y-124642429D01*
X147890196Y-124666227D01*
X147893796Y-124690496D01*
X147895000Y-124715000D01*
X147895000Y-125465000D01*
X147893796Y-125489504D01*
X147890196Y-125513773D01*
X147884235Y-125537571D01*
X147875970Y-125560671D01*
X147865480Y-125582849D01*
X147852867Y-125603893D01*
X147838253Y-125623598D01*
X147821777Y-125641777D01*
X147803598Y-125658253D01*
X147783893Y-125672867D01*
X147762849Y-125685480D01*
X147740671Y-125695970D01*
X147717571Y-125704235D01*
X147693773Y-125710196D01*
X147669504Y-125713796D01*
X147645000Y-125715000D01*
X146395000Y-125715000D01*
X146370496Y-125713796D01*
X146346227Y-125710196D01*
X146322429Y-125704235D01*
X146299329Y-125695970D01*
X146277151Y-125685480D01*
X146256107Y-125672867D01*
X146236402Y-125658253D01*
X146218223Y-125641777D01*
X146201747Y-125623598D01*
X146187133Y-125603893D01*
X146174520Y-125582849D01*
X146164030Y-125560671D01*
X146155765Y-125537571D01*
X146149804Y-125513773D01*
X146146204Y-125489504D01*
X146145000Y-125465000D01*
X146145000Y-124715000D01*
X146146204Y-124690496D01*
X146149804Y-124666227D01*
X146155765Y-124642429D01*
X146164030Y-124619329D01*
X146174520Y-124597151D01*
X146187133Y-124576107D01*
X146201747Y-124556402D01*
X146218223Y-124538223D01*
X146236402Y-124521747D01*
X146256107Y-124507133D01*
X146277151Y-124494520D01*
X146299329Y-124484030D01*
X146322429Y-124475765D01*
X146346227Y-124469804D01*
X146370496Y-124466204D01*
X146395000Y-124465000D01*
X147645000Y-124465000D01*
X147669504Y-124466204D01*
X147669504Y-124466204D01*
G37*
D12*
X147020000Y-125090000D03*
D13*
X146990000Y-129990000D03*
D10*
G36*
X146990000Y-130990000D02*
G01*
X146240000Y-130490000D01*
X146240000Y-129490000D01*
X147740000Y-129490000D01*
X147740000Y-130490000D01*
X146990000Y-130990000D01*
X146990000Y-130990000D01*
G37*
D13*
X146990000Y-131440000D03*
D10*
G36*
X146240000Y-131940000D02*
G01*
X146240000Y-130790000D01*
X146990000Y-131290000D01*
X147740000Y-130790000D01*
X147740000Y-131940000D01*
X146240000Y-131940000D01*
X146240000Y-131940000D01*
G37*
D14*
X150650000Y-122075000D03*
X150650000Y-121425000D03*
X150650000Y-120775000D03*
X150650000Y-120125000D03*
X154950000Y-120125000D03*
X154950000Y-120775000D03*
X154950000Y-121425000D03*
X154950000Y-122075000D03*
D15*
X159000000Y-129200000D03*
X159950000Y-129200000D03*
X158050000Y-129200000D03*
X158050000Y-127000000D03*
X159000000Y-127000000D03*
X159950000Y-127000000D03*
D14*
X156650000Y-113125000D03*
X156650000Y-113775000D03*
X156650000Y-114425000D03*
X156650000Y-115075000D03*
X152350000Y-115075000D03*
X152350000Y-114425000D03*
X152350000Y-113775000D03*
X152350000Y-113125000D03*
D10*
G36*
X159340691Y-110526053D02*
G01*
X159361926Y-110529203D01*
X159382750Y-110534419D01*
X159402962Y-110541651D01*
X159422368Y-110550830D01*
X159440781Y-110561866D01*
X159458024Y-110574654D01*
X159473930Y-110589070D01*
X159488346Y-110604976D01*
X159501134Y-110622219D01*
X159512170Y-110640632D01*
X159521349Y-110660038D01*
X159528581Y-110680250D01*
X159533797Y-110701074D01*
X159536947Y-110722309D01*
X159538000Y-110743750D01*
X159538000Y-111256250D01*
X159536947Y-111277691D01*
X159533797Y-111298926D01*
X159528581Y-111319750D01*
X159521349Y-111339962D01*
X159512170Y-111359368D01*
X159501134Y-111377781D01*
X159488346Y-111395024D01*
X159473930Y-111410930D01*
X159458024Y-111425346D01*
X159440781Y-111438134D01*
X159422368Y-111449170D01*
X159402962Y-111458349D01*
X159382750Y-111465581D01*
X159361926Y-111470797D01*
X159340691Y-111473947D01*
X159319250Y-111475000D01*
X158881750Y-111475000D01*
X158860309Y-111473947D01*
X158839074Y-111470797D01*
X158818250Y-111465581D01*
X158798038Y-111458349D01*
X158778632Y-111449170D01*
X158760219Y-111438134D01*
X158742976Y-111425346D01*
X158727070Y-111410930D01*
X158712654Y-111395024D01*
X158699866Y-111377781D01*
X158688830Y-111359368D01*
X158679651Y-111339962D01*
X158672419Y-111319750D01*
X158667203Y-111298926D01*
X158664053Y-111277691D01*
X158663000Y-111256250D01*
X158663000Y-110743750D01*
X158664053Y-110722309D01*
X158667203Y-110701074D01*
X158672419Y-110680250D01*
X158679651Y-110660038D01*
X158688830Y-110640632D01*
X158699866Y-110622219D01*
X158712654Y-110604976D01*
X158727070Y-110589070D01*
X158742976Y-110574654D01*
X158760219Y-110561866D01*
X158778632Y-110550830D01*
X158798038Y-110541651D01*
X158818250Y-110534419D01*
X158839074Y-110529203D01*
X158860309Y-110526053D01*
X158881750Y-110525000D01*
X159319250Y-110525000D01*
X159340691Y-110526053D01*
X159340691Y-110526053D01*
G37*
D11*
X159100500Y-111000000D03*
D10*
G36*
X160915691Y-110526053D02*
G01*
X160936926Y-110529203D01*
X160957750Y-110534419D01*
X160977962Y-110541651D01*
X160997368Y-110550830D01*
X161015781Y-110561866D01*
X161033024Y-110574654D01*
X161048930Y-110589070D01*
X161063346Y-110604976D01*
X161076134Y-110622219D01*
X161087170Y-110640632D01*
X161096349Y-110660038D01*
X161103581Y-110680250D01*
X161108797Y-110701074D01*
X161111947Y-110722309D01*
X161113000Y-110743750D01*
X161113000Y-111256250D01*
X161111947Y-111277691D01*
X161108797Y-111298926D01*
X161103581Y-111319750D01*
X161096349Y-111339962D01*
X161087170Y-111359368D01*
X161076134Y-111377781D01*
X161063346Y-111395024D01*
X161048930Y-111410930D01*
X161033024Y-111425346D01*
X161015781Y-111438134D01*
X160997368Y-111449170D01*
X160977962Y-111458349D01*
X160957750Y-111465581D01*
X160936926Y-111470797D01*
X160915691Y-111473947D01*
X160894250Y-111475000D01*
X160456750Y-111475000D01*
X160435309Y-111473947D01*
X160414074Y-111470797D01*
X160393250Y-111465581D01*
X160373038Y-111458349D01*
X160353632Y-111449170D01*
X160335219Y-111438134D01*
X160317976Y-111425346D01*
X160302070Y-111410930D01*
X160287654Y-111395024D01*
X160274866Y-111377781D01*
X160263830Y-111359368D01*
X160254651Y-111339962D01*
X160247419Y-111319750D01*
X160242203Y-111298926D01*
X160239053Y-111277691D01*
X160238000Y-111256250D01*
X160238000Y-110743750D01*
X160239053Y-110722309D01*
X160242203Y-110701074D01*
X160247419Y-110680250D01*
X160254651Y-110660038D01*
X160263830Y-110640632D01*
X160274866Y-110622219D01*
X160287654Y-110604976D01*
X160302070Y-110589070D01*
X160317976Y-110574654D01*
X160335219Y-110561866D01*
X160353632Y-110550830D01*
X160373038Y-110541651D01*
X160393250Y-110534419D01*
X160414074Y-110529203D01*
X160435309Y-110526053D01*
X160456750Y-110525000D01*
X160894250Y-110525000D01*
X160915691Y-110526053D01*
X160915691Y-110526053D01*
G37*
D11*
X160675500Y-111000000D03*
D10*
G36*
X152140691Y-116926053D02*
G01*
X152161926Y-116929203D01*
X152182750Y-116934419D01*
X152202962Y-116941651D01*
X152222368Y-116950830D01*
X152240781Y-116961866D01*
X152258024Y-116974654D01*
X152273930Y-116989070D01*
X152288346Y-117004976D01*
X152301134Y-117022219D01*
X152312170Y-117040632D01*
X152321349Y-117060038D01*
X152328581Y-117080250D01*
X152333797Y-117101074D01*
X152336947Y-117122309D01*
X152338000Y-117143750D01*
X152338000Y-117656250D01*
X152336947Y-117677691D01*
X152333797Y-117698926D01*
X152328581Y-117719750D01*
X152321349Y-117739962D01*
X152312170Y-117759368D01*
X152301134Y-117777781D01*
X152288346Y-117795024D01*
X152273930Y-117810930D01*
X152258024Y-117825346D01*
X152240781Y-117838134D01*
X152222368Y-117849170D01*
X152202962Y-117858349D01*
X152182750Y-117865581D01*
X152161926Y-117870797D01*
X152140691Y-117873947D01*
X152119250Y-117875000D01*
X151681750Y-117875000D01*
X151660309Y-117873947D01*
X151639074Y-117870797D01*
X151618250Y-117865581D01*
X151598038Y-117858349D01*
X151578632Y-117849170D01*
X151560219Y-117838134D01*
X151542976Y-117825346D01*
X151527070Y-117810930D01*
X151512654Y-117795024D01*
X151499866Y-117777781D01*
X151488830Y-117759368D01*
X151479651Y-117739962D01*
X151472419Y-117719750D01*
X151467203Y-117698926D01*
X151464053Y-117677691D01*
X151463000Y-117656250D01*
X151463000Y-117143750D01*
X151464053Y-117122309D01*
X151467203Y-117101074D01*
X151472419Y-117080250D01*
X151479651Y-117060038D01*
X151488830Y-117040632D01*
X151499866Y-117022219D01*
X151512654Y-117004976D01*
X151527070Y-116989070D01*
X151542976Y-116974654D01*
X151560219Y-116961866D01*
X151578632Y-116950830D01*
X151598038Y-116941651D01*
X151618250Y-116934419D01*
X151639074Y-116929203D01*
X151660309Y-116926053D01*
X151681750Y-116925000D01*
X152119250Y-116925000D01*
X152140691Y-116926053D01*
X152140691Y-116926053D01*
G37*
D11*
X151900500Y-117400000D03*
D10*
G36*
X153715691Y-116926053D02*
G01*
X153736926Y-116929203D01*
X153757750Y-116934419D01*
X153777962Y-116941651D01*
X153797368Y-116950830D01*
X153815781Y-116961866D01*
X153833024Y-116974654D01*
X153848930Y-116989070D01*
X153863346Y-117004976D01*
X153876134Y-117022219D01*
X153887170Y-117040632D01*
X153896349Y-117060038D01*
X153903581Y-117080250D01*
X153908797Y-117101074D01*
X153911947Y-117122309D01*
X153913000Y-117143750D01*
X153913000Y-117656250D01*
X153911947Y-117677691D01*
X153908797Y-117698926D01*
X153903581Y-117719750D01*
X153896349Y-117739962D01*
X153887170Y-117759368D01*
X153876134Y-117777781D01*
X153863346Y-117795024D01*
X153848930Y-117810930D01*
X153833024Y-117825346D01*
X153815781Y-117838134D01*
X153797368Y-117849170D01*
X153777962Y-117858349D01*
X153757750Y-117865581D01*
X153736926Y-117870797D01*
X153715691Y-117873947D01*
X153694250Y-117875000D01*
X153256750Y-117875000D01*
X153235309Y-117873947D01*
X153214074Y-117870797D01*
X153193250Y-117865581D01*
X153173038Y-117858349D01*
X153153632Y-117849170D01*
X153135219Y-117838134D01*
X153117976Y-117825346D01*
X153102070Y-117810930D01*
X153087654Y-117795024D01*
X153074866Y-117777781D01*
X153063830Y-117759368D01*
X153054651Y-117739962D01*
X153047419Y-117719750D01*
X153042203Y-117698926D01*
X153039053Y-117677691D01*
X153038000Y-117656250D01*
X153038000Y-117143750D01*
X153039053Y-117122309D01*
X153042203Y-117101074D01*
X153047419Y-117080250D01*
X153054651Y-117060038D01*
X153063830Y-117040632D01*
X153074866Y-117022219D01*
X153087654Y-117004976D01*
X153102070Y-116989070D01*
X153117976Y-116974654D01*
X153135219Y-116961866D01*
X153153632Y-116950830D01*
X153173038Y-116941651D01*
X153193250Y-116934419D01*
X153214074Y-116929203D01*
X153235309Y-116926053D01*
X153256750Y-116925000D01*
X153694250Y-116925000D01*
X153715691Y-116926053D01*
X153715691Y-116926053D01*
G37*
D11*
X153475500Y-117400000D03*
D10*
G36*
X159315691Y-120326053D02*
G01*
X159336926Y-120329203D01*
X159357750Y-120334419D01*
X159377962Y-120341651D01*
X159397368Y-120350830D01*
X159415781Y-120361866D01*
X159433024Y-120374654D01*
X159448930Y-120389070D01*
X159463346Y-120404976D01*
X159476134Y-120422219D01*
X159487170Y-120440632D01*
X159496349Y-120460038D01*
X159503581Y-120480250D01*
X159508797Y-120501074D01*
X159511947Y-120522309D01*
X159513000Y-120543750D01*
X159513000Y-121056250D01*
X159511947Y-121077691D01*
X159508797Y-121098926D01*
X159503581Y-121119750D01*
X159496349Y-121139962D01*
X159487170Y-121159368D01*
X159476134Y-121177781D01*
X159463346Y-121195024D01*
X159448930Y-121210930D01*
X159433024Y-121225346D01*
X159415781Y-121238134D01*
X159397368Y-121249170D01*
X159377962Y-121258349D01*
X159357750Y-121265581D01*
X159336926Y-121270797D01*
X159315691Y-121273947D01*
X159294250Y-121275000D01*
X158856750Y-121275000D01*
X158835309Y-121273947D01*
X158814074Y-121270797D01*
X158793250Y-121265581D01*
X158773038Y-121258349D01*
X158753632Y-121249170D01*
X158735219Y-121238134D01*
X158717976Y-121225346D01*
X158702070Y-121210930D01*
X158687654Y-121195024D01*
X158674866Y-121177781D01*
X158663830Y-121159368D01*
X158654651Y-121139962D01*
X158647419Y-121119750D01*
X158642203Y-121098926D01*
X158639053Y-121077691D01*
X158638000Y-121056250D01*
X158638000Y-120543750D01*
X158639053Y-120522309D01*
X158642203Y-120501074D01*
X158647419Y-120480250D01*
X158654651Y-120460038D01*
X158663830Y-120440632D01*
X158674866Y-120422219D01*
X158687654Y-120404976D01*
X158702070Y-120389070D01*
X158717976Y-120374654D01*
X158735219Y-120361866D01*
X158753632Y-120350830D01*
X158773038Y-120341651D01*
X158793250Y-120334419D01*
X158814074Y-120329203D01*
X158835309Y-120326053D01*
X158856750Y-120325000D01*
X159294250Y-120325000D01*
X159315691Y-120326053D01*
X159315691Y-120326053D01*
G37*
D11*
X159075500Y-120800000D03*
D10*
G36*
X157740691Y-120326053D02*
G01*
X157761926Y-120329203D01*
X157782750Y-120334419D01*
X157802962Y-120341651D01*
X157822368Y-120350830D01*
X157840781Y-120361866D01*
X157858024Y-120374654D01*
X157873930Y-120389070D01*
X157888346Y-120404976D01*
X157901134Y-120422219D01*
X157912170Y-120440632D01*
X157921349Y-120460038D01*
X157928581Y-120480250D01*
X157933797Y-120501074D01*
X157936947Y-120522309D01*
X157938000Y-120543750D01*
X157938000Y-121056250D01*
X157936947Y-121077691D01*
X157933797Y-121098926D01*
X157928581Y-121119750D01*
X157921349Y-121139962D01*
X157912170Y-121159368D01*
X157901134Y-121177781D01*
X157888346Y-121195024D01*
X157873930Y-121210930D01*
X157858024Y-121225346D01*
X157840781Y-121238134D01*
X157822368Y-121249170D01*
X157802962Y-121258349D01*
X157782750Y-121265581D01*
X157761926Y-121270797D01*
X157740691Y-121273947D01*
X157719250Y-121275000D01*
X157281750Y-121275000D01*
X157260309Y-121273947D01*
X157239074Y-121270797D01*
X157218250Y-121265581D01*
X157198038Y-121258349D01*
X157178632Y-121249170D01*
X157160219Y-121238134D01*
X157142976Y-121225346D01*
X157127070Y-121210930D01*
X157112654Y-121195024D01*
X157099866Y-121177781D01*
X157088830Y-121159368D01*
X157079651Y-121139962D01*
X157072419Y-121119750D01*
X157067203Y-121098926D01*
X157064053Y-121077691D01*
X157063000Y-121056250D01*
X157063000Y-120543750D01*
X157064053Y-120522309D01*
X157067203Y-120501074D01*
X157072419Y-120480250D01*
X157079651Y-120460038D01*
X157088830Y-120440632D01*
X157099866Y-120422219D01*
X157112654Y-120404976D01*
X157127070Y-120389070D01*
X157142976Y-120374654D01*
X157160219Y-120361866D01*
X157178632Y-120350830D01*
X157198038Y-120341651D01*
X157218250Y-120334419D01*
X157239074Y-120329203D01*
X157260309Y-120326053D01*
X157281750Y-120325000D01*
X157719250Y-120325000D01*
X157740691Y-120326053D01*
X157740691Y-120326053D01*
G37*
D11*
X157500500Y-120800000D03*
D10*
G36*
X150349504Y-127276204D02*
G01*
X150373773Y-127279804D01*
X150397571Y-127285765D01*
X150420671Y-127294030D01*
X150442849Y-127304520D01*
X150463893Y-127317133D01*
X150483598Y-127331747D01*
X150501777Y-127348223D01*
X150518253Y-127366402D01*
X150532867Y-127386107D01*
X150545480Y-127407151D01*
X150555970Y-127429329D01*
X150564235Y-127452429D01*
X150570196Y-127476227D01*
X150573796Y-127500496D01*
X150575000Y-127525000D01*
X150575000Y-128275000D01*
X150573796Y-128299504D01*
X150570196Y-128323773D01*
X150564235Y-128347571D01*
X150555970Y-128370671D01*
X150545480Y-128392849D01*
X150532867Y-128413893D01*
X150518253Y-128433598D01*
X150501777Y-128451777D01*
X150483598Y-128468253D01*
X150463893Y-128482867D01*
X150442849Y-128495480D01*
X150420671Y-128505970D01*
X150397571Y-128514235D01*
X150373773Y-128520196D01*
X150349504Y-128523796D01*
X150325000Y-128525000D01*
X149075000Y-128525000D01*
X149050496Y-128523796D01*
X149026227Y-128520196D01*
X149002429Y-128514235D01*
X148979329Y-128505970D01*
X148957151Y-128495480D01*
X148936107Y-128482867D01*
X148916402Y-128468253D01*
X148898223Y-128451777D01*
X148881747Y-128433598D01*
X148867133Y-128413893D01*
X148854520Y-128392849D01*
X148844030Y-128370671D01*
X148835765Y-128347571D01*
X148829804Y-128323773D01*
X148826204Y-128299504D01*
X148825000Y-128275000D01*
X148825000Y-127525000D01*
X148826204Y-127500496D01*
X148829804Y-127476227D01*
X148835765Y-127452429D01*
X148844030Y-127429329D01*
X148854520Y-127407151D01*
X148867133Y-127386107D01*
X148881747Y-127366402D01*
X148898223Y-127348223D01*
X148916402Y-127331747D01*
X148936107Y-127317133D01*
X148957151Y-127304520D01*
X148979329Y-127294030D01*
X149002429Y-127285765D01*
X149026227Y-127279804D01*
X149050496Y-127276204D01*
X149075000Y-127275000D01*
X150325000Y-127275000D01*
X150349504Y-127276204D01*
X150349504Y-127276204D01*
G37*
D12*
X149700000Y-127900000D03*
D10*
G36*
X150349504Y-124476204D02*
G01*
X150373773Y-124479804D01*
X150397571Y-124485765D01*
X150420671Y-124494030D01*
X150442849Y-124504520D01*
X150463893Y-124517133D01*
X150483598Y-124531747D01*
X150501777Y-124548223D01*
X150518253Y-124566402D01*
X150532867Y-124586107D01*
X150545480Y-124607151D01*
X150555970Y-124629329D01*
X150564235Y-124652429D01*
X150570196Y-124676227D01*
X150573796Y-124700496D01*
X150575000Y-124725000D01*
X150575000Y-125475000D01*
X150573796Y-125499504D01*
X150570196Y-125523773D01*
X150564235Y-125547571D01*
X150555970Y-125570671D01*
X150545480Y-125592849D01*
X150532867Y-125613893D01*
X150518253Y-125633598D01*
X150501777Y-125651777D01*
X150483598Y-125668253D01*
X150463893Y-125682867D01*
X150442849Y-125695480D01*
X150420671Y-125705970D01*
X150397571Y-125714235D01*
X150373773Y-125720196D01*
X150349504Y-125723796D01*
X150325000Y-125725000D01*
X149075000Y-125725000D01*
X149050496Y-125723796D01*
X149026227Y-125720196D01*
X149002429Y-125714235D01*
X148979329Y-125705970D01*
X148957151Y-125695480D01*
X148936107Y-125682867D01*
X148916402Y-125668253D01*
X148898223Y-125651777D01*
X148881747Y-125633598D01*
X148867133Y-125613893D01*
X148854520Y-125592849D01*
X148844030Y-125570671D01*
X148835765Y-125547571D01*
X148829804Y-125523773D01*
X148826204Y-125499504D01*
X148825000Y-125475000D01*
X148825000Y-124725000D01*
X148826204Y-124700496D01*
X148829804Y-124676227D01*
X148835765Y-124652429D01*
X148844030Y-124629329D01*
X148854520Y-124607151D01*
X148867133Y-124586107D01*
X148881747Y-124566402D01*
X148898223Y-124548223D01*
X148916402Y-124531747D01*
X148936107Y-124517133D01*
X148957151Y-124504520D01*
X148979329Y-124494030D01*
X149002429Y-124485765D01*
X149026227Y-124479804D01*
X149050496Y-124476204D01*
X149075000Y-124475000D01*
X150325000Y-124475000D01*
X150349504Y-124476204D01*
X150349504Y-124476204D01*
G37*
D12*
X149700000Y-125100000D03*
D10*
G36*
X148740691Y-113026053D02*
G01*
X148761926Y-113029203D01*
X148782750Y-113034419D01*
X148802962Y-113041651D01*
X148822368Y-113050830D01*
X148840781Y-113061866D01*
X148858024Y-113074654D01*
X148873930Y-113089070D01*
X148888346Y-113104976D01*
X148901134Y-113122219D01*
X148912170Y-113140632D01*
X148921349Y-113160038D01*
X148928581Y-113180250D01*
X148933797Y-113201074D01*
X148936947Y-113222309D01*
X148938000Y-113243750D01*
X148938000Y-113756250D01*
X148936947Y-113777691D01*
X148933797Y-113798926D01*
X148928581Y-113819750D01*
X148921349Y-113839962D01*
X148912170Y-113859368D01*
X148901134Y-113877781D01*
X148888346Y-113895024D01*
X148873930Y-113910930D01*
X148858024Y-113925346D01*
X148840781Y-113938134D01*
X148822368Y-113949170D01*
X148802962Y-113958349D01*
X148782750Y-113965581D01*
X148761926Y-113970797D01*
X148740691Y-113973947D01*
X148719250Y-113975000D01*
X148281750Y-113975000D01*
X148260309Y-113973947D01*
X148239074Y-113970797D01*
X148218250Y-113965581D01*
X148198038Y-113958349D01*
X148178632Y-113949170D01*
X148160219Y-113938134D01*
X148142976Y-113925346D01*
X148127070Y-113910930D01*
X148112654Y-113895024D01*
X148099866Y-113877781D01*
X148088830Y-113859368D01*
X148079651Y-113839962D01*
X148072419Y-113819750D01*
X148067203Y-113798926D01*
X148064053Y-113777691D01*
X148063000Y-113756250D01*
X148063000Y-113243750D01*
X148064053Y-113222309D01*
X148067203Y-113201074D01*
X148072419Y-113180250D01*
X148079651Y-113160038D01*
X148088830Y-113140632D01*
X148099866Y-113122219D01*
X148112654Y-113104976D01*
X148127070Y-113089070D01*
X148142976Y-113074654D01*
X148160219Y-113061866D01*
X148178632Y-113050830D01*
X148198038Y-113041651D01*
X148218250Y-113034419D01*
X148239074Y-113029203D01*
X148260309Y-113026053D01*
X148281750Y-113025000D01*
X148719250Y-113025000D01*
X148740691Y-113026053D01*
X148740691Y-113026053D01*
G37*
D11*
X148500500Y-113500000D03*
D10*
G36*
X150315691Y-113026053D02*
G01*
X150336926Y-113029203D01*
X150357750Y-113034419D01*
X150377962Y-113041651D01*
X150397368Y-113050830D01*
X150415781Y-113061866D01*
X150433024Y-113074654D01*
X150448930Y-113089070D01*
X150463346Y-113104976D01*
X150476134Y-113122219D01*
X150487170Y-113140632D01*
X150496349Y-113160038D01*
X150503581Y-113180250D01*
X150508797Y-113201074D01*
X150511947Y-113222309D01*
X150513000Y-113243750D01*
X150513000Y-113756250D01*
X150511947Y-113777691D01*
X150508797Y-113798926D01*
X150503581Y-113819750D01*
X150496349Y-113839962D01*
X150487170Y-113859368D01*
X150476134Y-113877781D01*
X150463346Y-113895024D01*
X150448930Y-113910930D01*
X150433024Y-113925346D01*
X150415781Y-113938134D01*
X150397368Y-113949170D01*
X150377962Y-113958349D01*
X150357750Y-113965581D01*
X150336926Y-113970797D01*
X150315691Y-113973947D01*
X150294250Y-113975000D01*
X149856750Y-113975000D01*
X149835309Y-113973947D01*
X149814074Y-113970797D01*
X149793250Y-113965581D01*
X149773038Y-113958349D01*
X149753632Y-113949170D01*
X149735219Y-113938134D01*
X149717976Y-113925346D01*
X149702070Y-113910930D01*
X149687654Y-113895024D01*
X149674866Y-113877781D01*
X149663830Y-113859368D01*
X149654651Y-113839962D01*
X149647419Y-113819750D01*
X149642203Y-113798926D01*
X149639053Y-113777691D01*
X149638000Y-113756250D01*
X149638000Y-113243750D01*
X149639053Y-113222309D01*
X149642203Y-113201074D01*
X149647419Y-113180250D01*
X149654651Y-113160038D01*
X149663830Y-113140632D01*
X149674866Y-113122219D01*
X149687654Y-113104976D01*
X149702070Y-113089070D01*
X149717976Y-113074654D01*
X149735219Y-113061866D01*
X149753632Y-113050830D01*
X149773038Y-113041651D01*
X149793250Y-113034419D01*
X149814074Y-113029203D01*
X149835309Y-113026053D01*
X149856750Y-113025000D01*
X150294250Y-113025000D01*
X150315691Y-113026053D01*
X150315691Y-113026053D01*
G37*
D11*
X150075500Y-113500000D03*
D10*
G36*
X150327691Y-111326053D02*
G01*
X150348926Y-111329203D01*
X150369750Y-111334419D01*
X150389962Y-111341651D01*
X150409368Y-111350830D01*
X150427781Y-111361866D01*
X150445024Y-111374654D01*
X150460930Y-111389070D01*
X150475346Y-111404976D01*
X150488134Y-111422219D01*
X150499170Y-111440632D01*
X150508349Y-111460038D01*
X150515581Y-111480250D01*
X150520797Y-111501074D01*
X150523947Y-111522309D01*
X150525000Y-111543750D01*
X150525000Y-112056250D01*
X150523947Y-112077691D01*
X150520797Y-112098926D01*
X150515581Y-112119750D01*
X150508349Y-112139962D01*
X150499170Y-112159368D01*
X150488134Y-112177781D01*
X150475346Y-112195024D01*
X150460930Y-112210930D01*
X150445024Y-112225346D01*
X150427781Y-112238134D01*
X150409368Y-112249170D01*
X150389962Y-112258349D01*
X150369750Y-112265581D01*
X150348926Y-112270797D01*
X150327691Y-112273947D01*
X150306250Y-112275000D01*
X149868750Y-112275000D01*
X149847309Y-112273947D01*
X149826074Y-112270797D01*
X149805250Y-112265581D01*
X149785038Y-112258349D01*
X149765632Y-112249170D01*
X149747219Y-112238134D01*
X149729976Y-112225346D01*
X149714070Y-112210930D01*
X149699654Y-112195024D01*
X149686866Y-112177781D01*
X149675830Y-112159368D01*
X149666651Y-112139962D01*
X149659419Y-112119750D01*
X149654203Y-112098926D01*
X149651053Y-112077691D01*
X149650000Y-112056250D01*
X149650000Y-111543750D01*
X149651053Y-111522309D01*
X149654203Y-111501074D01*
X149659419Y-111480250D01*
X149666651Y-111460038D01*
X149675830Y-111440632D01*
X149686866Y-111422219D01*
X149699654Y-111404976D01*
X149714070Y-111389070D01*
X149729976Y-111374654D01*
X149747219Y-111361866D01*
X149765632Y-111350830D01*
X149785038Y-111341651D01*
X149805250Y-111334419D01*
X149826074Y-111329203D01*
X149847309Y-111326053D01*
X149868750Y-111325000D01*
X150306250Y-111325000D01*
X150327691Y-111326053D01*
X150327691Y-111326053D01*
G37*
D11*
X150087500Y-111800000D03*
D10*
G36*
X148752691Y-111326053D02*
G01*
X148773926Y-111329203D01*
X148794750Y-111334419D01*
X148814962Y-111341651D01*
X148834368Y-111350830D01*
X148852781Y-111361866D01*
X148870024Y-111374654D01*
X148885930Y-111389070D01*
X148900346Y-111404976D01*
X148913134Y-111422219D01*
X148924170Y-111440632D01*
X148933349Y-111460038D01*
X148940581Y-111480250D01*
X148945797Y-111501074D01*
X148948947Y-111522309D01*
X148950000Y-111543750D01*
X148950000Y-112056250D01*
X148948947Y-112077691D01*
X148945797Y-112098926D01*
X148940581Y-112119750D01*
X148933349Y-112139962D01*
X148924170Y-112159368D01*
X148913134Y-112177781D01*
X148900346Y-112195024D01*
X148885930Y-112210930D01*
X148870024Y-112225346D01*
X148852781Y-112238134D01*
X148834368Y-112249170D01*
X148814962Y-112258349D01*
X148794750Y-112265581D01*
X148773926Y-112270797D01*
X148752691Y-112273947D01*
X148731250Y-112275000D01*
X148293750Y-112275000D01*
X148272309Y-112273947D01*
X148251074Y-112270797D01*
X148230250Y-112265581D01*
X148210038Y-112258349D01*
X148190632Y-112249170D01*
X148172219Y-112238134D01*
X148154976Y-112225346D01*
X148139070Y-112210930D01*
X148124654Y-112195024D01*
X148111866Y-112177781D01*
X148100830Y-112159368D01*
X148091651Y-112139962D01*
X148084419Y-112119750D01*
X148079203Y-112098926D01*
X148076053Y-112077691D01*
X148075000Y-112056250D01*
X148075000Y-111543750D01*
X148076053Y-111522309D01*
X148079203Y-111501074D01*
X148084419Y-111480250D01*
X148091651Y-111460038D01*
X148100830Y-111440632D01*
X148111866Y-111422219D01*
X148124654Y-111404976D01*
X148139070Y-111389070D01*
X148154976Y-111374654D01*
X148172219Y-111361866D01*
X148190632Y-111350830D01*
X148210038Y-111341651D01*
X148230250Y-111334419D01*
X148251074Y-111329203D01*
X148272309Y-111326053D01*
X148293750Y-111325000D01*
X148731250Y-111325000D01*
X148752691Y-111326053D01*
X148752691Y-111326053D01*
G37*
D11*
X148512500Y-111800000D03*
D10*
G36*
X163564691Y-128826053D02*
G01*
X163585926Y-128829203D01*
X163606750Y-128834419D01*
X163626962Y-128841651D01*
X163646368Y-128850830D01*
X163664781Y-128861866D01*
X163682024Y-128874654D01*
X163697930Y-128889070D01*
X163712346Y-128904976D01*
X163725134Y-128922219D01*
X163736170Y-128940632D01*
X163745349Y-128960038D01*
X163752581Y-128980250D01*
X163757797Y-129001074D01*
X163760947Y-129022309D01*
X163762000Y-129043750D01*
X163762000Y-129556250D01*
X163760947Y-129577691D01*
X163757797Y-129598926D01*
X163752581Y-129619750D01*
X163745349Y-129639962D01*
X163736170Y-129659368D01*
X163725134Y-129677781D01*
X163712346Y-129695024D01*
X163697930Y-129710930D01*
X163682024Y-129725346D01*
X163664781Y-129738134D01*
X163646368Y-129749170D01*
X163626962Y-129758349D01*
X163606750Y-129765581D01*
X163585926Y-129770797D01*
X163564691Y-129773947D01*
X163543250Y-129775000D01*
X163105750Y-129775000D01*
X163084309Y-129773947D01*
X163063074Y-129770797D01*
X163042250Y-129765581D01*
X163022038Y-129758349D01*
X163002632Y-129749170D01*
X162984219Y-129738134D01*
X162966976Y-129725346D01*
X162951070Y-129710930D01*
X162936654Y-129695024D01*
X162923866Y-129677781D01*
X162912830Y-129659368D01*
X162903651Y-129639962D01*
X162896419Y-129619750D01*
X162891203Y-129598926D01*
X162888053Y-129577691D01*
X162887000Y-129556250D01*
X162887000Y-129043750D01*
X162888053Y-129022309D01*
X162891203Y-129001074D01*
X162896419Y-128980250D01*
X162903651Y-128960038D01*
X162912830Y-128940632D01*
X162923866Y-128922219D01*
X162936654Y-128904976D01*
X162951070Y-128889070D01*
X162966976Y-128874654D01*
X162984219Y-128861866D01*
X163002632Y-128850830D01*
X163022038Y-128841651D01*
X163042250Y-128834419D01*
X163063074Y-128829203D01*
X163084309Y-128826053D01*
X163105750Y-128825000D01*
X163543250Y-128825000D01*
X163564691Y-128826053D01*
X163564691Y-128826053D01*
G37*
D11*
X163324500Y-129300000D03*
D10*
G36*
X165139691Y-128826053D02*
G01*
X165160926Y-128829203D01*
X165181750Y-128834419D01*
X165201962Y-128841651D01*
X165221368Y-128850830D01*
X165239781Y-128861866D01*
X165257024Y-128874654D01*
X165272930Y-128889070D01*
X165287346Y-128904976D01*
X165300134Y-128922219D01*
X165311170Y-128940632D01*
X165320349Y-128960038D01*
X165327581Y-128980250D01*
X165332797Y-129001074D01*
X165335947Y-129022309D01*
X165337000Y-129043750D01*
X165337000Y-129556250D01*
X165335947Y-129577691D01*
X165332797Y-129598926D01*
X165327581Y-129619750D01*
X165320349Y-129639962D01*
X165311170Y-129659368D01*
X165300134Y-129677781D01*
X165287346Y-129695024D01*
X165272930Y-129710930D01*
X165257024Y-129725346D01*
X165239781Y-129738134D01*
X165221368Y-129749170D01*
X165201962Y-129758349D01*
X165181750Y-129765581D01*
X165160926Y-129770797D01*
X165139691Y-129773947D01*
X165118250Y-129775000D01*
X164680750Y-129775000D01*
X164659309Y-129773947D01*
X164638074Y-129770797D01*
X164617250Y-129765581D01*
X164597038Y-129758349D01*
X164577632Y-129749170D01*
X164559219Y-129738134D01*
X164541976Y-129725346D01*
X164526070Y-129710930D01*
X164511654Y-129695024D01*
X164498866Y-129677781D01*
X164487830Y-129659368D01*
X164478651Y-129639962D01*
X164471419Y-129619750D01*
X164466203Y-129598926D01*
X164463053Y-129577691D01*
X164462000Y-129556250D01*
X164462000Y-129043750D01*
X164463053Y-129022309D01*
X164466203Y-129001074D01*
X164471419Y-128980250D01*
X164478651Y-128960038D01*
X164487830Y-128940632D01*
X164498866Y-128922219D01*
X164511654Y-128904976D01*
X164526070Y-128889070D01*
X164541976Y-128874654D01*
X164559219Y-128861866D01*
X164577632Y-128850830D01*
X164597038Y-128841651D01*
X164617250Y-128834419D01*
X164638074Y-128829203D01*
X164659309Y-128826053D01*
X164680750Y-128825000D01*
X165118250Y-128825000D01*
X165139691Y-128826053D01*
X165139691Y-128826053D01*
G37*
D11*
X164899500Y-129300000D03*
D16*
X165000000Y-124640000D03*
X165000000Y-122100000D03*
D17*
X165000000Y-119560000D03*
D18*
X141000000Y-124500000D03*
D19*
X141000000Y-119500000D03*
D10*
G36*
X163552691Y-130626053D02*
G01*
X163573926Y-130629203D01*
X163594750Y-130634419D01*
X163614962Y-130641651D01*
X163634368Y-130650830D01*
X163652781Y-130661866D01*
X163670024Y-130674654D01*
X163685930Y-130689070D01*
X163700346Y-130704976D01*
X163713134Y-130722219D01*
X163724170Y-130740632D01*
X163733349Y-130760038D01*
X163740581Y-130780250D01*
X163745797Y-130801074D01*
X163748947Y-130822309D01*
X163750000Y-130843750D01*
X163750000Y-131356250D01*
X163748947Y-131377691D01*
X163745797Y-131398926D01*
X163740581Y-131419750D01*
X163733349Y-131439962D01*
X163724170Y-131459368D01*
X163713134Y-131477781D01*
X163700346Y-131495024D01*
X163685930Y-131510930D01*
X163670024Y-131525346D01*
X163652781Y-131538134D01*
X163634368Y-131549170D01*
X163614962Y-131558349D01*
X163594750Y-131565581D01*
X163573926Y-131570797D01*
X163552691Y-131573947D01*
X163531250Y-131575000D01*
X163093750Y-131575000D01*
X163072309Y-131573947D01*
X163051074Y-131570797D01*
X163030250Y-131565581D01*
X163010038Y-131558349D01*
X162990632Y-131549170D01*
X162972219Y-131538134D01*
X162954976Y-131525346D01*
X162939070Y-131510930D01*
X162924654Y-131495024D01*
X162911866Y-131477781D01*
X162900830Y-131459368D01*
X162891651Y-131439962D01*
X162884419Y-131419750D01*
X162879203Y-131398926D01*
X162876053Y-131377691D01*
X162875000Y-131356250D01*
X162875000Y-130843750D01*
X162876053Y-130822309D01*
X162879203Y-130801074D01*
X162884419Y-130780250D01*
X162891651Y-130760038D01*
X162900830Y-130740632D01*
X162911866Y-130722219D01*
X162924654Y-130704976D01*
X162939070Y-130689070D01*
X162954976Y-130674654D01*
X162972219Y-130661866D01*
X162990632Y-130650830D01*
X163010038Y-130641651D01*
X163030250Y-130634419D01*
X163051074Y-130629203D01*
X163072309Y-130626053D01*
X163093750Y-130625000D01*
X163531250Y-130625000D01*
X163552691Y-130626053D01*
X163552691Y-130626053D01*
G37*
D11*
X163312500Y-131100000D03*
D10*
G36*
X165127691Y-130626053D02*
G01*
X165148926Y-130629203D01*
X165169750Y-130634419D01*
X165189962Y-130641651D01*
X165209368Y-130650830D01*
X165227781Y-130661866D01*
X165245024Y-130674654D01*
X165260930Y-130689070D01*
X165275346Y-130704976D01*
X165288134Y-130722219D01*
X165299170Y-130740632D01*
X165308349Y-130760038D01*
X165315581Y-130780250D01*
X165320797Y-130801074D01*
X165323947Y-130822309D01*
X165325000Y-130843750D01*
X165325000Y-131356250D01*
X165323947Y-131377691D01*
X165320797Y-131398926D01*
X165315581Y-131419750D01*
X165308349Y-131439962D01*
X165299170Y-131459368D01*
X165288134Y-131477781D01*
X165275346Y-131495024D01*
X165260930Y-131510930D01*
X165245024Y-131525346D01*
X165227781Y-131538134D01*
X165209368Y-131549170D01*
X165189962Y-131558349D01*
X165169750Y-131565581D01*
X165148926Y-131570797D01*
X165127691Y-131573947D01*
X165106250Y-131575000D01*
X164668750Y-131575000D01*
X164647309Y-131573947D01*
X164626074Y-131570797D01*
X164605250Y-131565581D01*
X164585038Y-131558349D01*
X164565632Y-131549170D01*
X164547219Y-131538134D01*
X164529976Y-131525346D01*
X164514070Y-131510930D01*
X164499654Y-131495024D01*
X164486866Y-131477781D01*
X164475830Y-131459368D01*
X164466651Y-131439962D01*
X164459419Y-131419750D01*
X164454203Y-131398926D01*
X164451053Y-131377691D01*
X164450000Y-131356250D01*
X164450000Y-130843750D01*
X164451053Y-130822309D01*
X164454203Y-130801074D01*
X164459419Y-130780250D01*
X164466651Y-130760038D01*
X164475830Y-130740632D01*
X164486866Y-130722219D01*
X164499654Y-130704976D01*
X164514070Y-130689070D01*
X164529976Y-130674654D01*
X164547219Y-130661866D01*
X164565632Y-130650830D01*
X164585038Y-130641651D01*
X164605250Y-130634419D01*
X164626074Y-130629203D01*
X164647309Y-130626053D01*
X164668750Y-130625000D01*
X165106250Y-130625000D01*
X165127691Y-130626053D01*
X165127691Y-130626053D01*
G37*
D11*
X164887500Y-131100000D03*
D10*
G36*
X155440691Y-110526053D02*
G01*
X155461926Y-110529203D01*
X155482750Y-110534419D01*
X155502962Y-110541651D01*
X155522368Y-110550830D01*
X155540781Y-110561866D01*
X155558024Y-110574654D01*
X155573930Y-110589070D01*
X155588346Y-110604976D01*
X155601134Y-110622219D01*
X155612170Y-110640632D01*
X155621349Y-110660038D01*
X155628581Y-110680250D01*
X155633797Y-110701074D01*
X155636947Y-110722309D01*
X155638000Y-110743750D01*
X155638000Y-111256250D01*
X155636947Y-111277691D01*
X155633797Y-111298926D01*
X155628581Y-111319750D01*
X155621349Y-111339962D01*
X155612170Y-111359368D01*
X155601134Y-111377781D01*
X155588346Y-111395024D01*
X155573930Y-111410930D01*
X155558024Y-111425346D01*
X155540781Y-111438134D01*
X155522368Y-111449170D01*
X155502962Y-111458349D01*
X155482750Y-111465581D01*
X155461926Y-111470797D01*
X155440691Y-111473947D01*
X155419250Y-111475000D01*
X154981750Y-111475000D01*
X154960309Y-111473947D01*
X154939074Y-111470797D01*
X154918250Y-111465581D01*
X154898038Y-111458349D01*
X154878632Y-111449170D01*
X154860219Y-111438134D01*
X154842976Y-111425346D01*
X154827070Y-111410930D01*
X154812654Y-111395024D01*
X154799866Y-111377781D01*
X154788830Y-111359368D01*
X154779651Y-111339962D01*
X154772419Y-111319750D01*
X154767203Y-111298926D01*
X154764053Y-111277691D01*
X154763000Y-111256250D01*
X154763000Y-110743750D01*
X154764053Y-110722309D01*
X154767203Y-110701074D01*
X154772419Y-110680250D01*
X154779651Y-110660038D01*
X154788830Y-110640632D01*
X154799866Y-110622219D01*
X154812654Y-110604976D01*
X154827070Y-110589070D01*
X154842976Y-110574654D01*
X154860219Y-110561866D01*
X154878632Y-110550830D01*
X154898038Y-110541651D01*
X154918250Y-110534419D01*
X154939074Y-110529203D01*
X154960309Y-110526053D01*
X154981750Y-110525000D01*
X155419250Y-110525000D01*
X155440691Y-110526053D01*
X155440691Y-110526053D01*
G37*
D11*
X155200500Y-111000000D03*
D10*
G36*
X157015691Y-110526053D02*
G01*
X157036926Y-110529203D01*
X157057750Y-110534419D01*
X157077962Y-110541651D01*
X157097368Y-110550830D01*
X157115781Y-110561866D01*
X157133024Y-110574654D01*
X157148930Y-110589070D01*
X157163346Y-110604976D01*
X157176134Y-110622219D01*
X157187170Y-110640632D01*
X157196349Y-110660038D01*
X157203581Y-110680250D01*
X157208797Y-110701074D01*
X157211947Y-110722309D01*
X157213000Y-110743750D01*
X157213000Y-111256250D01*
X157211947Y-111277691D01*
X157208797Y-111298926D01*
X157203581Y-111319750D01*
X157196349Y-111339962D01*
X157187170Y-111359368D01*
X157176134Y-111377781D01*
X157163346Y-111395024D01*
X157148930Y-111410930D01*
X157133024Y-111425346D01*
X157115781Y-111438134D01*
X157097368Y-111449170D01*
X157077962Y-111458349D01*
X157057750Y-111465581D01*
X157036926Y-111470797D01*
X157015691Y-111473947D01*
X156994250Y-111475000D01*
X156556750Y-111475000D01*
X156535309Y-111473947D01*
X156514074Y-111470797D01*
X156493250Y-111465581D01*
X156473038Y-111458349D01*
X156453632Y-111449170D01*
X156435219Y-111438134D01*
X156417976Y-111425346D01*
X156402070Y-111410930D01*
X156387654Y-111395024D01*
X156374866Y-111377781D01*
X156363830Y-111359368D01*
X156354651Y-111339962D01*
X156347419Y-111319750D01*
X156342203Y-111298926D01*
X156339053Y-111277691D01*
X156338000Y-111256250D01*
X156338000Y-110743750D01*
X156339053Y-110722309D01*
X156342203Y-110701074D01*
X156347419Y-110680250D01*
X156354651Y-110660038D01*
X156363830Y-110640632D01*
X156374866Y-110622219D01*
X156387654Y-110604976D01*
X156402070Y-110589070D01*
X156417976Y-110574654D01*
X156435219Y-110561866D01*
X156453632Y-110550830D01*
X156473038Y-110541651D01*
X156493250Y-110534419D01*
X156514074Y-110529203D01*
X156535309Y-110526053D01*
X156556750Y-110525000D01*
X156994250Y-110525000D01*
X157015691Y-110526053D01*
X157015691Y-110526053D01*
G37*
D11*
X156775500Y-111000000D03*
D10*
G36*
X160915691Y-116926053D02*
G01*
X160936926Y-116929203D01*
X160957750Y-116934419D01*
X160977962Y-116941651D01*
X160997368Y-116950830D01*
X161015781Y-116961866D01*
X161033024Y-116974654D01*
X161048930Y-116989070D01*
X161063346Y-117004976D01*
X161076134Y-117022219D01*
X161087170Y-117040632D01*
X161096349Y-117060038D01*
X161103581Y-117080250D01*
X161108797Y-117101074D01*
X161111947Y-117122309D01*
X161113000Y-117143750D01*
X161113000Y-117656250D01*
X161111947Y-117677691D01*
X161108797Y-117698926D01*
X161103581Y-117719750D01*
X161096349Y-117739962D01*
X161087170Y-117759368D01*
X161076134Y-117777781D01*
X161063346Y-117795024D01*
X161048930Y-117810930D01*
X161033024Y-117825346D01*
X161015781Y-117838134D01*
X160997368Y-117849170D01*
X160977962Y-117858349D01*
X160957750Y-117865581D01*
X160936926Y-117870797D01*
X160915691Y-117873947D01*
X160894250Y-117875000D01*
X160456750Y-117875000D01*
X160435309Y-117873947D01*
X160414074Y-117870797D01*
X160393250Y-117865581D01*
X160373038Y-117858349D01*
X160353632Y-117849170D01*
X160335219Y-117838134D01*
X160317976Y-117825346D01*
X160302070Y-117810930D01*
X160287654Y-117795024D01*
X160274866Y-117777781D01*
X160263830Y-117759368D01*
X160254651Y-117739962D01*
X160247419Y-117719750D01*
X160242203Y-117698926D01*
X160239053Y-117677691D01*
X160238000Y-117656250D01*
X160238000Y-117143750D01*
X160239053Y-117122309D01*
X160242203Y-117101074D01*
X160247419Y-117080250D01*
X160254651Y-117060038D01*
X160263830Y-117040632D01*
X160274866Y-117022219D01*
X160287654Y-117004976D01*
X160302070Y-116989070D01*
X160317976Y-116974654D01*
X160335219Y-116961866D01*
X160353632Y-116950830D01*
X160373038Y-116941651D01*
X160393250Y-116934419D01*
X160414074Y-116929203D01*
X160435309Y-116926053D01*
X160456750Y-116925000D01*
X160894250Y-116925000D01*
X160915691Y-116926053D01*
X160915691Y-116926053D01*
G37*
D11*
X160675500Y-117400000D03*
D10*
G36*
X159340691Y-116926053D02*
G01*
X159361926Y-116929203D01*
X159382750Y-116934419D01*
X159402962Y-116941651D01*
X159422368Y-116950830D01*
X159440781Y-116961866D01*
X159458024Y-116974654D01*
X159473930Y-116989070D01*
X159488346Y-117004976D01*
X159501134Y-117022219D01*
X159512170Y-117040632D01*
X159521349Y-117060038D01*
X159528581Y-117080250D01*
X159533797Y-117101074D01*
X159536947Y-117122309D01*
X159538000Y-117143750D01*
X159538000Y-117656250D01*
X159536947Y-117677691D01*
X159533797Y-117698926D01*
X159528581Y-117719750D01*
X159521349Y-117739962D01*
X159512170Y-117759368D01*
X159501134Y-117777781D01*
X159488346Y-117795024D01*
X159473930Y-117810930D01*
X159458024Y-117825346D01*
X159440781Y-117838134D01*
X159422368Y-117849170D01*
X159402962Y-117858349D01*
X159382750Y-117865581D01*
X159361926Y-117870797D01*
X159340691Y-117873947D01*
X159319250Y-117875000D01*
X158881750Y-117875000D01*
X158860309Y-117873947D01*
X158839074Y-117870797D01*
X158818250Y-117865581D01*
X158798038Y-117858349D01*
X158778632Y-117849170D01*
X158760219Y-117838134D01*
X158742976Y-117825346D01*
X158727070Y-117810930D01*
X158712654Y-117795024D01*
X158699866Y-117777781D01*
X158688830Y-117759368D01*
X158679651Y-117739962D01*
X158672419Y-117719750D01*
X158667203Y-117698926D01*
X158664053Y-117677691D01*
X158663000Y-117656250D01*
X158663000Y-117143750D01*
X158664053Y-117122309D01*
X158667203Y-117101074D01*
X158672419Y-117080250D01*
X158679651Y-117060038D01*
X158688830Y-117040632D01*
X158699866Y-117022219D01*
X158712654Y-117004976D01*
X158727070Y-116989070D01*
X158742976Y-116974654D01*
X158760219Y-116961866D01*
X158778632Y-116950830D01*
X158798038Y-116941651D01*
X158818250Y-116934419D01*
X158839074Y-116929203D01*
X158860309Y-116926053D01*
X158881750Y-116925000D01*
X159319250Y-116925000D01*
X159340691Y-116926053D01*
X159340691Y-116926053D01*
G37*
D11*
X159100500Y-117400000D03*
D10*
G36*
X148877691Y-119864053D02*
G01*
X148898926Y-119867203D01*
X148919750Y-119872419D01*
X148939962Y-119879651D01*
X148959368Y-119888830D01*
X148977781Y-119899866D01*
X148995024Y-119912654D01*
X149010930Y-119927070D01*
X149025346Y-119942976D01*
X149038134Y-119960219D01*
X149049170Y-119978632D01*
X149058349Y-119998038D01*
X149065581Y-120018250D01*
X149070797Y-120039074D01*
X149073947Y-120060309D01*
X149075000Y-120081750D01*
X149075000Y-120519250D01*
X149073947Y-120540691D01*
X149070797Y-120561926D01*
X149065581Y-120582750D01*
X149058349Y-120602962D01*
X149049170Y-120622368D01*
X149038134Y-120640781D01*
X149025346Y-120658024D01*
X149010930Y-120673930D01*
X148995024Y-120688346D01*
X148977781Y-120701134D01*
X148959368Y-120712170D01*
X148939962Y-120721349D01*
X148919750Y-120728581D01*
X148898926Y-120733797D01*
X148877691Y-120736947D01*
X148856250Y-120738000D01*
X148343750Y-120738000D01*
X148322309Y-120736947D01*
X148301074Y-120733797D01*
X148280250Y-120728581D01*
X148260038Y-120721349D01*
X148240632Y-120712170D01*
X148222219Y-120701134D01*
X148204976Y-120688346D01*
X148189070Y-120673930D01*
X148174654Y-120658024D01*
X148161866Y-120640781D01*
X148150830Y-120622368D01*
X148141651Y-120602962D01*
X148134419Y-120582750D01*
X148129203Y-120561926D01*
X148126053Y-120540691D01*
X148125000Y-120519250D01*
X148125000Y-120081750D01*
X148126053Y-120060309D01*
X148129203Y-120039074D01*
X148134419Y-120018250D01*
X148141651Y-119998038D01*
X148150830Y-119978632D01*
X148161866Y-119960219D01*
X148174654Y-119942976D01*
X148189070Y-119927070D01*
X148204976Y-119912654D01*
X148222219Y-119899866D01*
X148240632Y-119888830D01*
X148260038Y-119879651D01*
X148280250Y-119872419D01*
X148301074Y-119867203D01*
X148322309Y-119864053D01*
X148343750Y-119863000D01*
X148856250Y-119863000D01*
X148877691Y-119864053D01*
X148877691Y-119864053D01*
G37*
D11*
X148600000Y-120300500D03*
D10*
G36*
X148877691Y-121439053D02*
G01*
X148898926Y-121442203D01*
X148919750Y-121447419D01*
X148939962Y-121454651D01*
X148959368Y-121463830D01*
X148977781Y-121474866D01*
X148995024Y-121487654D01*
X149010930Y-121502070D01*
X149025346Y-121517976D01*
X149038134Y-121535219D01*
X149049170Y-121553632D01*
X149058349Y-121573038D01*
X149065581Y-121593250D01*
X149070797Y-121614074D01*
X149073947Y-121635309D01*
X149075000Y-121656750D01*
X149075000Y-122094250D01*
X149073947Y-122115691D01*
X149070797Y-122136926D01*
X149065581Y-122157750D01*
X149058349Y-122177962D01*
X149049170Y-122197368D01*
X149038134Y-122215781D01*
X149025346Y-122233024D01*
X149010930Y-122248930D01*
X148995024Y-122263346D01*
X148977781Y-122276134D01*
X148959368Y-122287170D01*
X148939962Y-122296349D01*
X148919750Y-122303581D01*
X148898926Y-122308797D01*
X148877691Y-122311947D01*
X148856250Y-122313000D01*
X148343750Y-122313000D01*
X148322309Y-122311947D01*
X148301074Y-122308797D01*
X148280250Y-122303581D01*
X148260038Y-122296349D01*
X148240632Y-122287170D01*
X148222219Y-122276134D01*
X148204976Y-122263346D01*
X148189070Y-122248930D01*
X148174654Y-122233024D01*
X148161866Y-122215781D01*
X148150830Y-122197368D01*
X148141651Y-122177962D01*
X148134419Y-122157750D01*
X148129203Y-122136926D01*
X148126053Y-122115691D01*
X148125000Y-122094250D01*
X148125000Y-121656750D01*
X148126053Y-121635309D01*
X148129203Y-121614074D01*
X148134419Y-121593250D01*
X148141651Y-121573038D01*
X148150830Y-121553632D01*
X148161866Y-121535219D01*
X148174654Y-121517976D01*
X148189070Y-121502070D01*
X148204976Y-121487654D01*
X148222219Y-121474866D01*
X148240632Y-121463830D01*
X148260038Y-121454651D01*
X148280250Y-121447419D01*
X148301074Y-121442203D01*
X148322309Y-121439053D01*
X148343750Y-121438000D01*
X148856250Y-121438000D01*
X148877691Y-121439053D01*
X148877691Y-121439053D01*
G37*
D11*
X148600000Y-121875500D03*
D10*
G36*
X148752691Y-116926053D02*
G01*
X148773926Y-116929203D01*
X148794750Y-116934419D01*
X148814962Y-116941651D01*
X148834368Y-116950830D01*
X148852781Y-116961866D01*
X148870024Y-116974654D01*
X148885930Y-116989070D01*
X148900346Y-117004976D01*
X148913134Y-117022219D01*
X148924170Y-117040632D01*
X148933349Y-117060038D01*
X148940581Y-117080250D01*
X148945797Y-117101074D01*
X148948947Y-117122309D01*
X148950000Y-117143750D01*
X148950000Y-117656250D01*
X148948947Y-117677691D01*
X148945797Y-117698926D01*
X148940581Y-117719750D01*
X148933349Y-117739962D01*
X148924170Y-117759368D01*
X148913134Y-117777781D01*
X148900346Y-117795024D01*
X148885930Y-117810930D01*
X148870024Y-117825346D01*
X148852781Y-117838134D01*
X148834368Y-117849170D01*
X148814962Y-117858349D01*
X148794750Y-117865581D01*
X148773926Y-117870797D01*
X148752691Y-117873947D01*
X148731250Y-117875000D01*
X148293750Y-117875000D01*
X148272309Y-117873947D01*
X148251074Y-117870797D01*
X148230250Y-117865581D01*
X148210038Y-117858349D01*
X148190632Y-117849170D01*
X148172219Y-117838134D01*
X148154976Y-117825346D01*
X148139070Y-117810930D01*
X148124654Y-117795024D01*
X148111866Y-117777781D01*
X148100830Y-117759368D01*
X148091651Y-117739962D01*
X148084419Y-117719750D01*
X148079203Y-117698926D01*
X148076053Y-117677691D01*
X148075000Y-117656250D01*
X148075000Y-117143750D01*
X148076053Y-117122309D01*
X148079203Y-117101074D01*
X148084419Y-117080250D01*
X148091651Y-117060038D01*
X148100830Y-117040632D01*
X148111866Y-117022219D01*
X148124654Y-117004976D01*
X148139070Y-116989070D01*
X148154976Y-116974654D01*
X148172219Y-116961866D01*
X148190632Y-116950830D01*
X148210038Y-116941651D01*
X148230250Y-116934419D01*
X148251074Y-116929203D01*
X148272309Y-116926053D01*
X148293750Y-116925000D01*
X148731250Y-116925000D01*
X148752691Y-116926053D01*
X148752691Y-116926053D01*
G37*
D11*
X148512500Y-117400000D03*
D10*
G36*
X150327691Y-116926053D02*
G01*
X150348926Y-116929203D01*
X150369750Y-116934419D01*
X150389962Y-116941651D01*
X150409368Y-116950830D01*
X150427781Y-116961866D01*
X150445024Y-116974654D01*
X150460930Y-116989070D01*
X150475346Y-117004976D01*
X150488134Y-117022219D01*
X150499170Y-117040632D01*
X150508349Y-117060038D01*
X150515581Y-117080250D01*
X150520797Y-117101074D01*
X150523947Y-117122309D01*
X150525000Y-117143750D01*
X150525000Y-117656250D01*
X150523947Y-117677691D01*
X150520797Y-117698926D01*
X150515581Y-117719750D01*
X150508349Y-117739962D01*
X150499170Y-117759368D01*
X150488134Y-117777781D01*
X150475346Y-117795024D01*
X150460930Y-117810930D01*
X150445024Y-117825346D01*
X150427781Y-117838134D01*
X150409368Y-117849170D01*
X150389962Y-117858349D01*
X150369750Y-117865581D01*
X150348926Y-117870797D01*
X150327691Y-117873947D01*
X150306250Y-117875000D01*
X149868750Y-117875000D01*
X149847309Y-117873947D01*
X149826074Y-117870797D01*
X149805250Y-117865581D01*
X149785038Y-117858349D01*
X149765632Y-117849170D01*
X149747219Y-117838134D01*
X149729976Y-117825346D01*
X149714070Y-117810930D01*
X149699654Y-117795024D01*
X149686866Y-117777781D01*
X149675830Y-117759368D01*
X149666651Y-117739962D01*
X149659419Y-117719750D01*
X149654203Y-117698926D01*
X149651053Y-117677691D01*
X149650000Y-117656250D01*
X149650000Y-117143750D01*
X149651053Y-117122309D01*
X149654203Y-117101074D01*
X149659419Y-117080250D01*
X149666651Y-117060038D01*
X149675830Y-117040632D01*
X149686866Y-117022219D01*
X149699654Y-117004976D01*
X149714070Y-116989070D01*
X149729976Y-116974654D01*
X149747219Y-116961866D01*
X149765632Y-116950830D01*
X149785038Y-116941651D01*
X149805250Y-116934419D01*
X149826074Y-116929203D01*
X149847309Y-116926053D01*
X149868750Y-116925000D01*
X150306250Y-116925000D01*
X150327691Y-116926053D01*
X150327691Y-116926053D01*
G37*
D11*
X150087500Y-117400000D03*
D10*
G36*
X160015691Y-124526053D02*
G01*
X160036926Y-124529203D01*
X160057750Y-124534419D01*
X160077962Y-124541651D01*
X160097368Y-124550830D01*
X160115781Y-124561866D01*
X160133024Y-124574654D01*
X160148930Y-124589070D01*
X160163346Y-124604976D01*
X160176134Y-124622219D01*
X160187170Y-124640632D01*
X160196349Y-124660038D01*
X160203581Y-124680250D01*
X160208797Y-124701074D01*
X160211947Y-124722309D01*
X160213000Y-124743750D01*
X160213000Y-125256250D01*
X160211947Y-125277691D01*
X160208797Y-125298926D01*
X160203581Y-125319750D01*
X160196349Y-125339962D01*
X160187170Y-125359368D01*
X160176134Y-125377781D01*
X160163346Y-125395024D01*
X160148930Y-125410930D01*
X160133024Y-125425346D01*
X160115781Y-125438134D01*
X160097368Y-125449170D01*
X160077962Y-125458349D01*
X160057750Y-125465581D01*
X160036926Y-125470797D01*
X160015691Y-125473947D01*
X159994250Y-125475000D01*
X159556750Y-125475000D01*
X159535309Y-125473947D01*
X159514074Y-125470797D01*
X159493250Y-125465581D01*
X159473038Y-125458349D01*
X159453632Y-125449170D01*
X159435219Y-125438134D01*
X159417976Y-125425346D01*
X159402070Y-125410930D01*
X159387654Y-125395024D01*
X159374866Y-125377781D01*
X159363830Y-125359368D01*
X159354651Y-125339962D01*
X159347419Y-125319750D01*
X159342203Y-125298926D01*
X159339053Y-125277691D01*
X159338000Y-125256250D01*
X159338000Y-124743750D01*
X159339053Y-124722309D01*
X159342203Y-124701074D01*
X159347419Y-124680250D01*
X159354651Y-124660038D01*
X159363830Y-124640632D01*
X159374866Y-124622219D01*
X159387654Y-124604976D01*
X159402070Y-124589070D01*
X159417976Y-124574654D01*
X159435219Y-124561866D01*
X159453632Y-124550830D01*
X159473038Y-124541651D01*
X159493250Y-124534419D01*
X159514074Y-124529203D01*
X159535309Y-124526053D01*
X159556750Y-124525000D01*
X159994250Y-124525000D01*
X160015691Y-124526053D01*
X160015691Y-124526053D01*
G37*
D11*
X159775500Y-125000000D03*
D10*
G36*
X158440691Y-124526053D02*
G01*
X158461926Y-124529203D01*
X158482750Y-124534419D01*
X158502962Y-124541651D01*
X158522368Y-124550830D01*
X158540781Y-124561866D01*
X158558024Y-124574654D01*
X158573930Y-124589070D01*
X158588346Y-124604976D01*
X158601134Y-124622219D01*
X158612170Y-124640632D01*
X158621349Y-124660038D01*
X158628581Y-124680250D01*
X158633797Y-124701074D01*
X158636947Y-124722309D01*
X158638000Y-124743750D01*
X158638000Y-125256250D01*
X158636947Y-125277691D01*
X158633797Y-125298926D01*
X158628581Y-125319750D01*
X158621349Y-125339962D01*
X158612170Y-125359368D01*
X158601134Y-125377781D01*
X158588346Y-125395024D01*
X158573930Y-125410930D01*
X158558024Y-125425346D01*
X158540781Y-125438134D01*
X158522368Y-125449170D01*
X158502962Y-125458349D01*
X158482750Y-125465581D01*
X158461926Y-125470797D01*
X158440691Y-125473947D01*
X158419250Y-125475000D01*
X157981750Y-125475000D01*
X157960309Y-125473947D01*
X157939074Y-125470797D01*
X157918250Y-125465581D01*
X157898038Y-125458349D01*
X157878632Y-125449170D01*
X157860219Y-125438134D01*
X157842976Y-125425346D01*
X157827070Y-125410930D01*
X157812654Y-125395024D01*
X157799866Y-125377781D01*
X157788830Y-125359368D01*
X157779651Y-125339962D01*
X157772419Y-125319750D01*
X157767203Y-125298926D01*
X157764053Y-125277691D01*
X157763000Y-125256250D01*
X157763000Y-124743750D01*
X157764053Y-124722309D01*
X157767203Y-124701074D01*
X157772419Y-124680250D01*
X157779651Y-124660038D01*
X157788830Y-124640632D01*
X157799866Y-124622219D01*
X157812654Y-124604976D01*
X157827070Y-124589070D01*
X157842976Y-124574654D01*
X157860219Y-124561866D01*
X157878632Y-124550830D01*
X157898038Y-124541651D01*
X157918250Y-124534419D01*
X157939074Y-124529203D01*
X157960309Y-124526053D01*
X157981750Y-124525000D01*
X158419250Y-124525000D01*
X158440691Y-124526053D01*
X158440691Y-124526053D01*
G37*
D11*
X158200500Y-125000000D03*
D10*
G36*
X158452691Y-130726053D02*
G01*
X158473926Y-130729203D01*
X158494750Y-130734419D01*
X158514962Y-130741651D01*
X158534368Y-130750830D01*
X158552781Y-130761866D01*
X158570024Y-130774654D01*
X158585930Y-130789070D01*
X158600346Y-130804976D01*
X158613134Y-130822219D01*
X158624170Y-130840632D01*
X158633349Y-130860038D01*
X158640581Y-130880250D01*
X158645797Y-130901074D01*
X158648947Y-130922309D01*
X158650000Y-130943750D01*
X158650000Y-131456250D01*
X158648947Y-131477691D01*
X158645797Y-131498926D01*
X158640581Y-131519750D01*
X158633349Y-131539962D01*
X158624170Y-131559368D01*
X158613134Y-131577781D01*
X158600346Y-131595024D01*
X158585930Y-131610930D01*
X158570024Y-131625346D01*
X158552781Y-131638134D01*
X158534368Y-131649170D01*
X158514962Y-131658349D01*
X158494750Y-131665581D01*
X158473926Y-131670797D01*
X158452691Y-131673947D01*
X158431250Y-131675000D01*
X157993750Y-131675000D01*
X157972309Y-131673947D01*
X157951074Y-131670797D01*
X157930250Y-131665581D01*
X157910038Y-131658349D01*
X157890632Y-131649170D01*
X157872219Y-131638134D01*
X157854976Y-131625346D01*
X157839070Y-131610930D01*
X157824654Y-131595024D01*
X157811866Y-131577781D01*
X157800830Y-131559368D01*
X157791651Y-131539962D01*
X157784419Y-131519750D01*
X157779203Y-131498926D01*
X157776053Y-131477691D01*
X157775000Y-131456250D01*
X157775000Y-130943750D01*
X157776053Y-130922309D01*
X157779203Y-130901074D01*
X157784419Y-130880250D01*
X157791651Y-130860038D01*
X157800830Y-130840632D01*
X157811866Y-130822219D01*
X157824654Y-130804976D01*
X157839070Y-130789070D01*
X157854976Y-130774654D01*
X157872219Y-130761866D01*
X157890632Y-130750830D01*
X157910038Y-130741651D01*
X157930250Y-130734419D01*
X157951074Y-130729203D01*
X157972309Y-130726053D01*
X157993750Y-130725000D01*
X158431250Y-130725000D01*
X158452691Y-130726053D01*
X158452691Y-130726053D01*
G37*
D11*
X158212500Y-131200000D03*
D10*
G36*
X160027691Y-130726053D02*
G01*
X160048926Y-130729203D01*
X160069750Y-130734419D01*
X160089962Y-130741651D01*
X160109368Y-130750830D01*
X160127781Y-130761866D01*
X160145024Y-130774654D01*
X160160930Y-130789070D01*
X160175346Y-130804976D01*
X160188134Y-130822219D01*
X160199170Y-130840632D01*
X160208349Y-130860038D01*
X160215581Y-130880250D01*
X160220797Y-130901074D01*
X160223947Y-130922309D01*
X160225000Y-130943750D01*
X160225000Y-131456250D01*
X160223947Y-131477691D01*
X160220797Y-131498926D01*
X160215581Y-131519750D01*
X160208349Y-131539962D01*
X160199170Y-131559368D01*
X160188134Y-131577781D01*
X160175346Y-131595024D01*
X160160930Y-131610930D01*
X160145024Y-131625346D01*
X160127781Y-131638134D01*
X160109368Y-131649170D01*
X160089962Y-131658349D01*
X160069750Y-131665581D01*
X160048926Y-131670797D01*
X160027691Y-131673947D01*
X160006250Y-131675000D01*
X159568750Y-131675000D01*
X159547309Y-131673947D01*
X159526074Y-131670797D01*
X159505250Y-131665581D01*
X159485038Y-131658349D01*
X159465632Y-131649170D01*
X159447219Y-131638134D01*
X159429976Y-131625346D01*
X159414070Y-131610930D01*
X159399654Y-131595024D01*
X159386866Y-131577781D01*
X159375830Y-131559368D01*
X159366651Y-131539962D01*
X159359419Y-131519750D01*
X159354203Y-131498926D01*
X159351053Y-131477691D01*
X159350000Y-131456250D01*
X159350000Y-130943750D01*
X159351053Y-130922309D01*
X159354203Y-130901074D01*
X159359419Y-130880250D01*
X159366651Y-130860038D01*
X159375830Y-130840632D01*
X159386866Y-130822219D01*
X159399654Y-130804976D01*
X159414070Y-130789070D01*
X159429976Y-130774654D01*
X159447219Y-130761866D01*
X159465632Y-130750830D01*
X159485038Y-130741651D01*
X159505250Y-130734419D01*
X159526074Y-130729203D01*
X159547309Y-130726053D01*
X159568750Y-130725000D01*
X160006250Y-130725000D01*
X160027691Y-130726053D01*
X160027691Y-130726053D01*
G37*
D11*
X159787500Y-131200000D03*
D10*
G36*
X148752691Y-114726053D02*
G01*
X148773926Y-114729203D01*
X148794750Y-114734419D01*
X148814962Y-114741651D01*
X148834368Y-114750830D01*
X148852781Y-114761866D01*
X148870024Y-114774654D01*
X148885930Y-114789070D01*
X148900346Y-114804976D01*
X148913134Y-114822219D01*
X148924170Y-114840632D01*
X148933349Y-114860038D01*
X148940581Y-114880250D01*
X148945797Y-114901074D01*
X148948947Y-114922309D01*
X148950000Y-114943750D01*
X148950000Y-115456250D01*
X148948947Y-115477691D01*
X148945797Y-115498926D01*
X148940581Y-115519750D01*
X148933349Y-115539962D01*
X148924170Y-115559368D01*
X148913134Y-115577781D01*
X148900346Y-115595024D01*
X148885930Y-115610930D01*
X148870024Y-115625346D01*
X148852781Y-115638134D01*
X148834368Y-115649170D01*
X148814962Y-115658349D01*
X148794750Y-115665581D01*
X148773926Y-115670797D01*
X148752691Y-115673947D01*
X148731250Y-115675000D01*
X148293750Y-115675000D01*
X148272309Y-115673947D01*
X148251074Y-115670797D01*
X148230250Y-115665581D01*
X148210038Y-115658349D01*
X148190632Y-115649170D01*
X148172219Y-115638134D01*
X148154976Y-115625346D01*
X148139070Y-115610930D01*
X148124654Y-115595024D01*
X148111866Y-115577781D01*
X148100830Y-115559368D01*
X148091651Y-115539962D01*
X148084419Y-115519750D01*
X148079203Y-115498926D01*
X148076053Y-115477691D01*
X148075000Y-115456250D01*
X148075000Y-114943750D01*
X148076053Y-114922309D01*
X148079203Y-114901074D01*
X148084419Y-114880250D01*
X148091651Y-114860038D01*
X148100830Y-114840632D01*
X148111866Y-114822219D01*
X148124654Y-114804976D01*
X148139070Y-114789070D01*
X148154976Y-114774654D01*
X148172219Y-114761866D01*
X148190632Y-114750830D01*
X148210038Y-114741651D01*
X148230250Y-114734419D01*
X148251074Y-114729203D01*
X148272309Y-114726053D01*
X148293750Y-114725000D01*
X148731250Y-114725000D01*
X148752691Y-114726053D01*
X148752691Y-114726053D01*
G37*
D11*
X148512500Y-115200000D03*
D10*
G36*
X150327691Y-114726053D02*
G01*
X150348926Y-114729203D01*
X150369750Y-114734419D01*
X150389962Y-114741651D01*
X150409368Y-114750830D01*
X150427781Y-114761866D01*
X150445024Y-114774654D01*
X150460930Y-114789070D01*
X150475346Y-114804976D01*
X150488134Y-114822219D01*
X150499170Y-114840632D01*
X150508349Y-114860038D01*
X150515581Y-114880250D01*
X150520797Y-114901074D01*
X150523947Y-114922309D01*
X150525000Y-114943750D01*
X150525000Y-115456250D01*
X150523947Y-115477691D01*
X150520797Y-115498926D01*
X150515581Y-115519750D01*
X150508349Y-115539962D01*
X150499170Y-115559368D01*
X150488134Y-115577781D01*
X150475346Y-115595024D01*
X150460930Y-115610930D01*
X150445024Y-115625346D01*
X150427781Y-115638134D01*
X150409368Y-115649170D01*
X150389962Y-115658349D01*
X150369750Y-115665581D01*
X150348926Y-115670797D01*
X150327691Y-115673947D01*
X150306250Y-115675000D01*
X149868750Y-115675000D01*
X149847309Y-115673947D01*
X149826074Y-115670797D01*
X149805250Y-115665581D01*
X149785038Y-115658349D01*
X149765632Y-115649170D01*
X149747219Y-115638134D01*
X149729976Y-115625346D01*
X149714070Y-115610930D01*
X149699654Y-115595024D01*
X149686866Y-115577781D01*
X149675830Y-115559368D01*
X149666651Y-115539962D01*
X149659419Y-115519750D01*
X149654203Y-115498926D01*
X149651053Y-115477691D01*
X149650000Y-115456250D01*
X149650000Y-114943750D01*
X149651053Y-114922309D01*
X149654203Y-114901074D01*
X149659419Y-114880250D01*
X149666651Y-114860038D01*
X149675830Y-114840632D01*
X149686866Y-114822219D01*
X149699654Y-114804976D01*
X149714070Y-114789070D01*
X149729976Y-114774654D01*
X149747219Y-114761866D01*
X149765632Y-114750830D01*
X149785038Y-114741651D01*
X149805250Y-114734419D01*
X149826074Y-114729203D01*
X149847309Y-114726053D01*
X149868750Y-114725000D01*
X150306250Y-114725000D01*
X150327691Y-114726053D01*
X150327691Y-114726053D01*
G37*
D11*
X150087500Y-115200000D03*
D10*
G36*
X155452691Y-116926053D02*
G01*
X155473926Y-116929203D01*
X155494750Y-116934419D01*
X155514962Y-116941651D01*
X155534368Y-116950830D01*
X155552781Y-116961866D01*
X155570024Y-116974654D01*
X155585930Y-116989070D01*
X155600346Y-117004976D01*
X155613134Y-117022219D01*
X155624170Y-117040632D01*
X155633349Y-117060038D01*
X155640581Y-117080250D01*
X155645797Y-117101074D01*
X155648947Y-117122309D01*
X155650000Y-117143750D01*
X155650000Y-117656250D01*
X155648947Y-117677691D01*
X155645797Y-117698926D01*
X155640581Y-117719750D01*
X155633349Y-117739962D01*
X155624170Y-117759368D01*
X155613134Y-117777781D01*
X155600346Y-117795024D01*
X155585930Y-117810930D01*
X155570024Y-117825346D01*
X155552781Y-117838134D01*
X155534368Y-117849170D01*
X155514962Y-117858349D01*
X155494750Y-117865581D01*
X155473926Y-117870797D01*
X155452691Y-117873947D01*
X155431250Y-117875000D01*
X154993750Y-117875000D01*
X154972309Y-117873947D01*
X154951074Y-117870797D01*
X154930250Y-117865581D01*
X154910038Y-117858349D01*
X154890632Y-117849170D01*
X154872219Y-117838134D01*
X154854976Y-117825346D01*
X154839070Y-117810930D01*
X154824654Y-117795024D01*
X154811866Y-117777781D01*
X154800830Y-117759368D01*
X154791651Y-117739962D01*
X154784419Y-117719750D01*
X154779203Y-117698926D01*
X154776053Y-117677691D01*
X154775000Y-117656250D01*
X154775000Y-117143750D01*
X154776053Y-117122309D01*
X154779203Y-117101074D01*
X154784419Y-117080250D01*
X154791651Y-117060038D01*
X154800830Y-117040632D01*
X154811866Y-117022219D01*
X154824654Y-117004976D01*
X154839070Y-116989070D01*
X154854976Y-116974654D01*
X154872219Y-116961866D01*
X154890632Y-116950830D01*
X154910038Y-116941651D01*
X154930250Y-116934419D01*
X154951074Y-116929203D01*
X154972309Y-116926053D01*
X154993750Y-116925000D01*
X155431250Y-116925000D01*
X155452691Y-116926053D01*
X155452691Y-116926053D01*
G37*
D11*
X155212500Y-117400000D03*
D10*
G36*
X157027691Y-116926053D02*
G01*
X157048926Y-116929203D01*
X157069750Y-116934419D01*
X157089962Y-116941651D01*
X157109368Y-116950830D01*
X157127781Y-116961866D01*
X157145024Y-116974654D01*
X157160930Y-116989070D01*
X157175346Y-117004976D01*
X157188134Y-117022219D01*
X157199170Y-117040632D01*
X157208349Y-117060038D01*
X157215581Y-117080250D01*
X157220797Y-117101074D01*
X157223947Y-117122309D01*
X157225000Y-117143750D01*
X157225000Y-117656250D01*
X157223947Y-117677691D01*
X157220797Y-117698926D01*
X157215581Y-117719750D01*
X157208349Y-117739962D01*
X157199170Y-117759368D01*
X157188134Y-117777781D01*
X157175346Y-117795024D01*
X157160930Y-117810930D01*
X157145024Y-117825346D01*
X157127781Y-117838134D01*
X157109368Y-117849170D01*
X157089962Y-117858349D01*
X157069750Y-117865581D01*
X157048926Y-117870797D01*
X157027691Y-117873947D01*
X157006250Y-117875000D01*
X156568750Y-117875000D01*
X156547309Y-117873947D01*
X156526074Y-117870797D01*
X156505250Y-117865581D01*
X156485038Y-117858349D01*
X156465632Y-117849170D01*
X156447219Y-117838134D01*
X156429976Y-117825346D01*
X156414070Y-117810930D01*
X156399654Y-117795024D01*
X156386866Y-117777781D01*
X156375830Y-117759368D01*
X156366651Y-117739962D01*
X156359419Y-117719750D01*
X156354203Y-117698926D01*
X156351053Y-117677691D01*
X156350000Y-117656250D01*
X156350000Y-117143750D01*
X156351053Y-117122309D01*
X156354203Y-117101074D01*
X156359419Y-117080250D01*
X156366651Y-117060038D01*
X156375830Y-117040632D01*
X156386866Y-117022219D01*
X156399654Y-117004976D01*
X156414070Y-116989070D01*
X156429976Y-116974654D01*
X156447219Y-116961866D01*
X156465632Y-116950830D01*
X156485038Y-116941651D01*
X156505250Y-116934419D01*
X156526074Y-116929203D01*
X156547309Y-116926053D01*
X156568750Y-116925000D01*
X157006250Y-116925000D01*
X157027691Y-116926053D01*
X157027691Y-116926053D01*
G37*
D11*
X156787500Y-117400000D03*
D10*
G36*
X153149504Y-127276204D02*
G01*
X153173773Y-127279804D01*
X153197571Y-127285765D01*
X153220671Y-127294030D01*
X153242849Y-127304520D01*
X153263893Y-127317133D01*
X153283598Y-127331747D01*
X153301777Y-127348223D01*
X153318253Y-127366402D01*
X153332867Y-127386107D01*
X153345480Y-127407151D01*
X153355970Y-127429329D01*
X153364235Y-127452429D01*
X153370196Y-127476227D01*
X153373796Y-127500496D01*
X153375000Y-127525000D01*
X153375000Y-128275000D01*
X153373796Y-128299504D01*
X153370196Y-128323773D01*
X153364235Y-128347571D01*
X153355970Y-128370671D01*
X153345480Y-128392849D01*
X153332867Y-128413893D01*
X153318253Y-128433598D01*
X153301777Y-128451777D01*
X153283598Y-128468253D01*
X153263893Y-128482867D01*
X153242849Y-128495480D01*
X153220671Y-128505970D01*
X153197571Y-128514235D01*
X153173773Y-128520196D01*
X153149504Y-128523796D01*
X153125000Y-128525000D01*
X151875000Y-128525000D01*
X151850496Y-128523796D01*
X151826227Y-128520196D01*
X151802429Y-128514235D01*
X151779329Y-128505970D01*
X151757151Y-128495480D01*
X151736107Y-128482867D01*
X151716402Y-128468253D01*
X151698223Y-128451777D01*
X151681747Y-128433598D01*
X151667133Y-128413893D01*
X151654520Y-128392849D01*
X151644030Y-128370671D01*
X151635765Y-128347571D01*
X151629804Y-128323773D01*
X151626204Y-128299504D01*
X151625000Y-128275000D01*
X151625000Y-127525000D01*
X151626204Y-127500496D01*
X151629804Y-127476227D01*
X151635765Y-127452429D01*
X151644030Y-127429329D01*
X151654520Y-127407151D01*
X151667133Y-127386107D01*
X151681747Y-127366402D01*
X151698223Y-127348223D01*
X151716402Y-127331747D01*
X151736107Y-127317133D01*
X151757151Y-127304520D01*
X151779329Y-127294030D01*
X151802429Y-127285765D01*
X151826227Y-127279804D01*
X151850496Y-127276204D01*
X151875000Y-127275000D01*
X153125000Y-127275000D01*
X153149504Y-127276204D01*
X153149504Y-127276204D01*
G37*
D12*
X152500000Y-127900000D03*
D10*
G36*
X153149504Y-124476204D02*
G01*
X153173773Y-124479804D01*
X153197571Y-124485765D01*
X153220671Y-124494030D01*
X153242849Y-124504520D01*
X153263893Y-124517133D01*
X153283598Y-124531747D01*
X153301777Y-124548223D01*
X153318253Y-124566402D01*
X153332867Y-124586107D01*
X153345480Y-124607151D01*
X153355970Y-124629329D01*
X153364235Y-124652429D01*
X153370196Y-124676227D01*
X153373796Y-124700496D01*
X153375000Y-124725000D01*
X153375000Y-125475000D01*
X153373796Y-125499504D01*
X153370196Y-125523773D01*
X153364235Y-125547571D01*
X153355970Y-125570671D01*
X153345480Y-125592849D01*
X153332867Y-125613893D01*
X153318253Y-125633598D01*
X153301777Y-125651777D01*
X153283598Y-125668253D01*
X153263893Y-125682867D01*
X153242849Y-125695480D01*
X153220671Y-125705970D01*
X153197571Y-125714235D01*
X153173773Y-125720196D01*
X153149504Y-125723796D01*
X153125000Y-125725000D01*
X151875000Y-125725000D01*
X151850496Y-125723796D01*
X151826227Y-125720196D01*
X151802429Y-125714235D01*
X151779329Y-125705970D01*
X151757151Y-125695480D01*
X151736107Y-125682867D01*
X151716402Y-125668253D01*
X151698223Y-125651777D01*
X151681747Y-125633598D01*
X151667133Y-125613893D01*
X151654520Y-125592849D01*
X151644030Y-125570671D01*
X151635765Y-125547571D01*
X151629804Y-125523773D01*
X151626204Y-125499504D01*
X151625000Y-125475000D01*
X151625000Y-124725000D01*
X151626204Y-124700496D01*
X151629804Y-124676227D01*
X151635765Y-124652429D01*
X151644030Y-124629329D01*
X151654520Y-124607151D01*
X151667133Y-124586107D01*
X151681747Y-124566402D01*
X151698223Y-124548223D01*
X151716402Y-124531747D01*
X151736107Y-124517133D01*
X151757151Y-124504520D01*
X151779329Y-124494030D01*
X151802429Y-124485765D01*
X151826227Y-124479804D01*
X151850496Y-124476204D01*
X151875000Y-124475000D01*
X153125000Y-124475000D01*
X153149504Y-124476204D01*
X153149504Y-124476204D01*
G37*
D12*
X152500000Y-125100000D03*
D10*
G36*
X155849504Y-124476204D02*
G01*
X155873773Y-124479804D01*
X155897571Y-124485765D01*
X155920671Y-124494030D01*
X155942849Y-124504520D01*
X155963893Y-124517133D01*
X155983598Y-124531747D01*
X156001777Y-124548223D01*
X156018253Y-124566402D01*
X156032867Y-124586107D01*
X156045480Y-124607151D01*
X156055970Y-124629329D01*
X156064235Y-124652429D01*
X156070196Y-124676227D01*
X156073796Y-124700496D01*
X156075000Y-124725000D01*
X156075000Y-125475000D01*
X156073796Y-125499504D01*
X156070196Y-125523773D01*
X156064235Y-125547571D01*
X156055970Y-125570671D01*
X156045480Y-125592849D01*
X156032867Y-125613893D01*
X156018253Y-125633598D01*
X156001777Y-125651777D01*
X155983598Y-125668253D01*
X155963893Y-125682867D01*
X155942849Y-125695480D01*
X155920671Y-125705970D01*
X155897571Y-125714235D01*
X155873773Y-125720196D01*
X155849504Y-125723796D01*
X155825000Y-125725000D01*
X154575000Y-125725000D01*
X154550496Y-125723796D01*
X154526227Y-125720196D01*
X154502429Y-125714235D01*
X154479329Y-125705970D01*
X154457151Y-125695480D01*
X154436107Y-125682867D01*
X154416402Y-125668253D01*
X154398223Y-125651777D01*
X154381747Y-125633598D01*
X154367133Y-125613893D01*
X154354520Y-125592849D01*
X154344030Y-125570671D01*
X154335765Y-125547571D01*
X154329804Y-125523773D01*
X154326204Y-125499504D01*
X154325000Y-125475000D01*
X154325000Y-124725000D01*
X154326204Y-124700496D01*
X154329804Y-124676227D01*
X154335765Y-124652429D01*
X154344030Y-124629329D01*
X154354520Y-124607151D01*
X154367133Y-124586107D01*
X154381747Y-124566402D01*
X154398223Y-124548223D01*
X154416402Y-124531747D01*
X154436107Y-124517133D01*
X154457151Y-124504520D01*
X154479329Y-124494030D01*
X154502429Y-124485765D01*
X154526227Y-124479804D01*
X154550496Y-124476204D01*
X154575000Y-124475000D01*
X155825000Y-124475000D01*
X155849504Y-124476204D01*
X155849504Y-124476204D01*
G37*
D12*
X155200000Y-125100000D03*
D10*
G36*
X155849504Y-127276204D02*
G01*
X155873773Y-127279804D01*
X155897571Y-127285765D01*
X155920671Y-127294030D01*
X155942849Y-127304520D01*
X155963893Y-127317133D01*
X155983598Y-127331747D01*
X156001777Y-127348223D01*
X156018253Y-127366402D01*
X156032867Y-127386107D01*
X156045480Y-127407151D01*
X156055970Y-127429329D01*
X156064235Y-127452429D01*
X156070196Y-127476227D01*
X156073796Y-127500496D01*
X156075000Y-127525000D01*
X156075000Y-128275000D01*
X156073796Y-128299504D01*
X156070196Y-128323773D01*
X156064235Y-128347571D01*
X156055970Y-128370671D01*
X156045480Y-128392849D01*
X156032867Y-128413893D01*
X156018253Y-128433598D01*
X156001777Y-128451777D01*
X155983598Y-128468253D01*
X155963893Y-128482867D01*
X155942849Y-128495480D01*
X155920671Y-128505970D01*
X155897571Y-128514235D01*
X155873773Y-128520196D01*
X155849504Y-128523796D01*
X155825000Y-128525000D01*
X154575000Y-128525000D01*
X154550496Y-128523796D01*
X154526227Y-128520196D01*
X154502429Y-128514235D01*
X154479329Y-128505970D01*
X154457151Y-128495480D01*
X154436107Y-128482867D01*
X154416402Y-128468253D01*
X154398223Y-128451777D01*
X154381747Y-128433598D01*
X154367133Y-128413893D01*
X154354520Y-128392849D01*
X154344030Y-128370671D01*
X154335765Y-128347571D01*
X154329804Y-128323773D01*
X154326204Y-128299504D01*
X154325000Y-128275000D01*
X154325000Y-127525000D01*
X154326204Y-127500496D01*
X154329804Y-127476227D01*
X154335765Y-127452429D01*
X154344030Y-127429329D01*
X154354520Y-127407151D01*
X154367133Y-127386107D01*
X154381747Y-127366402D01*
X154398223Y-127348223D01*
X154416402Y-127331747D01*
X154436107Y-127317133D01*
X154457151Y-127304520D01*
X154479329Y-127294030D01*
X154502429Y-127285765D01*
X154526227Y-127279804D01*
X154550496Y-127276204D01*
X154575000Y-127275000D01*
X155825000Y-127275000D01*
X155849504Y-127276204D01*
X155849504Y-127276204D01*
G37*
D12*
X155200000Y-127900000D03*
D10*
G36*
X159340691Y-115326053D02*
G01*
X159361926Y-115329203D01*
X159382750Y-115334419D01*
X159402962Y-115341651D01*
X159422368Y-115350830D01*
X159440781Y-115361866D01*
X159458024Y-115374654D01*
X159473930Y-115389070D01*
X159488346Y-115404976D01*
X159501134Y-115422219D01*
X159512170Y-115440632D01*
X159521349Y-115460038D01*
X159528581Y-115480250D01*
X159533797Y-115501074D01*
X159536947Y-115522309D01*
X159538000Y-115543750D01*
X159538000Y-116056250D01*
X159536947Y-116077691D01*
X159533797Y-116098926D01*
X159528581Y-116119750D01*
X159521349Y-116139962D01*
X159512170Y-116159368D01*
X159501134Y-116177781D01*
X159488346Y-116195024D01*
X159473930Y-116210930D01*
X159458024Y-116225346D01*
X159440781Y-116238134D01*
X159422368Y-116249170D01*
X159402962Y-116258349D01*
X159382750Y-116265581D01*
X159361926Y-116270797D01*
X159340691Y-116273947D01*
X159319250Y-116275000D01*
X158881750Y-116275000D01*
X158860309Y-116273947D01*
X158839074Y-116270797D01*
X158818250Y-116265581D01*
X158798038Y-116258349D01*
X158778632Y-116249170D01*
X158760219Y-116238134D01*
X158742976Y-116225346D01*
X158727070Y-116210930D01*
X158712654Y-116195024D01*
X158699866Y-116177781D01*
X158688830Y-116159368D01*
X158679651Y-116139962D01*
X158672419Y-116119750D01*
X158667203Y-116098926D01*
X158664053Y-116077691D01*
X158663000Y-116056250D01*
X158663000Y-115543750D01*
X158664053Y-115522309D01*
X158667203Y-115501074D01*
X158672419Y-115480250D01*
X158679651Y-115460038D01*
X158688830Y-115440632D01*
X158699866Y-115422219D01*
X158712654Y-115404976D01*
X158727070Y-115389070D01*
X158742976Y-115374654D01*
X158760219Y-115361866D01*
X158778632Y-115350830D01*
X158798038Y-115341651D01*
X158818250Y-115334419D01*
X158839074Y-115329203D01*
X158860309Y-115326053D01*
X158881750Y-115325000D01*
X159319250Y-115325000D01*
X159340691Y-115326053D01*
X159340691Y-115326053D01*
G37*
D11*
X159100500Y-115800000D03*
D10*
G36*
X160915691Y-115326053D02*
G01*
X160936926Y-115329203D01*
X160957750Y-115334419D01*
X160977962Y-115341651D01*
X160997368Y-115350830D01*
X161015781Y-115361866D01*
X161033024Y-115374654D01*
X161048930Y-115389070D01*
X161063346Y-115404976D01*
X161076134Y-115422219D01*
X161087170Y-115440632D01*
X161096349Y-115460038D01*
X161103581Y-115480250D01*
X161108797Y-115501074D01*
X161111947Y-115522309D01*
X161113000Y-115543750D01*
X161113000Y-116056250D01*
X161111947Y-116077691D01*
X161108797Y-116098926D01*
X161103581Y-116119750D01*
X161096349Y-116139962D01*
X161087170Y-116159368D01*
X161076134Y-116177781D01*
X161063346Y-116195024D01*
X161048930Y-116210930D01*
X161033024Y-116225346D01*
X161015781Y-116238134D01*
X160997368Y-116249170D01*
X160977962Y-116258349D01*
X160957750Y-116265581D01*
X160936926Y-116270797D01*
X160915691Y-116273947D01*
X160894250Y-116275000D01*
X160456750Y-116275000D01*
X160435309Y-116273947D01*
X160414074Y-116270797D01*
X160393250Y-116265581D01*
X160373038Y-116258349D01*
X160353632Y-116249170D01*
X160335219Y-116238134D01*
X160317976Y-116225346D01*
X160302070Y-116210930D01*
X160287654Y-116195024D01*
X160274866Y-116177781D01*
X160263830Y-116159368D01*
X160254651Y-116139962D01*
X160247419Y-116119750D01*
X160242203Y-116098926D01*
X160239053Y-116077691D01*
X160238000Y-116056250D01*
X160238000Y-115543750D01*
X160239053Y-115522309D01*
X160242203Y-115501074D01*
X160247419Y-115480250D01*
X160254651Y-115460038D01*
X160263830Y-115440632D01*
X160274866Y-115422219D01*
X160287654Y-115404976D01*
X160302070Y-115389070D01*
X160317976Y-115374654D01*
X160335219Y-115361866D01*
X160353632Y-115350830D01*
X160373038Y-115341651D01*
X160393250Y-115334419D01*
X160414074Y-115329203D01*
X160435309Y-115326053D01*
X160456750Y-115325000D01*
X160894250Y-115325000D01*
X160915691Y-115326053D01*
X160915691Y-115326053D01*
G37*
D11*
X160675500Y-115800000D03*
D10*
G36*
X159340691Y-113726053D02*
G01*
X159361926Y-113729203D01*
X159382750Y-113734419D01*
X159402962Y-113741651D01*
X159422368Y-113750830D01*
X159440781Y-113761866D01*
X159458024Y-113774654D01*
X159473930Y-113789070D01*
X159488346Y-113804976D01*
X159501134Y-113822219D01*
X159512170Y-113840632D01*
X159521349Y-113860038D01*
X159528581Y-113880250D01*
X159533797Y-113901074D01*
X159536947Y-113922309D01*
X159538000Y-113943750D01*
X159538000Y-114456250D01*
X159536947Y-114477691D01*
X159533797Y-114498926D01*
X159528581Y-114519750D01*
X159521349Y-114539962D01*
X159512170Y-114559368D01*
X159501134Y-114577781D01*
X159488346Y-114595024D01*
X159473930Y-114610930D01*
X159458024Y-114625346D01*
X159440781Y-114638134D01*
X159422368Y-114649170D01*
X159402962Y-114658349D01*
X159382750Y-114665581D01*
X159361926Y-114670797D01*
X159340691Y-114673947D01*
X159319250Y-114675000D01*
X158881750Y-114675000D01*
X158860309Y-114673947D01*
X158839074Y-114670797D01*
X158818250Y-114665581D01*
X158798038Y-114658349D01*
X158778632Y-114649170D01*
X158760219Y-114638134D01*
X158742976Y-114625346D01*
X158727070Y-114610930D01*
X158712654Y-114595024D01*
X158699866Y-114577781D01*
X158688830Y-114559368D01*
X158679651Y-114539962D01*
X158672419Y-114519750D01*
X158667203Y-114498926D01*
X158664053Y-114477691D01*
X158663000Y-114456250D01*
X158663000Y-113943750D01*
X158664053Y-113922309D01*
X158667203Y-113901074D01*
X158672419Y-113880250D01*
X158679651Y-113860038D01*
X158688830Y-113840632D01*
X158699866Y-113822219D01*
X158712654Y-113804976D01*
X158727070Y-113789070D01*
X158742976Y-113774654D01*
X158760219Y-113761866D01*
X158778632Y-113750830D01*
X158798038Y-113741651D01*
X158818250Y-113734419D01*
X158839074Y-113729203D01*
X158860309Y-113726053D01*
X158881750Y-113725000D01*
X159319250Y-113725000D01*
X159340691Y-113726053D01*
X159340691Y-113726053D01*
G37*
D11*
X159100500Y-114200000D03*
D10*
G36*
X160915691Y-113726053D02*
G01*
X160936926Y-113729203D01*
X160957750Y-113734419D01*
X160977962Y-113741651D01*
X160997368Y-113750830D01*
X161015781Y-113761866D01*
X161033024Y-113774654D01*
X161048930Y-113789070D01*
X161063346Y-113804976D01*
X161076134Y-113822219D01*
X161087170Y-113840632D01*
X161096349Y-113860038D01*
X161103581Y-113880250D01*
X161108797Y-113901074D01*
X161111947Y-113922309D01*
X161113000Y-113943750D01*
X161113000Y-114456250D01*
X161111947Y-114477691D01*
X161108797Y-114498926D01*
X161103581Y-114519750D01*
X161096349Y-114539962D01*
X161087170Y-114559368D01*
X161076134Y-114577781D01*
X161063346Y-114595024D01*
X161048930Y-114610930D01*
X161033024Y-114625346D01*
X161015781Y-114638134D01*
X160997368Y-114649170D01*
X160977962Y-114658349D01*
X160957750Y-114665581D01*
X160936926Y-114670797D01*
X160915691Y-114673947D01*
X160894250Y-114675000D01*
X160456750Y-114675000D01*
X160435309Y-114673947D01*
X160414074Y-114670797D01*
X160393250Y-114665581D01*
X160373038Y-114658349D01*
X160353632Y-114649170D01*
X160335219Y-114638134D01*
X160317976Y-114625346D01*
X160302070Y-114610930D01*
X160287654Y-114595024D01*
X160274866Y-114577781D01*
X160263830Y-114559368D01*
X160254651Y-114539962D01*
X160247419Y-114519750D01*
X160242203Y-114498926D01*
X160239053Y-114477691D01*
X160238000Y-114456250D01*
X160238000Y-113943750D01*
X160239053Y-113922309D01*
X160242203Y-113901074D01*
X160247419Y-113880250D01*
X160254651Y-113860038D01*
X160263830Y-113840632D01*
X160274866Y-113822219D01*
X160287654Y-113804976D01*
X160302070Y-113789070D01*
X160317976Y-113774654D01*
X160335219Y-113761866D01*
X160353632Y-113750830D01*
X160373038Y-113741651D01*
X160393250Y-113734419D01*
X160414074Y-113729203D01*
X160435309Y-113726053D01*
X160456750Y-113725000D01*
X160894250Y-113725000D01*
X160915691Y-113726053D01*
X160915691Y-113726053D01*
G37*
D11*
X160675500Y-114200000D03*
D10*
G36*
X159340691Y-112126053D02*
G01*
X159361926Y-112129203D01*
X159382750Y-112134419D01*
X159402962Y-112141651D01*
X159422368Y-112150830D01*
X159440781Y-112161866D01*
X159458024Y-112174654D01*
X159473930Y-112189070D01*
X159488346Y-112204976D01*
X159501134Y-112222219D01*
X159512170Y-112240632D01*
X159521349Y-112260038D01*
X159528581Y-112280250D01*
X159533797Y-112301074D01*
X159536947Y-112322309D01*
X159538000Y-112343750D01*
X159538000Y-112856250D01*
X159536947Y-112877691D01*
X159533797Y-112898926D01*
X159528581Y-112919750D01*
X159521349Y-112939962D01*
X159512170Y-112959368D01*
X159501134Y-112977781D01*
X159488346Y-112995024D01*
X159473930Y-113010930D01*
X159458024Y-113025346D01*
X159440781Y-113038134D01*
X159422368Y-113049170D01*
X159402962Y-113058349D01*
X159382750Y-113065581D01*
X159361926Y-113070797D01*
X159340691Y-113073947D01*
X159319250Y-113075000D01*
X158881750Y-113075000D01*
X158860309Y-113073947D01*
X158839074Y-113070797D01*
X158818250Y-113065581D01*
X158798038Y-113058349D01*
X158778632Y-113049170D01*
X158760219Y-113038134D01*
X158742976Y-113025346D01*
X158727070Y-113010930D01*
X158712654Y-112995024D01*
X158699866Y-112977781D01*
X158688830Y-112959368D01*
X158679651Y-112939962D01*
X158672419Y-112919750D01*
X158667203Y-112898926D01*
X158664053Y-112877691D01*
X158663000Y-112856250D01*
X158663000Y-112343750D01*
X158664053Y-112322309D01*
X158667203Y-112301074D01*
X158672419Y-112280250D01*
X158679651Y-112260038D01*
X158688830Y-112240632D01*
X158699866Y-112222219D01*
X158712654Y-112204976D01*
X158727070Y-112189070D01*
X158742976Y-112174654D01*
X158760219Y-112161866D01*
X158778632Y-112150830D01*
X158798038Y-112141651D01*
X158818250Y-112134419D01*
X158839074Y-112129203D01*
X158860309Y-112126053D01*
X158881750Y-112125000D01*
X159319250Y-112125000D01*
X159340691Y-112126053D01*
X159340691Y-112126053D01*
G37*
D11*
X159100500Y-112600000D03*
D10*
G36*
X160915691Y-112126053D02*
G01*
X160936926Y-112129203D01*
X160957750Y-112134419D01*
X160977962Y-112141651D01*
X160997368Y-112150830D01*
X161015781Y-112161866D01*
X161033024Y-112174654D01*
X161048930Y-112189070D01*
X161063346Y-112204976D01*
X161076134Y-112222219D01*
X161087170Y-112240632D01*
X161096349Y-112260038D01*
X161103581Y-112280250D01*
X161108797Y-112301074D01*
X161111947Y-112322309D01*
X161113000Y-112343750D01*
X161113000Y-112856250D01*
X161111947Y-112877691D01*
X161108797Y-112898926D01*
X161103581Y-112919750D01*
X161096349Y-112939962D01*
X161087170Y-112959368D01*
X161076134Y-112977781D01*
X161063346Y-112995024D01*
X161048930Y-113010930D01*
X161033024Y-113025346D01*
X161015781Y-113038134D01*
X160997368Y-113049170D01*
X160977962Y-113058349D01*
X160957750Y-113065581D01*
X160936926Y-113070797D01*
X160915691Y-113073947D01*
X160894250Y-113075000D01*
X160456750Y-113075000D01*
X160435309Y-113073947D01*
X160414074Y-113070797D01*
X160393250Y-113065581D01*
X160373038Y-113058349D01*
X160353632Y-113049170D01*
X160335219Y-113038134D01*
X160317976Y-113025346D01*
X160302070Y-113010930D01*
X160287654Y-112995024D01*
X160274866Y-112977781D01*
X160263830Y-112959368D01*
X160254651Y-112939962D01*
X160247419Y-112919750D01*
X160242203Y-112898926D01*
X160239053Y-112877691D01*
X160238000Y-112856250D01*
X160238000Y-112343750D01*
X160239053Y-112322309D01*
X160242203Y-112301074D01*
X160247419Y-112280250D01*
X160254651Y-112260038D01*
X160263830Y-112240632D01*
X160274866Y-112222219D01*
X160287654Y-112204976D01*
X160302070Y-112189070D01*
X160317976Y-112174654D01*
X160335219Y-112161866D01*
X160353632Y-112150830D01*
X160373038Y-112141651D01*
X160393250Y-112134419D01*
X160414074Y-112129203D01*
X160435309Y-112126053D01*
X160456750Y-112125000D01*
X160894250Y-112125000D01*
X160915691Y-112126053D01*
X160915691Y-112126053D01*
G37*
D11*
X160675500Y-112600000D03*
D13*
X149700000Y-131425000D03*
D10*
G36*
X148950000Y-131925000D02*
G01*
X148950000Y-130775000D01*
X149700000Y-131275000D01*
X150450000Y-130775000D01*
X150450000Y-131925000D01*
X148950000Y-131925000D01*
X148950000Y-131925000D01*
G37*
D13*
X149700000Y-129975000D03*
D10*
G36*
X149700000Y-130975000D02*
G01*
X148950000Y-130475000D01*
X148950000Y-129475000D01*
X150450000Y-129475000D01*
X150450000Y-130475000D01*
X149700000Y-130975000D01*
X149700000Y-130975000D01*
G37*
D13*
X152500000Y-130000000D03*
D10*
G36*
X152500000Y-131000000D02*
G01*
X151750000Y-130500000D01*
X151750000Y-129500000D01*
X153250000Y-129500000D01*
X153250000Y-130500000D01*
X152500000Y-131000000D01*
X152500000Y-131000000D01*
G37*
D13*
X152500000Y-131450000D03*
D10*
G36*
X151750000Y-131950000D02*
G01*
X151750000Y-130800000D01*
X152500000Y-131300000D01*
X153250000Y-130800000D01*
X153250000Y-131950000D01*
X151750000Y-131950000D01*
X151750000Y-131950000D01*
G37*
D13*
X155200000Y-131425000D03*
D10*
G36*
X154450000Y-131925000D02*
G01*
X154450000Y-130775000D01*
X155200000Y-131275000D01*
X155950000Y-130775000D01*
X155950000Y-131925000D01*
X154450000Y-131925000D01*
X154450000Y-131925000D01*
G37*
D13*
X155200000Y-129975000D03*
D10*
G36*
X155200000Y-130975000D02*
G01*
X154450000Y-130475000D01*
X154450000Y-129475000D01*
X155950000Y-129475000D01*
X155950000Y-130475000D01*
X155200000Y-130975000D01*
X155200000Y-130975000D01*
G37*
D20*
X159742400Y-118690400D03*
X151900000Y-111500000D03*
X153800000Y-123400000D03*
X156500000Y-119200000D03*
X158400000Y-133500000D03*
X150200000Y-118900000D03*
X146700000Y-110400000D03*
X164734982Y-111005570D03*
X157609000Y-112404900D03*
X153837500Y-113321000D03*
X158352100Y-119471900D03*
X161400000Y-119100000D03*
D21*
X153245800Y-120775000D02*
X151575300Y-120775000D01*
X153245800Y-120775000D02*
X153245800Y-121296100D01*
X153245800Y-121296100D02*
X154024700Y-122075000D01*
X154950000Y-120125000D02*
X153895800Y-120125000D01*
X153895800Y-120125000D02*
X153245800Y-120775000D01*
X150650000Y-120775000D02*
X151575300Y-120775000D01*
X159742400Y-118690400D02*
X157309900Y-118690400D01*
X157309900Y-118690400D02*
X155875300Y-120125000D01*
X154950000Y-120125000D02*
X155875300Y-120125000D01*
X160675500Y-117400000D02*
X159742400Y-118333100D01*
X159742400Y-118333100D02*
X159742400Y-118690400D01*
X154950000Y-122075000D02*
X154024700Y-122075000D01*
X160675500Y-115800000D02*
X160675500Y-117400000D01*
X153275300Y-115075000D02*
X155200500Y-113149800D01*
X155200500Y-113149800D02*
X155200500Y-111000000D01*
X148600000Y-120300500D02*
X149074500Y-120775000D01*
X149074500Y-120775000D02*
X150650000Y-120775000D01*
X164950000Y-127998800D02*
X164950000Y-125915300D01*
X164950000Y-125915300D02*
X165000000Y-125865300D01*
X165000000Y-124640000D02*
X165000000Y-125865300D01*
X148512500Y-116097300D02*
X148512500Y-117400000D01*
X148512500Y-116097300D02*
X148512500Y-115200000D01*
X152350000Y-115075000D02*
X153275300Y-115075000D01*
X148512500Y-115200000D02*
X148500500Y-115188000D01*
X148500500Y-115188000D02*
X148500500Y-113500000D01*
X151800000Y-122075000D02*
X150650000Y-122075000D01*
X151800000Y-120900000D02*
X151800000Y-122075000D01*
X151575300Y-120775000D02*
X151675000Y-120775000D01*
X151675000Y-120775000D02*
X151800000Y-120900000D01*
X159000000Y-126000000D02*
X159000000Y-127000000D01*
X157200000Y-126000000D02*
X159000000Y-126000000D01*
X156658900Y-125458900D02*
X157200000Y-126000000D01*
X156658900Y-124420300D02*
X156658900Y-125458900D01*
X154950000Y-122075000D02*
X154950000Y-122711400D01*
X154950000Y-122711400D02*
X156658900Y-124420300D01*
X163324500Y-128275500D02*
X163324500Y-129300000D01*
X164950000Y-127998800D02*
X163601200Y-127998800D01*
X163601200Y-127998800D02*
X163324500Y-128275500D01*
X158212500Y-132800000D02*
X158212500Y-131200000D01*
X164900000Y-132800000D02*
X158212500Y-132800000D01*
X165900000Y-131800000D02*
X164900000Y-132800000D01*
X165900000Y-128600000D02*
X165900000Y-131800000D01*
X164950000Y-127998800D02*
X165298800Y-127998800D01*
X165298800Y-127998800D02*
X165900000Y-128600000D01*
X155200500Y-111000000D02*
X152400000Y-111000000D01*
X152400000Y-111000000D02*
X151900000Y-111500000D01*
X154950000Y-122525000D02*
X154900000Y-122575000D01*
X154950000Y-122075000D02*
X154950000Y-122525000D01*
X154900000Y-122575000D02*
X154900000Y-123100000D01*
X154900000Y-123100000D02*
X154600000Y-123400000D01*
X154600000Y-123400000D02*
X153800000Y-123400000D01*
X154950000Y-120125000D02*
X154950000Y-118950000D01*
X154950000Y-118950000D02*
X155000000Y-119000000D01*
X155000000Y-119000000D02*
X154800000Y-119200000D01*
X154800000Y-119200000D02*
X156500000Y-119200000D01*
X158212500Y-131200000D02*
X158212500Y-133312500D01*
X158212500Y-133312500D02*
X158400000Y-133500000D01*
X152350000Y-115950000D02*
X152350000Y-115075000D01*
X148512500Y-116097300D02*
X152202700Y-116097300D01*
X152202700Y-116097300D02*
X152350000Y-115950000D01*
X148512500Y-120213000D02*
X148600000Y-120300500D01*
X148512500Y-117400000D02*
X148512500Y-118812500D01*
X148512500Y-118812500D02*
X148512500Y-120213000D01*
X148512500Y-118812500D02*
X148512500Y-119412502D01*
X149724999Y-119375001D02*
X150200000Y-118900000D01*
X150075500Y-113500000D02*
X150862500Y-114287000D01*
X150862500Y-114287000D02*
X150862500Y-114425000D01*
X150087500Y-111800000D02*
X150075500Y-111812000D01*
X150075500Y-111812000D02*
X150075500Y-113500000D01*
X150862500Y-114425000D02*
X152350000Y-114425000D01*
X150087500Y-115200000D02*
X150862500Y-114425000D01*
X157609000Y-112404900D02*
X157609000Y-111833500D01*
X157609000Y-111833500D02*
X156775500Y-111000000D01*
X157575300Y-113125000D02*
X157575300Y-112438600D01*
X157575300Y-112438600D02*
X157609000Y-112404900D01*
X156650000Y-113125000D02*
X157575300Y-113125000D01*
X159950000Y-129652600D02*
X159950000Y-129200000D01*
X150650000Y-121425000D02*
X148855700Y-121425000D01*
X148855700Y-121425000D02*
X148617800Y-121662900D01*
X148600000Y-121875500D02*
X148617800Y-121857700D01*
X148617800Y-121857700D02*
X148617800Y-121662900D01*
X159950000Y-129652600D02*
X159950000Y-130105300D01*
X159950000Y-131100000D02*
X159887500Y-131100000D01*
X159887500Y-131100000D02*
X159787500Y-131200000D01*
X163312500Y-131100000D02*
X159950000Y-131100000D01*
X159950000Y-131100000D02*
X159950000Y-130105300D01*
X148100000Y-111800000D02*
X148512500Y-111800000D01*
X147400000Y-112500000D02*
X148100000Y-111800000D01*
X147400000Y-120872550D02*
X147400000Y-112500000D01*
X148617800Y-121662900D02*
X148190350Y-121662900D01*
X148190350Y-121662900D02*
X147400000Y-120872550D01*
X162566800Y-127158200D02*
X162566800Y-120893200D01*
X162566800Y-120893200D02*
X163900000Y-119560000D01*
X160525000Y-129200000D02*
X162566800Y-127158200D01*
X163900000Y-119560000D02*
X165000000Y-119560000D01*
X159950000Y-129200000D02*
X160525000Y-129200000D01*
X155675500Y-109900000D02*
X156775500Y-111000000D01*
X148512500Y-111800000D02*
X150412500Y-109900000D01*
X150412500Y-109900000D02*
X155675500Y-109900000D01*
X159950000Y-127000000D02*
X159950000Y-126094700D01*
X159775500Y-125000000D02*
X159775500Y-125920200D01*
X159775500Y-125920200D02*
X159950000Y-126094700D01*
X156200000Y-122999500D02*
X158200500Y-125000000D01*
X154950000Y-121425000D02*
X156200000Y-121425000D01*
X156200000Y-121425000D02*
X156200000Y-122999500D01*
X151575300Y-117400000D02*
X151900500Y-117400000D01*
X150087500Y-117400000D02*
X151575300Y-117400000D01*
X151575300Y-117400000D02*
X151575300Y-120125000D01*
X150650000Y-120125000D02*
X151575300Y-120125000D01*
X157575300Y-117400000D02*
X159100500Y-117400000D01*
X156787500Y-117400000D02*
X157575300Y-117400000D01*
X157575300Y-117400000D02*
X157575300Y-115075000D01*
X156650000Y-115075000D02*
X157575300Y-115075000D01*
X164887500Y-131100000D02*
X164899500Y-131088000D01*
X164899500Y-131088000D02*
X164899500Y-129300000D01*
X158050000Y-129700300D02*
X158050000Y-129200000D01*
X155200000Y-131425000D02*
X156325300Y-131425000D01*
X156325300Y-131425000D02*
X158050000Y-129700300D01*
D22*
X143877500Y-130127500D02*
X144580000Y-130127500D01*
X141000000Y-124500000D02*
X141000000Y-127250000D01*
X141000000Y-127250000D02*
X143877500Y-130127500D01*
X155200000Y-132650000D02*
X155200000Y-131625010D01*
X155170000Y-132680000D02*
X155200000Y-132650000D01*
X144580000Y-130127500D02*
X144580000Y-132680000D01*
X144580000Y-132680000D02*
X155170000Y-132680000D01*
X146970000Y-131770000D02*
X146970000Y-132690000D01*
X149740000Y-131730000D02*
X149740000Y-132650000D01*
X152500000Y-131760000D02*
X152500000Y-132680000D01*
D21*
X155200000Y-125100000D02*
X157100000Y-127000000D01*
X157100000Y-127000000D02*
X158050000Y-127000000D01*
D22*
X149700000Y-125100000D02*
X152500000Y-125100000D01*
X152500000Y-125100000D02*
X155200000Y-125100000D01*
D23*
X149690000Y-125090000D02*
X149700000Y-125100000D01*
D22*
X147030000Y-125100000D02*
X147020000Y-125090000D01*
X149700000Y-125100000D02*
X147030000Y-125100000D01*
X141430000Y-119500000D02*
X141000000Y-119500000D01*
X147020000Y-125090000D02*
X141430000Y-119500000D01*
X146250000Y-125090000D02*
X147020000Y-125090000D01*
X144580000Y-128552500D02*
X144580000Y-126760000D01*
X144580000Y-126760000D02*
X146250000Y-125090000D01*
D21*
X158352100Y-119471900D02*
X159075500Y-120195300D01*
X159075500Y-120195300D02*
X159075500Y-120800000D01*
X153275300Y-113321000D02*
X153275300Y-113775000D01*
X152812700Y-113125000D02*
X153079300Y-113125000D01*
X153079300Y-113125000D02*
X153275300Y-113321000D01*
X153837500Y-113321000D02*
X153275300Y-113321000D01*
X152350000Y-113775000D02*
X153275300Y-113775000D01*
X152350000Y-113125000D02*
X152812700Y-113125000D01*
X159200000Y-128100000D02*
X159000000Y-128300000D01*
X160900000Y-127800000D02*
X160600000Y-128100000D01*
X160900000Y-122624500D02*
X160900000Y-127800000D01*
X159000000Y-128300000D02*
X159000000Y-129200000D01*
X160600000Y-128100000D02*
X159200000Y-128100000D01*
X159075500Y-120800000D02*
X160900000Y-122624500D01*
X154950000Y-120775000D02*
X155875300Y-120775000D01*
X157500500Y-120800000D02*
X155900300Y-120800000D01*
X155900300Y-120800000D02*
X155875300Y-120775000D01*
X161965685Y-119100000D02*
X162800000Y-118265685D01*
X161400000Y-119100000D02*
X161965685Y-119100000D01*
X162800000Y-113124500D02*
X160675500Y-111000000D01*
X162800000Y-118265685D02*
X162800000Y-113124500D01*
D22*
X147020000Y-129960000D02*
X146990000Y-129990000D01*
X147020000Y-127890000D02*
X147020000Y-129960000D01*
D23*
X149680000Y-128350000D02*
X149680000Y-129770000D01*
D22*
X149700000Y-127900000D02*
X149700000Y-129975000D01*
D23*
X152480000Y-128360000D02*
X152480000Y-129780000D01*
D22*
X152500000Y-127900000D02*
X152500000Y-130000000D01*
D23*
X155220000Y-128360000D02*
X155220000Y-129780000D01*
D21*
X155212500Y-117400000D02*
X153475500Y-117400000D01*
X159100500Y-112600000D02*
X157925500Y-113775000D01*
X157925500Y-113775000D02*
X156650000Y-113775000D01*
X159100500Y-111000000D02*
X159100500Y-112600000D01*
X159100500Y-114425000D02*
X159100500Y-115800000D01*
X159100500Y-114200000D02*
X159100500Y-114425000D01*
X159100500Y-114425000D02*
X157575300Y-114425000D01*
X156650000Y-114425000D02*
X157575300Y-114425000D01*
X160675500Y-114200000D02*
X160675500Y-112600000D01*
D22*
X155200000Y-127900000D02*
X155200000Y-129975000D01*
D24*
G36*
X163698815Y-120861185D02*
G01*
X163795506Y-120940537D01*
X163905820Y-120999502D01*
X163974687Y-121020393D01*
X163944866Y-121044866D01*
X163759294Y-121270986D01*
X163621401Y-121528966D01*
X163536487Y-121808889D01*
X163507815Y-122100000D01*
X163536487Y-122391111D01*
X163621401Y-122671034D01*
X163759294Y-122929014D01*
X163944866Y-123155134D01*
X164170986Y-123340706D01*
X164235523Y-123375201D01*
X164118645Y-123444822D01*
X163902412Y-123639731D01*
X163728359Y-123873080D01*
X163603175Y-124135901D01*
X163558524Y-124283110D01*
X163679845Y-124513000D01*
X164873000Y-124513000D01*
X164873000Y-124493000D01*
X165127000Y-124493000D01*
X165127000Y-124513000D01*
X165147000Y-124513000D01*
X165147000Y-124767000D01*
X165127000Y-124767000D01*
X165127000Y-125960814D01*
X165356891Y-126081481D01*
X165631252Y-125984157D01*
X165881355Y-125835178D01*
X166097588Y-125640269D01*
X166271641Y-125406920D01*
X166340000Y-125263401D01*
X166340000Y-133967721D01*
X166330420Y-134065424D01*
X166311420Y-134128357D01*
X166280554Y-134186406D01*
X166239011Y-134237343D01*
X166188356Y-134279248D01*
X166130529Y-134310515D01*
X166067728Y-134329956D01*
X165972165Y-134340000D01*
X146127000Y-134340000D01*
X146127000Y-133715000D01*
X146817629Y-133715000D01*
X146970000Y-133730007D01*
X147122372Y-133715000D01*
X152449162Y-133715000D01*
X152500000Y-133720007D01*
X152550838Y-133715000D01*
X155119172Y-133715000D01*
X155170000Y-133720006D01*
X155220828Y-133715000D01*
X155220838Y-133715000D01*
X155372895Y-133700024D01*
X155567993Y-133640841D01*
X155747797Y-133544734D01*
X155905396Y-133415396D01*
X155918919Y-133398919D01*
X155935396Y-133385396D01*
X156064734Y-133227797D01*
X156160841Y-133047993D01*
X156220024Y-132852895D01*
X156235000Y-132700838D01*
X156235000Y-132700829D01*
X156240006Y-132650001D01*
X156235000Y-132599173D01*
X156235000Y-132492683D01*
X156304494Y-132455537D01*
X156401185Y-132376185D01*
X156480537Y-132279494D01*
X156539502Y-132169180D01*
X156544500Y-132152704D01*
X156617547Y-132130546D01*
X156749576Y-132059974D01*
X156865301Y-131965001D01*
X156889104Y-131935997D01*
X157138109Y-131686992D01*
X157149188Y-131799482D01*
X157185498Y-131919180D01*
X157244463Y-132029494D01*
X157323815Y-132126185D01*
X157420506Y-132205537D01*
X157530820Y-132264502D01*
X157650518Y-132300812D01*
X157775000Y-132313072D01*
X157926750Y-132310000D01*
X158085500Y-132151250D01*
X158085500Y-131327000D01*
X158065500Y-131327000D01*
X158065500Y-131073000D01*
X158085500Y-131073000D01*
X158085500Y-131053000D01*
X158339500Y-131053000D01*
X158339500Y-131073000D01*
X158359500Y-131073000D01*
X158359500Y-131327000D01*
X158339500Y-131327000D01*
X158339500Y-132151250D01*
X158498250Y-132310000D01*
X158650000Y-132313072D01*
X158774482Y-132300812D01*
X158894180Y-132264502D01*
X159004494Y-132205537D01*
X159071070Y-132150900D01*
X159092725Y-132168671D01*
X159240858Y-132247850D01*
X159401592Y-132296608D01*
X159568750Y-132313072D01*
X160006250Y-132313072D01*
X160173408Y-132296608D01*
X160334142Y-132247850D01*
X160482275Y-132168671D01*
X160612115Y-132062115D01*
X160718671Y-131932275D01*
X160757303Y-131860000D01*
X162404082Y-131860000D01*
X162487885Y-131962115D01*
X162617725Y-132068671D01*
X162765858Y-132147850D01*
X162926592Y-132196608D01*
X163093750Y-132213072D01*
X163531250Y-132213072D01*
X163698408Y-132196608D01*
X163859142Y-132147850D01*
X164007275Y-132068671D01*
X164100000Y-131992574D01*
X164192725Y-132068671D01*
X164340858Y-132147850D01*
X164501592Y-132196608D01*
X164668750Y-132213072D01*
X165106250Y-132213072D01*
X165273408Y-132196608D01*
X165434142Y-132147850D01*
X165582275Y-132068671D01*
X165712115Y-131962115D01*
X165818671Y-131832275D01*
X165897850Y-131684142D01*
X165946608Y-131523408D01*
X165963072Y-131356250D01*
X165963072Y-130843750D01*
X165946608Y-130676592D01*
X165897850Y-130515858D01*
X165818671Y-130367725D01*
X165712115Y-130237885D01*
X165671952Y-130204924D01*
X165724115Y-130162115D01*
X165830671Y-130032275D01*
X165909850Y-129884142D01*
X165958608Y-129723408D01*
X165975072Y-129556250D01*
X165975072Y-129043750D01*
X165958608Y-128876592D01*
X165909850Y-128715858D01*
X165830671Y-128567725D01*
X165724115Y-128437885D01*
X165594275Y-128331329D01*
X165446142Y-128252150D01*
X165285408Y-128203392D01*
X165118250Y-128186928D01*
X164680750Y-128186928D01*
X164513592Y-128203392D01*
X164352858Y-128252150D01*
X164204725Y-128331329D01*
X164183070Y-128349100D01*
X164116494Y-128294463D01*
X164006180Y-128235498D01*
X163886482Y-128199188D01*
X163762000Y-128186928D01*
X163610250Y-128190000D01*
X163451500Y-128348750D01*
X163451500Y-129173000D01*
X163471500Y-129173000D01*
X163471500Y-129427000D01*
X163451500Y-129427000D01*
X163451500Y-129447000D01*
X163197500Y-129447000D01*
X163197500Y-129427000D01*
X162410750Y-129427000D01*
X162252000Y-129585750D01*
X162248928Y-129775000D01*
X162261188Y-129899482D01*
X162297498Y-130019180D01*
X162356463Y-130129494D01*
X162435815Y-130226185D01*
X162472667Y-130256428D01*
X162404082Y-130340000D01*
X160710000Y-130340000D01*
X160710000Y-130194468D01*
X160726185Y-130181185D01*
X160805537Y-130084494D01*
X160864502Y-129974180D01*
X160898496Y-129862117D01*
X160949276Y-129834974D01*
X161065001Y-129740001D01*
X161088804Y-129710997D01*
X161974801Y-128825000D01*
X162248928Y-128825000D01*
X162252000Y-129014250D01*
X162410750Y-129173000D01*
X163197500Y-129173000D01*
X163197500Y-128348750D01*
X163038750Y-128190000D01*
X162887000Y-128186928D01*
X162762518Y-128199188D01*
X162642820Y-128235498D01*
X162532506Y-128294463D01*
X162435815Y-128373815D01*
X162356463Y-128470506D01*
X162297498Y-128580820D01*
X162261188Y-128700518D01*
X162248928Y-128825000D01*
X161974801Y-128825000D01*
X163077804Y-127721998D01*
X163106801Y-127698201D01*
X163201774Y-127582476D01*
X163272346Y-127450447D01*
X163315803Y-127307186D01*
X163326800Y-127195533D01*
X163326800Y-127195524D01*
X163330476Y-127158201D01*
X163326800Y-127120878D01*
X163326800Y-124996890D01*
X163558524Y-124996890D01*
X163603175Y-125144099D01*
X163728359Y-125406920D01*
X163902412Y-125640269D01*
X164118645Y-125835178D01*
X164368748Y-125984157D01*
X164643109Y-126081481D01*
X164873000Y-125960814D01*
X164873000Y-124767000D01*
X163679845Y-124767000D01*
X163558524Y-124996890D01*
X163326800Y-124996890D01*
X163326800Y-121208001D01*
X163687457Y-120847345D01*
X163698815Y-120861185D01*
X163698815Y-120861185D01*
G37*
X163698815Y-120861185D02*
X163795506Y-120940537D01*
X163905820Y-120999502D01*
X163974687Y-121020393D01*
X163944866Y-121044866D01*
X163759294Y-121270986D01*
X163621401Y-121528966D01*
X163536487Y-121808889D01*
X163507815Y-122100000D01*
X163536487Y-122391111D01*
X163621401Y-122671034D01*
X163759294Y-122929014D01*
X163944866Y-123155134D01*
X164170986Y-123340706D01*
X164235523Y-123375201D01*
X164118645Y-123444822D01*
X163902412Y-123639731D01*
X163728359Y-123873080D01*
X163603175Y-124135901D01*
X163558524Y-124283110D01*
X163679845Y-124513000D01*
X164873000Y-124513000D01*
X164873000Y-124493000D01*
X165127000Y-124493000D01*
X165127000Y-124513000D01*
X165147000Y-124513000D01*
X165147000Y-124767000D01*
X165127000Y-124767000D01*
X165127000Y-125960814D01*
X165356891Y-126081481D01*
X165631252Y-125984157D01*
X165881355Y-125835178D01*
X166097588Y-125640269D01*
X166271641Y-125406920D01*
X166340000Y-125263401D01*
X166340000Y-133967721D01*
X166330420Y-134065424D01*
X166311420Y-134128357D01*
X166280554Y-134186406D01*
X166239011Y-134237343D01*
X166188356Y-134279248D01*
X166130529Y-134310515D01*
X166067728Y-134329956D01*
X165972165Y-134340000D01*
X146127000Y-134340000D01*
X146127000Y-133715000D01*
X146817629Y-133715000D01*
X146970000Y-133730007D01*
X147122372Y-133715000D01*
X152449162Y-133715000D01*
X152500000Y-133720007D01*
X152550838Y-133715000D01*
X155119172Y-133715000D01*
X155170000Y-133720006D01*
X155220828Y-133715000D01*
X155220838Y-133715000D01*
X155372895Y-133700024D01*
X155567993Y-133640841D01*
X155747797Y-133544734D01*
X155905396Y-133415396D01*
X155918919Y-133398919D01*
X155935396Y-133385396D01*
X156064734Y-133227797D01*
X156160841Y-133047993D01*
X156220024Y-132852895D01*
X156235000Y-132700838D01*
X156235000Y-132700829D01*
X156240006Y-132650001D01*
X156235000Y-132599173D01*
X156235000Y-132492683D01*
X156304494Y-132455537D01*
X156401185Y-132376185D01*
X156480537Y-132279494D01*
X156539502Y-132169180D01*
X156544500Y-132152704D01*
X156617547Y-132130546D01*
X156749576Y-132059974D01*
X156865301Y-131965001D01*
X156889104Y-131935997D01*
X157138109Y-131686992D01*
X157149188Y-131799482D01*
X157185498Y-131919180D01*
X157244463Y-132029494D01*
X157323815Y-132126185D01*
X157420506Y-132205537D01*
X157530820Y-132264502D01*
X157650518Y-132300812D01*
X157775000Y-132313072D01*
X157926750Y-132310000D01*
X158085500Y-132151250D01*
X158085500Y-131327000D01*
X158065500Y-131327000D01*
X158065500Y-131073000D01*
X158085500Y-131073000D01*
X158085500Y-131053000D01*
X158339500Y-131053000D01*
X158339500Y-131073000D01*
X158359500Y-131073000D01*
X158359500Y-131327000D01*
X158339500Y-131327000D01*
X158339500Y-132151250D01*
X158498250Y-132310000D01*
X158650000Y-132313072D01*
X158774482Y-132300812D01*
X158894180Y-132264502D01*
X159004494Y-132205537D01*
X159071070Y-132150900D01*
X159092725Y-132168671D01*
X159240858Y-132247850D01*
X159401592Y-132296608D01*
X159568750Y-132313072D01*
X160006250Y-132313072D01*
X160173408Y-132296608D01*
X160334142Y-132247850D01*
X160482275Y-132168671D01*
X160612115Y-132062115D01*
X160718671Y-131932275D01*
X160757303Y-131860000D01*
X162404082Y-131860000D01*
X162487885Y-131962115D01*
X162617725Y-132068671D01*
X162765858Y-132147850D01*
X162926592Y-132196608D01*
X163093750Y-132213072D01*
X163531250Y-132213072D01*
X163698408Y-132196608D01*
X163859142Y-132147850D01*
X164007275Y-132068671D01*
X164100000Y-131992574D01*
X164192725Y-132068671D01*
X164340858Y-132147850D01*
X164501592Y-132196608D01*
X164668750Y-132213072D01*
X165106250Y-132213072D01*
X165273408Y-132196608D01*
X165434142Y-132147850D01*
X165582275Y-132068671D01*
X165712115Y-131962115D01*
X165818671Y-131832275D01*
X165897850Y-131684142D01*
X165946608Y-131523408D01*
X165963072Y-131356250D01*
X165963072Y-130843750D01*
X165946608Y-130676592D01*
X165897850Y-130515858D01*
X165818671Y-130367725D01*
X165712115Y-130237885D01*
X165671952Y-130204924D01*
X165724115Y-130162115D01*
X165830671Y-130032275D01*
X165909850Y-129884142D01*
X165958608Y-129723408D01*
X165975072Y-129556250D01*
X165975072Y-129043750D01*
X165958608Y-128876592D01*
X165909850Y-128715858D01*
X165830671Y-128567725D01*
X165724115Y-128437885D01*
X165594275Y-128331329D01*
X165446142Y-128252150D01*
X165285408Y-128203392D01*
X165118250Y-128186928D01*
X164680750Y-128186928D01*
X164513592Y-128203392D01*
X164352858Y-128252150D01*
X164204725Y-128331329D01*
X164183070Y-128349100D01*
X164116494Y-128294463D01*
X164006180Y-128235498D01*
X163886482Y-128199188D01*
X163762000Y-128186928D01*
X163610250Y-128190000D01*
X163451500Y-128348750D01*
X163451500Y-129173000D01*
X163471500Y-129173000D01*
X163471500Y-129427000D01*
X163451500Y-129427000D01*
X163451500Y-129447000D01*
X163197500Y-129447000D01*
X163197500Y-129427000D01*
X162410750Y-129427000D01*
X162252000Y-129585750D01*
X162248928Y-129775000D01*
X162261188Y-129899482D01*
X162297498Y-130019180D01*
X162356463Y-130129494D01*
X162435815Y-130226185D01*
X162472667Y-130256428D01*
X162404082Y-130340000D01*
X160710000Y-130340000D01*
X160710000Y-130194468D01*
X160726185Y-130181185D01*
X160805537Y-130084494D01*
X160864502Y-129974180D01*
X160898496Y-129862117D01*
X160949276Y-129834974D01*
X161065001Y-129740001D01*
X161088804Y-129710997D01*
X161974801Y-128825000D01*
X162248928Y-128825000D01*
X162252000Y-129014250D01*
X162410750Y-129173000D01*
X163197500Y-129173000D01*
X163197500Y-128348750D01*
X163038750Y-128190000D01*
X162887000Y-128186928D01*
X162762518Y-128199188D01*
X162642820Y-128235498D01*
X162532506Y-128294463D01*
X162435815Y-128373815D01*
X162356463Y-128470506D01*
X162297498Y-128580820D01*
X162261188Y-128700518D01*
X162248928Y-128825000D01*
X161974801Y-128825000D01*
X163077804Y-127721998D01*
X163106801Y-127698201D01*
X163201774Y-127582476D01*
X163272346Y-127450447D01*
X163315803Y-127307186D01*
X163326800Y-127195533D01*
X163326800Y-127195524D01*
X163330476Y-127158201D01*
X163326800Y-127120878D01*
X163326800Y-124996890D01*
X163558524Y-124996890D01*
X163603175Y-125144099D01*
X163728359Y-125406920D01*
X163902412Y-125640269D01*
X164118645Y-125835178D01*
X164368748Y-125984157D01*
X164643109Y-126081481D01*
X164873000Y-125960814D01*
X164873000Y-124767000D01*
X163679845Y-124767000D01*
X163558524Y-124996890D01*
X163326800Y-124996890D01*
X163326800Y-121208001D01*
X163687457Y-120847345D01*
X163698815Y-120861185D01*
G36*
X166065424Y-109669580D02*
G01*
X166128356Y-109688580D01*
X166186405Y-109719445D01*
X166237343Y-109760989D01*
X166279248Y-109811644D01*
X166310515Y-109869471D01*
X166329956Y-109932272D01*
X166340001Y-110027845D01*
X166340001Y-118306112D01*
X166301185Y-118258815D01*
X166204494Y-118179463D01*
X166094180Y-118120498D01*
X165974482Y-118084188D01*
X165850000Y-118071928D01*
X164150000Y-118071928D01*
X164025518Y-118084188D01*
X163905820Y-118120498D01*
X163795506Y-118179463D01*
X163698815Y-118258815D01*
X163619463Y-118355506D01*
X163560498Y-118465820D01*
X163524188Y-118585518D01*
X163511928Y-118710000D01*
X163511928Y-118905674D01*
X163475724Y-118925026D01*
X163359999Y-119019999D01*
X163336201Y-119048997D01*
X162055798Y-120329401D01*
X162026800Y-120353199D01*
X162003002Y-120382197D01*
X162003001Y-120382198D01*
X161931826Y-120468924D01*
X161861254Y-120600954D01*
X161830980Y-120700758D01*
X161817798Y-120744214D01*
X161807576Y-120848000D01*
X161803124Y-120893200D01*
X161806801Y-120930532D01*
X161806800Y-126843398D01*
X161660000Y-126990198D01*
X161660000Y-122661825D01*
X161663676Y-122624500D01*
X161660000Y-122587175D01*
X161660000Y-122587167D01*
X161649003Y-122475514D01*
X161605546Y-122332253D01*
X161534974Y-122200224D01*
X161440001Y-122084499D01*
X161411004Y-122060702D01*
X160151072Y-120800771D01*
X160151072Y-120543750D01*
X160134608Y-120376592D01*
X160085850Y-120215858D01*
X160006671Y-120067725D01*
X159900115Y-119937885D01*
X159770275Y-119831329D01*
X159731682Y-119810701D01*
X159710474Y-119771023D01*
X159639299Y-119684297D01*
X159615501Y-119655299D01*
X159586504Y-119631502D01*
X159387100Y-119432098D01*
X159387100Y-119369961D01*
X159347326Y-119170002D01*
X159269305Y-118981644D01*
X159156037Y-118812126D01*
X159011874Y-118667963D01*
X158842356Y-118554695D01*
X158668006Y-118482476D01*
X158714592Y-118496608D01*
X158881750Y-118513072D01*
X159319250Y-118513072D01*
X159486408Y-118496608D01*
X159647142Y-118447850D01*
X159795275Y-118368671D01*
X159816930Y-118350900D01*
X159883506Y-118405537D01*
X159993820Y-118464502D01*
X160113518Y-118500812D01*
X160238000Y-118513072D01*
X160389750Y-118510000D01*
X160548498Y-118351252D01*
X160548498Y-118510000D01*
X160549442Y-118510000D01*
X160482795Y-118609744D01*
X160404774Y-118798102D01*
X160365000Y-118998061D01*
X160365000Y-119201939D01*
X160404774Y-119401898D01*
X160482795Y-119590256D01*
X160596063Y-119759774D01*
X160740226Y-119903937D01*
X160909744Y-120017205D01*
X161098102Y-120095226D01*
X161298061Y-120135000D01*
X161501939Y-120135000D01*
X161701898Y-120095226D01*
X161890256Y-120017205D01*
X162059774Y-119903937D01*
X162114724Y-119848987D01*
X162257932Y-119805546D01*
X162389961Y-119734974D01*
X162505686Y-119640001D01*
X162529488Y-119610998D01*
X163311004Y-118829483D01*
X163340001Y-118805686D01*
X163434974Y-118689961D01*
X163505546Y-118557932D01*
X163549003Y-118414671D01*
X163560000Y-118303018D01*
X163560000Y-118303017D01*
X163563677Y-118265685D01*
X163560000Y-118228352D01*
X163560000Y-113161825D01*
X163563676Y-113124500D01*
X163560000Y-113087175D01*
X163560000Y-113087167D01*
X163549003Y-112975514D01*
X163505546Y-112832253D01*
X163434974Y-112700224D01*
X163340001Y-112584499D01*
X163311003Y-112560701D01*
X161751072Y-111000771D01*
X161751072Y-110743750D01*
X161734608Y-110576592D01*
X161685850Y-110415858D01*
X161606671Y-110267725D01*
X161500115Y-110137885D01*
X161370275Y-110031329D01*
X161222142Y-109952150D01*
X161061408Y-109903392D01*
X160894250Y-109886928D01*
X160456750Y-109886928D01*
X160289592Y-109903392D01*
X160128858Y-109952150D01*
X159980725Y-110031329D01*
X159888000Y-110107426D01*
X159795275Y-110031329D01*
X159647142Y-109952150D01*
X159486408Y-109903392D01*
X159319250Y-109886928D01*
X158881750Y-109886928D01*
X158714592Y-109903392D01*
X158553858Y-109952150D01*
X158405725Y-110031329D01*
X158275885Y-110137885D01*
X158169329Y-110267725D01*
X158090150Y-110415858D01*
X158041392Y-110576592D01*
X158024928Y-110743750D01*
X158024928Y-111174626D01*
X157851072Y-111000770D01*
X157851072Y-110743750D01*
X157834608Y-110576592D01*
X157785850Y-110415858D01*
X157706671Y-110267725D01*
X157600115Y-110137885D01*
X157470275Y-110031329D01*
X157322142Y-109952150D01*
X157161408Y-109903392D01*
X156994250Y-109886928D01*
X156737229Y-109886928D01*
X156510301Y-109660000D01*
X165967721Y-109660000D01*
X166065424Y-109669580D01*
X166065424Y-109669580D01*
G37*
X166065424Y-109669580D02*
X166128356Y-109688580D01*
X166186405Y-109719445D01*
X166237343Y-109760989D01*
X166279248Y-109811644D01*
X166310515Y-109869471D01*
X166329956Y-109932272D01*
X166340001Y-110027845D01*
X166340001Y-118306112D01*
X166301185Y-118258815D01*
X166204494Y-118179463D01*
X166094180Y-118120498D01*
X165974482Y-118084188D01*
X165850000Y-118071928D01*
X164150000Y-118071928D01*
X164025518Y-118084188D01*
X163905820Y-118120498D01*
X163795506Y-118179463D01*
X163698815Y-118258815D01*
X163619463Y-118355506D01*
X163560498Y-118465820D01*
X163524188Y-118585518D01*
X163511928Y-118710000D01*
X163511928Y-118905674D01*
X163475724Y-118925026D01*
X163359999Y-119019999D01*
X163336201Y-119048997D01*
X162055798Y-120329401D01*
X162026800Y-120353199D01*
X162003002Y-120382197D01*
X162003001Y-120382198D01*
X161931826Y-120468924D01*
X161861254Y-120600954D01*
X161830980Y-120700758D01*
X161817798Y-120744214D01*
X161807576Y-120848000D01*
X161803124Y-120893200D01*
X161806801Y-120930532D01*
X161806800Y-126843398D01*
X161660000Y-126990198D01*
X161660000Y-122661825D01*
X161663676Y-122624500D01*
X161660000Y-122587175D01*
X161660000Y-122587167D01*
X161649003Y-122475514D01*
X161605546Y-122332253D01*
X161534974Y-122200224D01*
X161440001Y-122084499D01*
X161411004Y-122060702D01*
X160151072Y-120800771D01*
X160151072Y-120543750D01*
X160134608Y-120376592D01*
X160085850Y-120215858D01*
X160006671Y-120067725D01*
X159900115Y-119937885D01*
X159770275Y-119831329D01*
X159731682Y-119810701D01*
X159710474Y-119771023D01*
X159639299Y-119684297D01*
X159615501Y-119655299D01*
X159586504Y-119631502D01*
X159387100Y-119432098D01*
X159387100Y-119369961D01*
X159347326Y-119170002D01*
X159269305Y-118981644D01*
X159156037Y-118812126D01*
X159011874Y-118667963D01*
X158842356Y-118554695D01*
X158668006Y-118482476D01*
X158714592Y-118496608D01*
X158881750Y-118513072D01*
X159319250Y-118513072D01*
X159486408Y-118496608D01*
X159647142Y-118447850D01*
X159795275Y-118368671D01*
X159816930Y-118350900D01*
X159883506Y-118405537D01*
X159993820Y-118464502D01*
X160113518Y-118500812D01*
X160238000Y-118513072D01*
X160389750Y-118510000D01*
X160548498Y-118351252D01*
X160548498Y-118510000D01*
X160549442Y-118510000D01*
X160482795Y-118609744D01*
X160404774Y-118798102D01*
X160365000Y-118998061D01*
X160365000Y-119201939D01*
X160404774Y-119401898D01*
X160482795Y-119590256D01*
X160596063Y-119759774D01*
X160740226Y-119903937D01*
X160909744Y-120017205D01*
X161098102Y-120095226D01*
X161298061Y-120135000D01*
X161501939Y-120135000D01*
X161701898Y-120095226D01*
X161890256Y-120017205D01*
X162059774Y-119903937D01*
X162114724Y-119848987D01*
X162257932Y-119805546D01*
X162389961Y-119734974D01*
X162505686Y-119640001D01*
X162529488Y-119610998D01*
X163311004Y-118829483D01*
X163340001Y-118805686D01*
X163434974Y-118689961D01*
X163505546Y-118557932D01*
X163549003Y-118414671D01*
X163560000Y-118303018D01*
X163560000Y-118303017D01*
X163563677Y-118265685D01*
X163560000Y-118228352D01*
X163560000Y-113161825D01*
X163563676Y-113124500D01*
X163560000Y-113087175D01*
X163560000Y-113087167D01*
X163549003Y-112975514D01*
X163505546Y-112832253D01*
X163434974Y-112700224D01*
X163340001Y-112584499D01*
X163311003Y-112560701D01*
X161751072Y-111000771D01*
X161751072Y-110743750D01*
X161734608Y-110576592D01*
X161685850Y-110415858D01*
X161606671Y-110267725D01*
X161500115Y-110137885D01*
X161370275Y-110031329D01*
X161222142Y-109952150D01*
X161061408Y-109903392D01*
X160894250Y-109886928D01*
X160456750Y-109886928D01*
X160289592Y-109903392D01*
X160128858Y-109952150D01*
X159980725Y-110031329D01*
X159888000Y-110107426D01*
X159795275Y-110031329D01*
X159647142Y-109952150D01*
X159486408Y-109903392D01*
X159319250Y-109886928D01*
X158881750Y-109886928D01*
X158714592Y-109903392D01*
X158553858Y-109952150D01*
X158405725Y-110031329D01*
X158275885Y-110137885D01*
X158169329Y-110267725D01*
X158090150Y-110415858D01*
X158041392Y-110576592D01*
X158024928Y-110743750D01*
X158024928Y-111174626D01*
X157851072Y-111000770D01*
X157851072Y-110743750D01*
X157834608Y-110576592D01*
X157785850Y-110415858D01*
X157706671Y-110267725D01*
X157600115Y-110137885D01*
X157470275Y-110031329D01*
X157322142Y-109952150D01*
X157161408Y-109903392D01*
X156994250Y-109886928D01*
X156737229Y-109886928D01*
X156510301Y-109660000D01*
X165967721Y-109660000D01*
X166065424Y-109669580D01*
G36*
X157124928Y-124999230D02*
G01*
X157124928Y-125256250D01*
X157141392Y-125423408D01*
X157190150Y-125584142D01*
X157269329Y-125732275D01*
X157375885Y-125862115D01*
X157430839Y-125907214D01*
X157370506Y-125939463D01*
X157273815Y-126018815D01*
X157237665Y-126062864D01*
X156707399Y-125532598D01*
X156713072Y-125475000D01*
X156713072Y-124725000D01*
X156698036Y-124572338D01*
X157124928Y-124999230D01*
X157124928Y-124999230D01*
G37*
X157124928Y-124999230D02*
X157124928Y-125256250D01*
X157141392Y-125423408D01*
X157190150Y-125584142D01*
X157269329Y-125732275D01*
X157375885Y-125862115D01*
X157430839Y-125907214D01*
X157370506Y-125939463D01*
X157273815Y-126018815D01*
X157237665Y-126062864D01*
X156707399Y-125532598D01*
X156713072Y-125475000D01*
X156713072Y-124725000D01*
X156698036Y-124572338D01*
X157124928Y-124999230D01*
G36*
X158872998Y-125993748D02*
G01*
X158864416Y-125985166D01*
X158872998Y-125980579D01*
X158872998Y-125993748D01*
X158872998Y-125993748D01*
G37*
X158872998Y-125993748D02*
X158864416Y-125985166D01*
X158872998Y-125980579D01*
X158872998Y-125993748D01*
G36*
X148550771Y-110686928D02*
G01*
X148293750Y-110686928D01*
X148126592Y-110703392D01*
X147965858Y-110752150D01*
X147817725Y-110831329D01*
X147687885Y-110937885D01*
X147581329Y-111067725D01*
X147502150Y-111215858D01*
X147455476Y-111369721D01*
X146888997Y-111936201D01*
X146860000Y-111959999D01*
X146836202Y-111988997D01*
X146836201Y-111988998D01*
X146765026Y-112075724D01*
X146694454Y-112207754D01*
X146679845Y-112255915D01*
X146650998Y-112351014D01*
X146645691Y-112404900D01*
X146636324Y-112500000D01*
X146640001Y-112537332D01*
X146640000Y-120835228D01*
X146636324Y-120872550D01*
X146640000Y-120909872D01*
X146640000Y-120909882D01*
X146650997Y-121021535D01*
X146690541Y-121151897D01*
X146694454Y-121164796D01*
X146765026Y-121296826D01*
X146798870Y-121338065D01*
X146859999Y-121412551D01*
X146889002Y-121436353D01*
X147486928Y-122034280D01*
X147486928Y-122094250D01*
X147503392Y-122261408D01*
X147552150Y-122422142D01*
X147631329Y-122570275D01*
X147737885Y-122700115D01*
X147867725Y-122806671D01*
X148015858Y-122885850D01*
X148176592Y-122934608D01*
X148343750Y-122951072D01*
X148856250Y-122951072D01*
X149023408Y-122934608D01*
X149184142Y-122885850D01*
X149332275Y-122806671D01*
X149462115Y-122700115D01*
X149550174Y-122592814D01*
X149576037Y-122639142D01*
X149657146Y-122734365D01*
X149755273Y-122811935D01*
X149866647Y-122868871D01*
X149986989Y-122902984D01*
X150111675Y-122912965D01*
X150364250Y-122910000D01*
X150523000Y-122751250D01*
X150523000Y-122263072D01*
X150777000Y-122263072D01*
X150777000Y-122751250D01*
X150935750Y-122910000D01*
X151188325Y-122912965D01*
X151313011Y-122902984D01*
X151433353Y-122868871D01*
X151544727Y-122811935D01*
X151642854Y-122734365D01*
X151723963Y-122639142D01*
X151784935Y-122529925D01*
X151823429Y-122410911D01*
X151835000Y-122306750D01*
X151676250Y-122148000D01*
X151563678Y-122148000D01*
X151651185Y-122076185D01*
X151730537Y-121979494D01*
X151767032Y-121911218D01*
X151835000Y-121843250D01*
X151824913Y-121752446D01*
X151825812Y-121749482D01*
X151838072Y-121625000D01*
X151838072Y-121225000D01*
X151825812Y-121100518D01*
X151824913Y-121097554D01*
X151835000Y-121006750D01*
X151767032Y-120938782D01*
X151747372Y-120902002D01*
X151835000Y-120902002D01*
X151835000Y-120840419D01*
X151867547Y-120830546D01*
X151999576Y-120759974D01*
X152115301Y-120665001D01*
X152210274Y-120549276D01*
X152280846Y-120417247D01*
X152324303Y-120273986D01*
X152335300Y-120162333D01*
X152338977Y-120125000D01*
X152335300Y-120087667D01*
X152335300Y-118481777D01*
X152447142Y-118447850D01*
X152595275Y-118368671D01*
X152688000Y-118292574D01*
X152780725Y-118368671D01*
X152928858Y-118447850D01*
X153089592Y-118496608D01*
X153256750Y-118513072D01*
X153694250Y-118513072D01*
X153861408Y-118496608D01*
X154022142Y-118447850D01*
X154170275Y-118368671D01*
X154300115Y-118262115D01*
X154344000Y-118208641D01*
X154387885Y-118262115D01*
X154517725Y-118368671D01*
X154665858Y-118447850D01*
X154826592Y-118496608D01*
X154993750Y-118513072D01*
X155431250Y-118513072D01*
X155598408Y-118496608D01*
X155759142Y-118447850D01*
X155907275Y-118368671D01*
X156000000Y-118292574D01*
X156092725Y-118368671D01*
X156240858Y-118447850D01*
X156401592Y-118496608D01*
X156568750Y-118513072D01*
X157006250Y-118513072D01*
X157173408Y-118496608D01*
X157334142Y-118447850D01*
X157482275Y-118368671D01*
X157612115Y-118262115D01*
X157695918Y-118160000D01*
X158192082Y-118160000D01*
X158275885Y-118262115D01*
X158405725Y-118368671D01*
X158553858Y-118447850D01*
X158639127Y-118473716D01*
X158454039Y-118436900D01*
X158250161Y-118436900D01*
X158050202Y-118476674D01*
X157861844Y-118554695D01*
X157692326Y-118667963D01*
X157548163Y-118812126D01*
X157434895Y-118981644D01*
X157356874Y-119170002D01*
X157317100Y-119369961D01*
X157317100Y-119573839D01*
X157339595Y-119686928D01*
X157281750Y-119686928D01*
X157114592Y-119703392D01*
X156953858Y-119752150D01*
X156805725Y-119831329D01*
X156675885Y-119937885D01*
X156592082Y-120040000D01*
X156135000Y-120040000D01*
X156135000Y-119997998D01*
X156030252Y-119997998D01*
X156135000Y-119893250D01*
X156123429Y-119789089D01*
X156084935Y-119670075D01*
X156023963Y-119560858D01*
X155942854Y-119465635D01*
X155844727Y-119388065D01*
X155733353Y-119331129D01*
X155613011Y-119297016D01*
X155488325Y-119287035D01*
X155235750Y-119290000D01*
X155077000Y-119448750D01*
X155077000Y-119936928D01*
X154823000Y-119936928D01*
X154823000Y-119448750D01*
X154664250Y-119290000D01*
X154411675Y-119287035D01*
X154286989Y-119297016D01*
X154166647Y-119331129D01*
X154055273Y-119388065D01*
X153957146Y-119465635D01*
X153876037Y-119560858D01*
X153815065Y-119670075D01*
X153776571Y-119789089D01*
X153765000Y-119893250D01*
X153923750Y-120052000D01*
X154036322Y-120052000D01*
X153948815Y-120123815D01*
X153869463Y-120220506D01*
X153832968Y-120288782D01*
X153765000Y-120356750D01*
X153775087Y-120447554D01*
X153774188Y-120450518D01*
X153761928Y-120575000D01*
X153761928Y-120975000D01*
X153774188Y-121099482D01*
X153774345Y-121100000D01*
X153774188Y-121100518D01*
X153761928Y-121225000D01*
X153761928Y-121625000D01*
X153774188Y-121749482D01*
X153775087Y-121752446D01*
X153765000Y-121843250D01*
X153832968Y-121911218D01*
X153869463Y-121979494D01*
X153948815Y-122076185D01*
X154036322Y-122148000D01*
X153923750Y-122148000D01*
X153765000Y-122306750D01*
X153776571Y-122410911D01*
X153815065Y-122529925D01*
X153876037Y-122639142D01*
X153957146Y-122734365D01*
X154055273Y-122811935D01*
X154166647Y-122868871D01*
X154286989Y-122902984D01*
X154411675Y-122912965D01*
X154664250Y-122910000D01*
X154823000Y-122751250D01*
X154823000Y-122263072D01*
X155077000Y-122263072D01*
X155077000Y-122751250D01*
X155235750Y-122910000D01*
X155440001Y-122912398D01*
X155440001Y-122962168D01*
X155436324Y-122999500D01*
X155450998Y-123148485D01*
X155494454Y-123291746D01*
X155565026Y-123423776D01*
X155610019Y-123478599D01*
X155660000Y-123539501D01*
X155688998Y-123563299D01*
X155977663Y-123851964D01*
X155825000Y-123836928D01*
X154575000Y-123836928D01*
X154401746Y-123853992D01*
X154235150Y-123904528D01*
X154081614Y-123986595D01*
X153986077Y-124065000D01*
X153713923Y-124065000D01*
X153618386Y-123986595D01*
X153464850Y-123904528D01*
X153298254Y-123853992D01*
X153125000Y-123836928D01*
X151875000Y-123836928D01*
X151701746Y-123853992D01*
X151535150Y-123904528D01*
X151381614Y-123986595D01*
X151286077Y-124065000D01*
X150913923Y-124065000D01*
X150818386Y-123986595D01*
X150664850Y-123904528D01*
X150498254Y-123853992D01*
X150325000Y-123836928D01*
X149075000Y-123836928D01*
X148901746Y-123853992D01*
X148735150Y-123904528D01*
X148581614Y-123986595D01*
X148486077Y-124065000D01*
X148246108Y-124065000D01*
X148138386Y-123976595D01*
X147984850Y-123894528D01*
X147818254Y-123843992D01*
X147645000Y-123826928D01*
X147220639Y-123826928D01*
X146127000Y-122733289D01*
X146127000Y-109660000D01*
X149577698Y-109660000D01*
X148550771Y-110686928D01*
X148550771Y-110686928D01*
G37*
X148550771Y-110686928D02*
X148293750Y-110686928D01*
X148126592Y-110703392D01*
X147965858Y-110752150D01*
X147817725Y-110831329D01*
X147687885Y-110937885D01*
X147581329Y-111067725D01*
X147502150Y-111215858D01*
X147455476Y-111369721D01*
X146888997Y-111936201D01*
X146860000Y-111959999D01*
X146836202Y-111988997D01*
X146836201Y-111988998D01*
X146765026Y-112075724D01*
X146694454Y-112207754D01*
X146679845Y-112255915D01*
X146650998Y-112351014D01*
X146645691Y-112404900D01*
X146636324Y-112500000D01*
X146640001Y-112537332D01*
X146640000Y-120835228D01*
X146636324Y-120872550D01*
X146640000Y-120909872D01*
X146640000Y-120909882D01*
X146650997Y-121021535D01*
X146690541Y-121151897D01*
X146694454Y-121164796D01*
X146765026Y-121296826D01*
X146798870Y-121338065D01*
X146859999Y-121412551D01*
X146889002Y-121436353D01*
X147486928Y-122034280D01*
X147486928Y-122094250D01*
X147503392Y-122261408D01*
X147552150Y-122422142D01*
X147631329Y-122570275D01*
X147737885Y-122700115D01*
X147867725Y-122806671D01*
X148015858Y-122885850D01*
X148176592Y-122934608D01*
X148343750Y-122951072D01*
X148856250Y-122951072D01*
X149023408Y-122934608D01*
X149184142Y-122885850D01*
X149332275Y-122806671D01*
X149462115Y-122700115D01*
X149550174Y-122592814D01*
X149576037Y-122639142D01*
X149657146Y-122734365D01*
X149755273Y-122811935D01*
X149866647Y-122868871D01*
X149986989Y-122902984D01*
X150111675Y-122912965D01*
X150364250Y-122910000D01*
X150523000Y-122751250D01*
X150523000Y-122263072D01*
X150777000Y-122263072D01*
X150777000Y-122751250D01*
X150935750Y-122910000D01*
X151188325Y-122912965D01*
X151313011Y-122902984D01*
X151433353Y-122868871D01*
X151544727Y-122811935D01*
X151642854Y-122734365D01*
X151723963Y-122639142D01*
X151784935Y-122529925D01*
X151823429Y-122410911D01*
X151835000Y-122306750D01*
X151676250Y-122148000D01*
X151563678Y-122148000D01*
X151651185Y-122076185D01*
X151730537Y-121979494D01*
X151767032Y-121911218D01*
X151835000Y-121843250D01*
X151824913Y-121752446D01*
X151825812Y-121749482D01*
X151838072Y-121625000D01*
X151838072Y-121225000D01*
X151825812Y-121100518D01*
X151824913Y-121097554D01*
X151835000Y-121006750D01*
X151767032Y-120938782D01*
X151747372Y-120902002D01*
X151835000Y-120902002D01*
X151835000Y-120840419D01*
X151867547Y-120830546D01*
X151999576Y-120759974D01*
X152115301Y-120665001D01*
X152210274Y-120549276D01*
X152280846Y-120417247D01*
X152324303Y-120273986D01*
X152335300Y-120162333D01*
X152338977Y-120125000D01*
X152335300Y-120087667D01*
X152335300Y-118481777D01*
X152447142Y-118447850D01*
X152595275Y-118368671D01*
X152688000Y-118292574D01*
X152780725Y-118368671D01*
X152928858Y-118447850D01*
X153089592Y-118496608D01*
X153256750Y-118513072D01*
X153694250Y-118513072D01*
X153861408Y-118496608D01*
X154022142Y-118447850D01*
X154170275Y-118368671D01*
X154300115Y-118262115D01*
X154344000Y-118208641D01*
X154387885Y-118262115D01*
X154517725Y-118368671D01*
X154665858Y-118447850D01*
X154826592Y-118496608D01*
X154993750Y-118513072D01*
X155431250Y-118513072D01*
X155598408Y-118496608D01*
X155759142Y-118447850D01*
X155907275Y-118368671D01*
X156000000Y-118292574D01*
X156092725Y-118368671D01*
X156240858Y-118447850D01*
X156401592Y-118496608D01*
X156568750Y-118513072D01*
X157006250Y-118513072D01*
X157173408Y-118496608D01*
X157334142Y-118447850D01*
X157482275Y-118368671D01*
X157612115Y-118262115D01*
X157695918Y-118160000D01*
X158192082Y-118160000D01*
X158275885Y-118262115D01*
X158405725Y-118368671D01*
X158553858Y-118447850D01*
X158639127Y-118473716D01*
X158454039Y-118436900D01*
X158250161Y-118436900D01*
X158050202Y-118476674D01*
X157861844Y-118554695D01*
X157692326Y-118667963D01*
X157548163Y-118812126D01*
X157434895Y-118981644D01*
X157356874Y-119170002D01*
X157317100Y-119369961D01*
X157317100Y-119573839D01*
X157339595Y-119686928D01*
X157281750Y-119686928D01*
X157114592Y-119703392D01*
X156953858Y-119752150D01*
X156805725Y-119831329D01*
X156675885Y-119937885D01*
X156592082Y-120040000D01*
X156135000Y-120040000D01*
X156135000Y-119997998D01*
X156030252Y-119997998D01*
X156135000Y-119893250D01*
X156123429Y-119789089D01*
X156084935Y-119670075D01*
X156023963Y-119560858D01*
X155942854Y-119465635D01*
X155844727Y-119388065D01*
X155733353Y-119331129D01*
X155613011Y-119297016D01*
X155488325Y-119287035D01*
X155235750Y-119290000D01*
X155077000Y-119448750D01*
X155077000Y-119936928D01*
X154823000Y-119936928D01*
X154823000Y-119448750D01*
X154664250Y-119290000D01*
X154411675Y-119287035D01*
X154286989Y-119297016D01*
X154166647Y-119331129D01*
X154055273Y-119388065D01*
X153957146Y-119465635D01*
X153876037Y-119560858D01*
X153815065Y-119670075D01*
X153776571Y-119789089D01*
X153765000Y-119893250D01*
X153923750Y-120052000D01*
X154036322Y-120052000D01*
X153948815Y-120123815D01*
X153869463Y-120220506D01*
X153832968Y-120288782D01*
X153765000Y-120356750D01*
X153775087Y-120447554D01*
X153774188Y-120450518D01*
X153761928Y-120575000D01*
X153761928Y-120975000D01*
X153774188Y-121099482D01*
X153774345Y-121100000D01*
X153774188Y-121100518D01*
X153761928Y-121225000D01*
X153761928Y-121625000D01*
X153774188Y-121749482D01*
X153775087Y-121752446D01*
X153765000Y-121843250D01*
X153832968Y-121911218D01*
X153869463Y-121979494D01*
X153948815Y-122076185D01*
X154036322Y-122148000D01*
X153923750Y-122148000D01*
X153765000Y-122306750D01*
X153776571Y-122410911D01*
X153815065Y-122529925D01*
X153876037Y-122639142D01*
X153957146Y-122734365D01*
X154055273Y-122811935D01*
X154166647Y-122868871D01*
X154286989Y-122902984D01*
X154411675Y-122912965D01*
X154664250Y-122910000D01*
X154823000Y-122751250D01*
X154823000Y-122263072D01*
X155077000Y-122263072D01*
X155077000Y-122751250D01*
X155235750Y-122910000D01*
X155440001Y-122912398D01*
X155440001Y-122962168D01*
X155436324Y-122999500D01*
X155450998Y-123148485D01*
X155494454Y-123291746D01*
X155565026Y-123423776D01*
X155610019Y-123478599D01*
X155660000Y-123539501D01*
X155688998Y-123563299D01*
X155977663Y-123851964D01*
X155825000Y-123836928D01*
X154575000Y-123836928D01*
X154401746Y-123853992D01*
X154235150Y-123904528D01*
X154081614Y-123986595D01*
X153986077Y-124065000D01*
X153713923Y-124065000D01*
X153618386Y-123986595D01*
X153464850Y-123904528D01*
X153298254Y-123853992D01*
X153125000Y-123836928D01*
X151875000Y-123836928D01*
X151701746Y-123853992D01*
X151535150Y-123904528D01*
X151381614Y-123986595D01*
X151286077Y-124065000D01*
X150913923Y-124065000D01*
X150818386Y-123986595D01*
X150664850Y-123904528D01*
X150498254Y-123853992D01*
X150325000Y-123836928D01*
X149075000Y-123836928D01*
X148901746Y-123853992D01*
X148735150Y-123904528D01*
X148581614Y-123986595D01*
X148486077Y-124065000D01*
X148246108Y-124065000D01*
X148138386Y-123976595D01*
X147984850Y-123894528D01*
X147818254Y-123843992D01*
X147645000Y-123826928D01*
X147220639Y-123826928D01*
X146127000Y-122733289D01*
X146127000Y-109660000D01*
X149577698Y-109660000D01*
X148550771Y-110686928D01*
G36*
X148627500Y-113373000D02*
G01*
X148647500Y-113373000D01*
X148647500Y-113627000D01*
X148627500Y-113627000D01*
X148627500Y-114451250D01*
X148639500Y-114463250D01*
X148639500Y-115073000D01*
X148659500Y-115073000D01*
X148659500Y-115327000D01*
X148639500Y-115327000D01*
X148639500Y-116151250D01*
X148788250Y-116300000D01*
X148639500Y-116448750D01*
X148639500Y-117273000D01*
X148659500Y-117273000D01*
X148659500Y-117527000D01*
X148639500Y-117527000D01*
X148639500Y-118351250D01*
X148798250Y-118510000D01*
X148950000Y-118513072D01*
X149074482Y-118500812D01*
X149194180Y-118464502D01*
X149304494Y-118405537D01*
X149371070Y-118350900D01*
X149392725Y-118368671D01*
X149540858Y-118447850D01*
X149701592Y-118496608D01*
X149868750Y-118513072D01*
X150306250Y-118513072D01*
X150473408Y-118496608D01*
X150634142Y-118447850D01*
X150782275Y-118368671D01*
X150815300Y-118341568D01*
X150815301Y-119286928D01*
X150100000Y-119286928D01*
X149975518Y-119299188D01*
X149855820Y-119335498D01*
X149745506Y-119394463D01*
X149648815Y-119473815D01*
X149611378Y-119519433D01*
X149605537Y-119508506D01*
X149526185Y-119411815D01*
X149429494Y-119332463D01*
X149319180Y-119273498D01*
X149199482Y-119237188D01*
X149075000Y-119224928D01*
X148885750Y-119228000D01*
X148727000Y-119386750D01*
X148727000Y-120173500D01*
X148747000Y-120173500D01*
X148747000Y-120427500D01*
X148727000Y-120427500D01*
X148727000Y-120447500D01*
X148473000Y-120447500D01*
X148473000Y-120427500D01*
X148453000Y-120427500D01*
X148453000Y-120173500D01*
X148473000Y-120173500D01*
X148473000Y-119386750D01*
X148314250Y-119228000D01*
X148160000Y-119225496D01*
X148160000Y-118511351D01*
X148226750Y-118510000D01*
X148385500Y-118351250D01*
X148385500Y-117527000D01*
X148365500Y-117527000D01*
X148365500Y-117273000D01*
X148385500Y-117273000D01*
X148385500Y-116448750D01*
X148236750Y-116300000D01*
X148385500Y-116151250D01*
X148385500Y-115327000D01*
X148365500Y-115327000D01*
X148365500Y-115073000D01*
X148385500Y-115073000D01*
X148385500Y-114248750D01*
X148373500Y-114236750D01*
X148373500Y-113627000D01*
X148353500Y-113627000D01*
X148353500Y-113373000D01*
X148373500Y-113373000D01*
X148373500Y-113353000D01*
X148627500Y-113353000D01*
X148627500Y-113373000D01*
X148627500Y-113373000D01*
G37*
X148627500Y-113373000D02*
X148647500Y-113373000D01*
X148647500Y-113627000D01*
X148627500Y-113627000D01*
X148627500Y-114451250D01*
X148639500Y-114463250D01*
X148639500Y-115073000D01*
X148659500Y-115073000D01*
X148659500Y-115327000D01*
X148639500Y-115327000D01*
X148639500Y-116151250D01*
X148788250Y-116300000D01*
X148639500Y-116448750D01*
X148639500Y-117273000D01*
X148659500Y-117273000D01*
X148659500Y-117527000D01*
X148639500Y-117527000D01*
X148639500Y-118351250D01*
X148798250Y-118510000D01*
X148950000Y-118513072D01*
X149074482Y-118500812D01*
X149194180Y-118464502D01*
X149304494Y-118405537D01*
X149371070Y-118350900D01*
X149392725Y-118368671D01*
X149540858Y-118447850D01*
X149701592Y-118496608D01*
X149868750Y-118513072D01*
X150306250Y-118513072D01*
X150473408Y-118496608D01*
X150634142Y-118447850D01*
X150782275Y-118368671D01*
X150815300Y-118341568D01*
X150815301Y-119286928D01*
X150100000Y-119286928D01*
X149975518Y-119299188D01*
X149855820Y-119335498D01*
X149745506Y-119394463D01*
X149648815Y-119473815D01*
X149611378Y-119519433D01*
X149605537Y-119508506D01*
X149526185Y-119411815D01*
X149429494Y-119332463D01*
X149319180Y-119273498D01*
X149199482Y-119237188D01*
X149075000Y-119224928D01*
X148885750Y-119228000D01*
X148727000Y-119386750D01*
X148727000Y-120173500D01*
X148747000Y-120173500D01*
X148747000Y-120427500D01*
X148727000Y-120427500D01*
X148727000Y-120447500D01*
X148473000Y-120447500D01*
X148473000Y-120427500D01*
X148453000Y-120427500D01*
X148453000Y-120173500D01*
X148473000Y-120173500D01*
X148473000Y-119386750D01*
X148314250Y-119228000D01*
X148160000Y-119225496D01*
X148160000Y-118511351D01*
X148226750Y-118510000D01*
X148385500Y-118351250D01*
X148385500Y-117527000D01*
X148365500Y-117527000D01*
X148365500Y-117273000D01*
X148385500Y-117273000D01*
X148385500Y-116448750D01*
X148236750Y-116300000D01*
X148385500Y-116151250D01*
X148385500Y-115327000D01*
X148365500Y-115327000D01*
X148365500Y-115073000D01*
X148385500Y-115073000D01*
X148385500Y-114248750D01*
X148373500Y-114236750D01*
X148373500Y-113627000D01*
X148353500Y-113627000D01*
X148353500Y-113373000D01*
X148373500Y-113373000D01*
X148373500Y-113353000D01*
X148627500Y-113353000D01*
X148627500Y-113373000D01*
G36*
X162040001Y-113439303D02*
G01*
X162040000Y-117950883D01*
X161832155Y-118158729D01*
X161706317Y-118106604D01*
X161738812Y-117999482D01*
X161751072Y-117875000D01*
X161748000Y-117685750D01*
X161589250Y-117527000D01*
X160802500Y-117527000D01*
X160802500Y-117547000D01*
X160548500Y-117547000D01*
X160548500Y-117527000D01*
X160528500Y-117527000D01*
X160528500Y-117273000D01*
X160548500Y-117273000D01*
X160548500Y-115927000D01*
X160802500Y-115927000D01*
X160802500Y-117273000D01*
X161589250Y-117273000D01*
X161748000Y-117114250D01*
X161751072Y-116925000D01*
X161738812Y-116800518D01*
X161702502Y-116680820D01*
X161659302Y-116600000D01*
X161702502Y-116519180D01*
X161738812Y-116399482D01*
X161751072Y-116275000D01*
X161748000Y-116085750D01*
X161589250Y-115927000D01*
X160802500Y-115927000D01*
X160548500Y-115927000D01*
X160528500Y-115927000D01*
X160528500Y-115673000D01*
X160548500Y-115673000D01*
X160548500Y-115653000D01*
X160802500Y-115653000D01*
X160802500Y-115673000D01*
X161589250Y-115673000D01*
X161748000Y-115514250D01*
X161751072Y-115325000D01*
X161738812Y-115200518D01*
X161702502Y-115080820D01*
X161643537Y-114970506D01*
X161608837Y-114928223D01*
X161685850Y-114784142D01*
X161734608Y-114623408D01*
X161751072Y-114456250D01*
X161751072Y-113943750D01*
X161734608Y-113776592D01*
X161685850Y-113615858D01*
X161606671Y-113467725D01*
X161551091Y-113400000D01*
X161606671Y-113332275D01*
X161685850Y-113184142D01*
X161708889Y-113108191D01*
X162040001Y-113439303D01*
X162040001Y-113439303D01*
G37*
X162040001Y-113439303D02*
X162040000Y-117950883D01*
X161832155Y-118158729D01*
X161706317Y-118106604D01*
X161738812Y-117999482D01*
X161751072Y-117875000D01*
X161748000Y-117685750D01*
X161589250Y-117527000D01*
X160802500Y-117527000D01*
X160802500Y-117547000D01*
X160548500Y-117547000D01*
X160548500Y-117527000D01*
X160528500Y-117527000D01*
X160528500Y-117273000D01*
X160548500Y-117273000D01*
X160548500Y-115927000D01*
X160802500Y-115927000D01*
X160802500Y-117273000D01*
X161589250Y-117273000D01*
X161748000Y-117114250D01*
X161751072Y-116925000D01*
X161738812Y-116800518D01*
X161702502Y-116680820D01*
X161659302Y-116600000D01*
X161702502Y-116519180D01*
X161738812Y-116399482D01*
X161751072Y-116275000D01*
X161748000Y-116085750D01*
X161589250Y-115927000D01*
X160802500Y-115927000D01*
X160548500Y-115927000D01*
X160528500Y-115927000D01*
X160528500Y-115673000D01*
X160548500Y-115673000D01*
X160548500Y-115653000D01*
X160802500Y-115653000D01*
X160802500Y-115673000D01*
X161589250Y-115673000D01*
X161748000Y-115514250D01*
X161751072Y-115325000D01*
X161738812Y-115200518D01*
X161702502Y-115080820D01*
X161643537Y-114970506D01*
X161608837Y-114928223D01*
X161685850Y-114784142D01*
X161734608Y-114623408D01*
X161751072Y-114456250D01*
X161751072Y-113943750D01*
X161734608Y-113776592D01*
X161685850Y-113615858D01*
X161606671Y-113467725D01*
X161551091Y-113400000D01*
X161606671Y-113332275D01*
X161685850Y-113184142D01*
X161708889Y-113108191D01*
X162040001Y-113439303D01*
G36*
X154128000Y-110714250D02*
G01*
X154286750Y-110873000D01*
X155073500Y-110873000D01*
X155073500Y-110853000D01*
X155327500Y-110853000D01*
X155327500Y-110873000D01*
X155347500Y-110873000D01*
X155347500Y-111127000D01*
X155327500Y-111127000D01*
X155327500Y-111951250D01*
X155486250Y-112110000D01*
X155638000Y-112113072D01*
X155762482Y-112100812D01*
X155882180Y-112064502D01*
X155992494Y-112005537D01*
X156059070Y-111950900D01*
X156080725Y-111968671D01*
X156228858Y-112047850D01*
X156389592Y-112096608D01*
X156556750Y-112113072D01*
X156611771Y-112113072D01*
X156577189Y-112286928D01*
X156100000Y-112286928D01*
X155975518Y-112299188D01*
X155855820Y-112335498D01*
X155745506Y-112394463D01*
X155648815Y-112473815D01*
X155569463Y-112570506D01*
X155510498Y-112680820D01*
X155474188Y-112800518D01*
X155461928Y-112925000D01*
X155461928Y-113325000D01*
X155474188Y-113449482D01*
X155474345Y-113450000D01*
X155474188Y-113450518D01*
X155461928Y-113575000D01*
X155461928Y-113975000D01*
X155474188Y-114099482D01*
X155474345Y-114100000D01*
X155474188Y-114100518D01*
X155461928Y-114225000D01*
X155461928Y-114625000D01*
X155474188Y-114749482D01*
X155474345Y-114750000D01*
X155474188Y-114750518D01*
X155461928Y-114875000D01*
X155461928Y-115275000D01*
X155474188Y-115399482D01*
X155510498Y-115519180D01*
X155569463Y-115629494D01*
X155648815Y-115726185D01*
X155745506Y-115805537D01*
X155855820Y-115864502D01*
X155975518Y-115900812D01*
X156100000Y-115913072D01*
X156815301Y-115913072D01*
X156815300Y-116286928D01*
X156568750Y-116286928D01*
X156401592Y-116303392D01*
X156240858Y-116352150D01*
X156092725Y-116431329D01*
X156000000Y-116507426D01*
X155907275Y-116431329D01*
X155759142Y-116352150D01*
X155598408Y-116303392D01*
X155431250Y-116286928D01*
X154993750Y-116286928D01*
X154826592Y-116303392D01*
X154665858Y-116352150D01*
X154517725Y-116431329D01*
X154387885Y-116537885D01*
X154344000Y-116591359D01*
X154300115Y-116537885D01*
X154170275Y-116431329D01*
X154022142Y-116352150D01*
X153861408Y-116303392D01*
X153694250Y-116286928D01*
X153256750Y-116286928D01*
X153089592Y-116303392D01*
X152928858Y-116352150D01*
X152780725Y-116431329D01*
X152688000Y-116507426D01*
X152595275Y-116431329D01*
X152447142Y-116352150D01*
X152286408Y-116303392D01*
X152119250Y-116286928D01*
X151681750Y-116286928D01*
X151514592Y-116303392D01*
X151353858Y-116352150D01*
X151205725Y-116431329D01*
X151075885Y-116537885D01*
X150994000Y-116637663D01*
X150912115Y-116537885D01*
X150782275Y-116431329D01*
X150634142Y-116352150D01*
X150473408Y-116303392D01*
X150438969Y-116300000D01*
X150473408Y-116296608D01*
X150634142Y-116247850D01*
X150782275Y-116168671D01*
X150912115Y-116062115D01*
X151018671Y-115932275D01*
X151097850Y-115784142D01*
X151146608Y-115623408D01*
X151163072Y-115456250D01*
X151163072Y-115199230D01*
X151165000Y-115197302D01*
X151165000Y-115202002D01*
X151269748Y-115202002D01*
X151165000Y-115306750D01*
X151176571Y-115410911D01*
X151215065Y-115529925D01*
X151276037Y-115639142D01*
X151357146Y-115734365D01*
X151455273Y-115811935D01*
X151566647Y-115868871D01*
X151686989Y-115902984D01*
X151811675Y-115912965D01*
X152064250Y-115910000D01*
X152223000Y-115751250D01*
X152223000Y-115263072D01*
X152477000Y-115263072D01*
X152477000Y-115751250D01*
X152635750Y-115910000D01*
X152888325Y-115912965D01*
X153013011Y-115902984D01*
X153133353Y-115868871D01*
X153244727Y-115811935D01*
X153342854Y-115734365D01*
X153423963Y-115639142D01*
X153484935Y-115529925D01*
X153523429Y-115410911D01*
X153535000Y-115306750D01*
X153376250Y-115148000D01*
X153263678Y-115148000D01*
X153351185Y-115076185D01*
X153430537Y-114979494D01*
X153467032Y-114911218D01*
X153535000Y-114843250D01*
X153524913Y-114752446D01*
X153525812Y-114749482D01*
X153538072Y-114625000D01*
X153538072Y-114489487D01*
X153567547Y-114480546D01*
X153699576Y-114409974D01*
X153765344Y-114356000D01*
X153939439Y-114356000D01*
X154139398Y-114316226D01*
X154327756Y-114238205D01*
X154497274Y-114124937D01*
X154641437Y-113980774D01*
X154754705Y-113811256D01*
X154832726Y-113622898D01*
X154872500Y-113422939D01*
X154872500Y-113219061D01*
X154832726Y-113019102D01*
X154754705Y-112830744D01*
X154641437Y-112661226D01*
X154497274Y-112517063D01*
X154327756Y-112403795D01*
X154139398Y-112325774D01*
X153939439Y-112286000D01*
X153735561Y-112286000D01*
X153535602Y-112325774D01*
X153347244Y-112403795D01*
X153338714Y-112409494D01*
X153228286Y-112375997D01*
X153218063Y-112374990D01*
X153144180Y-112335498D01*
X153024482Y-112299188D01*
X152900000Y-112286928D01*
X151800000Y-112286928D01*
X151675518Y-112299188D01*
X151555820Y-112335498D01*
X151445506Y-112394463D01*
X151348815Y-112473815D01*
X151269463Y-112570506D01*
X151210498Y-112680820D01*
X151174188Y-112800518D01*
X151161928Y-112925000D01*
X151161928Y-113325000D01*
X151174188Y-113449482D01*
X151174345Y-113450000D01*
X151174188Y-113450518D01*
X151167610Y-113517308D01*
X151151072Y-113500770D01*
X151151072Y-113243750D01*
X151134608Y-113076592D01*
X151085850Y-112915858D01*
X151006671Y-112767725D01*
X150916057Y-112657311D01*
X151018671Y-112532275D01*
X151097850Y-112384142D01*
X151146608Y-112223408D01*
X151163072Y-112056250D01*
X151163072Y-111543750D01*
X151156301Y-111475000D01*
X154124928Y-111475000D01*
X154137188Y-111599482D01*
X154173498Y-111719180D01*
X154232463Y-111829494D01*
X154311815Y-111926185D01*
X154408506Y-112005537D01*
X154518820Y-112064502D01*
X154638518Y-112100812D01*
X154763000Y-112113072D01*
X154914750Y-112110000D01*
X155073500Y-111951250D01*
X155073500Y-111127000D01*
X154286750Y-111127000D01*
X154128000Y-111285750D01*
X154124928Y-111475000D01*
X151156301Y-111475000D01*
X151146608Y-111376592D01*
X151097850Y-111215858D01*
X151018671Y-111067725D01*
X150912115Y-110937885D01*
X150782275Y-110831329D01*
X150634800Y-110752502D01*
X150727302Y-110660000D01*
X154127119Y-110660000D01*
X154128000Y-110714250D01*
X154128000Y-110714250D01*
G37*
X154128000Y-110714250D02*
X154286750Y-110873000D01*
X155073500Y-110873000D01*
X155073500Y-110853000D01*
X155327500Y-110853000D01*
X155327500Y-110873000D01*
X155347500Y-110873000D01*
X155347500Y-111127000D01*
X155327500Y-111127000D01*
X155327500Y-111951250D01*
X155486250Y-112110000D01*
X155638000Y-112113072D01*
X155762482Y-112100812D01*
X155882180Y-112064502D01*
X155992494Y-112005537D01*
X156059070Y-111950900D01*
X156080725Y-111968671D01*
X156228858Y-112047850D01*
X156389592Y-112096608D01*
X156556750Y-112113072D01*
X156611771Y-112113072D01*
X156577189Y-112286928D01*
X156100000Y-112286928D01*
X155975518Y-112299188D01*
X155855820Y-112335498D01*
X155745506Y-112394463D01*
X155648815Y-112473815D01*
X155569463Y-112570506D01*
X155510498Y-112680820D01*
X155474188Y-112800518D01*
X155461928Y-112925000D01*
X155461928Y-113325000D01*
X155474188Y-113449482D01*
X155474345Y-113450000D01*
X155474188Y-113450518D01*
X155461928Y-113575000D01*
X155461928Y-113975000D01*
X155474188Y-114099482D01*
X155474345Y-114100000D01*
X155474188Y-114100518D01*
X155461928Y-114225000D01*
X155461928Y-114625000D01*
X155474188Y-114749482D01*
X155474345Y-114750000D01*
X155474188Y-114750518D01*
X155461928Y-114875000D01*
X155461928Y-115275000D01*
X155474188Y-115399482D01*
X155510498Y-115519180D01*
X155569463Y-115629494D01*
X155648815Y-115726185D01*
X155745506Y-115805537D01*
X155855820Y-115864502D01*
X155975518Y-115900812D01*
X156100000Y-115913072D01*
X156815301Y-115913072D01*
X156815300Y-116286928D01*
X156568750Y-116286928D01*
X156401592Y-116303392D01*
X156240858Y-116352150D01*
X156092725Y-116431329D01*
X156000000Y-116507426D01*
X155907275Y-116431329D01*
X155759142Y-116352150D01*
X155598408Y-116303392D01*
X155431250Y-116286928D01*
X154993750Y-116286928D01*
X154826592Y-116303392D01*
X154665858Y-116352150D01*
X154517725Y-116431329D01*
X154387885Y-116537885D01*
X154344000Y-116591359D01*
X154300115Y-116537885D01*
X154170275Y-116431329D01*
X154022142Y-116352150D01*
X153861408Y-116303392D01*
X153694250Y-116286928D01*
X153256750Y-116286928D01*
X153089592Y-116303392D01*
X152928858Y-116352150D01*
X152780725Y-116431329D01*
X152688000Y-116507426D01*
X152595275Y-116431329D01*
X152447142Y-116352150D01*
X152286408Y-116303392D01*
X152119250Y-116286928D01*
X151681750Y-116286928D01*
X151514592Y-116303392D01*
X151353858Y-116352150D01*
X151205725Y-116431329D01*
X151075885Y-116537885D01*
X150994000Y-116637663D01*
X150912115Y-116537885D01*
X150782275Y-116431329D01*
X150634142Y-116352150D01*
X150473408Y-116303392D01*
X150438969Y-116300000D01*
X150473408Y-116296608D01*
X150634142Y-116247850D01*
X150782275Y-116168671D01*
X150912115Y-116062115D01*
X151018671Y-115932275D01*
X151097850Y-115784142D01*
X151146608Y-115623408D01*
X151163072Y-115456250D01*
X151163072Y-115199230D01*
X151165000Y-115197302D01*
X151165000Y-115202002D01*
X151269748Y-115202002D01*
X151165000Y-115306750D01*
X151176571Y-115410911D01*
X151215065Y-115529925D01*
X151276037Y-115639142D01*
X151357146Y-115734365D01*
X151455273Y-115811935D01*
X151566647Y-115868871D01*
X151686989Y-115902984D01*
X151811675Y-115912965D01*
X152064250Y-115910000D01*
X152223000Y-115751250D01*
X152223000Y-115263072D01*
X152477000Y-115263072D01*
X152477000Y-115751250D01*
X152635750Y-115910000D01*
X152888325Y-115912965D01*
X153013011Y-115902984D01*
X153133353Y-115868871D01*
X153244727Y-115811935D01*
X153342854Y-115734365D01*
X153423963Y-115639142D01*
X153484935Y-115529925D01*
X153523429Y-115410911D01*
X153535000Y-115306750D01*
X153376250Y-115148000D01*
X153263678Y-115148000D01*
X153351185Y-115076185D01*
X153430537Y-114979494D01*
X153467032Y-114911218D01*
X153535000Y-114843250D01*
X153524913Y-114752446D01*
X153525812Y-114749482D01*
X153538072Y-114625000D01*
X153538072Y-114489487D01*
X153567547Y-114480546D01*
X153699576Y-114409974D01*
X153765344Y-114356000D01*
X153939439Y-114356000D01*
X154139398Y-114316226D01*
X154327756Y-114238205D01*
X154497274Y-114124937D01*
X154641437Y-113980774D01*
X154754705Y-113811256D01*
X154832726Y-113622898D01*
X154872500Y-113422939D01*
X154872500Y-113219061D01*
X154832726Y-113019102D01*
X154754705Y-112830744D01*
X154641437Y-112661226D01*
X154497274Y-112517063D01*
X154327756Y-112403795D01*
X154139398Y-112325774D01*
X153939439Y-112286000D01*
X153735561Y-112286000D01*
X153535602Y-112325774D01*
X153347244Y-112403795D01*
X153338714Y-112409494D01*
X153228286Y-112375997D01*
X153218063Y-112374990D01*
X153144180Y-112335498D01*
X153024482Y-112299188D01*
X152900000Y-112286928D01*
X151800000Y-112286928D01*
X151675518Y-112299188D01*
X151555820Y-112335498D01*
X151445506Y-112394463D01*
X151348815Y-112473815D01*
X151269463Y-112570506D01*
X151210498Y-112680820D01*
X151174188Y-112800518D01*
X151161928Y-112925000D01*
X151161928Y-113325000D01*
X151174188Y-113449482D01*
X151174345Y-113450000D01*
X151174188Y-113450518D01*
X151167610Y-113517308D01*
X151151072Y-113500770D01*
X151151072Y-113243750D01*
X151134608Y-113076592D01*
X151085850Y-112915858D01*
X151006671Y-112767725D01*
X150916057Y-112657311D01*
X151018671Y-112532275D01*
X151097850Y-112384142D01*
X151146608Y-112223408D01*
X151163072Y-112056250D01*
X151163072Y-111543750D01*
X151156301Y-111475000D01*
X154124928Y-111475000D01*
X154137188Y-111599482D01*
X154173498Y-111719180D01*
X154232463Y-111829494D01*
X154311815Y-111926185D01*
X154408506Y-112005537D01*
X154518820Y-112064502D01*
X154638518Y-112100812D01*
X154763000Y-112113072D01*
X154914750Y-112110000D01*
X155073500Y-111951250D01*
X155073500Y-111127000D01*
X154286750Y-111127000D01*
X154128000Y-111285750D01*
X154124928Y-111475000D01*
X151156301Y-111475000D01*
X151146608Y-111376592D01*
X151097850Y-111215858D01*
X151018671Y-111067725D01*
X150912115Y-110937885D01*
X150782275Y-110831329D01*
X150634800Y-110752502D01*
X150727302Y-110660000D01*
X154127119Y-110660000D01*
X154128000Y-110714250D01*
M02*
