G04 #@! TF.GenerationSoftware,KiCad,Pcbnew,(5.1.2)-1*
G04 #@! TF.CreationDate,2021-08-24T10:23:30+09:00*
G04 #@! TF.ProjectId,csa,6373612e-6b69-4636-9164-5f7063625858,v1.3*
G04 #@! TF.SameCoordinates,Original*
G04 #@! TF.FileFunction,Copper,L2,Bot*
G04 #@! TF.FilePolarity,Positive*
%FSLAX46Y46*%
G04 Gerber Fmt 4.6, Leading zero omitted, Abs format (unit mm)*
G04 Created by KiCad (PCBNEW (5.1.2)-1) date 2021-08-24 10:23:30*
%MOMM*%
%LPD*%
G04 APERTURE LIST*
%ADD10O,1.700000X1.700000*%
%ADD11R,1.700000X1.700000*%
%ADD12C,2.500000*%
%ADD13R,2.500000X2.500000*%
%ADD14C,0.800000*%
%ADD15C,0.250000*%
%ADD16C,0.254000*%
G04 APERTURE END LIST*
D10*
X165000000Y-124640000D03*
X165000000Y-122100000D03*
D11*
X165000000Y-119560000D03*
D12*
X141000000Y-124500000D03*
D13*
X141000000Y-119500000D03*
D14*
X159742400Y-118690400D03*
X151900000Y-111500000D03*
X153800000Y-123400000D03*
X156500000Y-119200000D03*
X158400000Y-133500000D03*
X150200000Y-118900000D03*
X146700000Y-110400000D03*
X164734982Y-111005570D03*
X157609000Y-112404900D03*
X153837500Y-113321000D03*
X158352100Y-119471900D03*
X161400000Y-119100000D03*
D15*
X159742400Y-119066400D02*
X159742400Y-118690400D01*
X165000000Y-124640000D02*
X165000000Y-124324000D01*
X165000000Y-124324000D02*
X159742400Y-119066400D01*
X151900000Y-111500000D02*
X147800000Y-111500000D01*
X147800000Y-111500000D02*
X146700000Y-110400000D01*
X146700000Y-110400000D02*
X164129412Y-110400000D01*
X164129412Y-110400000D02*
X164734982Y-111005570D01*
X164764100Y-119560000D02*
X157609000Y-112404900D01*
X165000000Y-119560000D02*
X164764100Y-119560000D01*
X158352100Y-119471900D02*
X153837500Y-114957300D01*
X153837500Y-114957300D02*
X153837500Y-113321000D01*
X165000000Y-122100000D02*
X162000000Y-119100000D01*
X162000000Y-119100000D02*
X161400000Y-119100000D01*
D16*
G36*
X166065424Y-109669580D02*
G01*
X166128356Y-109688580D01*
X166186405Y-109719445D01*
X166237343Y-109760989D01*
X166279248Y-109811644D01*
X166310515Y-109869471D01*
X166329956Y-109932272D01*
X166340001Y-110027845D01*
X166340001Y-118306112D01*
X166301185Y-118258815D01*
X166204494Y-118179463D01*
X166094180Y-118120498D01*
X165974482Y-118084188D01*
X165850000Y-118071928D01*
X164350831Y-118071928D01*
X158644000Y-112365099D01*
X158644000Y-112302961D01*
X158604226Y-112103002D01*
X158526205Y-111914644D01*
X158412937Y-111745126D01*
X158268774Y-111600963D01*
X158099256Y-111487695D01*
X157910898Y-111409674D01*
X157710939Y-111369900D01*
X157507061Y-111369900D01*
X157307102Y-111409674D01*
X157118744Y-111487695D01*
X156949226Y-111600963D01*
X156805063Y-111745126D01*
X156691795Y-111914644D01*
X156613774Y-112103002D01*
X156574000Y-112302961D01*
X156574000Y-112506839D01*
X156613774Y-112706798D01*
X156691795Y-112895156D01*
X156805063Y-113064674D01*
X156949226Y-113208837D01*
X157118744Y-113322105D01*
X157307102Y-113400126D01*
X157507061Y-113439900D01*
X157569199Y-113439900D01*
X163511928Y-119382631D01*
X163511928Y-119537127D01*
X162563804Y-118589003D01*
X162540001Y-118559999D01*
X162424276Y-118465026D01*
X162292247Y-118394454D01*
X162148986Y-118350997D01*
X162110963Y-118347252D01*
X162059774Y-118296063D01*
X161890256Y-118182795D01*
X161701898Y-118104774D01*
X161501939Y-118065000D01*
X161298061Y-118065000D01*
X161098102Y-118104774D01*
X160909744Y-118182795D01*
X160740226Y-118296063D01*
X160596063Y-118440226D01*
X160482795Y-118609744D01*
X160404774Y-118798102D01*
X160365000Y-118998061D01*
X160365000Y-119201939D01*
X160404774Y-119401898D01*
X160482795Y-119590256D01*
X160596063Y-119759774D01*
X160740226Y-119903937D01*
X160909744Y-120017205D01*
X161098102Y-120095226D01*
X161298061Y-120135000D01*
X161501939Y-120135000D01*
X161701898Y-120095226D01*
X161856420Y-120031221D01*
X163559203Y-121734005D01*
X163536487Y-121808889D01*
X163507815Y-122100000D01*
X163536487Y-122391111D01*
X163621401Y-122671034D01*
X163759294Y-122929014D01*
X163944866Y-123155134D01*
X164170986Y-123340706D01*
X164235523Y-123375201D01*
X164118645Y-123444822D01*
X163902412Y-123639731D01*
X163728359Y-123873080D01*
X163603175Y-124135901D01*
X163558524Y-124283110D01*
X163679845Y-124513000D01*
X164873000Y-124513000D01*
X164873000Y-124493000D01*
X165127000Y-124493000D01*
X165127000Y-124513000D01*
X165147000Y-124513000D01*
X165147000Y-124767000D01*
X165127000Y-124767000D01*
X165127000Y-125960814D01*
X165356891Y-126081481D01*
X165631252Y-125984157D01*
X165881355Y-125835178D01*
X166097588Y-125640269D01*
X166271641Y-125406920D01*
X166340000Y-125263401D01*
X166340000Y-133967721D01*
X166330420Y-134065424D01*
X166311420Y-134128357D01*
X166280554Y-134186406D01*
X166239011Y-134237343D01*
X166188356Y-134279248D01*
X166130529Y-134310515D01*
X166067728Y-134329956D01*
X165972165Y-134340000D01*
X146127000Y-134340000D01*
X146127000Y-124996890D01*
X163558524Y-124996890D01*
X163603175Y-125144099D01*
X163728359Y-125406920D01*
X163902412Y-125640269D01*
X164118645Y-125835178D01*
X164368748Y-125984157D01*
X164643109Y-126081481D01*
X164873000Y-125960814D01*
X164873000Y-124767000D01*
X163679845Y-124767000D01*
X163558524Y-124996890D01*
X146127000Y-124996890D01*
X146127000Y-113219061D01*
X152802500Y-113219061D01*
X152802500Y-113422939D01*
X152842274Y-113622898D01*
X152920295Y-113811256D01*
X153033563Y-113980774D01*
X153077501Y-114024712D01*
X153077500Y-114919977D01*
X153073824Y-114957300D01*
X153077500Y-114994622D01*
X153077500Y-114994632D01*
X153088497Y-115106285D01*
X153131954Y-115249546D01*
X153202526Y-115381576D01*
X153242371Y-115430126D01*
X153297499Y-115497301D01*
X153326503Y-115521104D01*
X157317100Y-119511702D01*
X157317100Y-119573839D01*
X157356874Y-119773798D01*
X157434895Y-119962156D01*
X157548163Y-120131674D01*
X157692326Y-120275837D01*
X157861844Y-120389105D01*
X158050202Y-120467126D01*
X158250161Y-120506900D01*
X158454039Y-120506900D01*
X158653998Y-120467126D01*
X158842356Y-120389105D01*
X159011874Y-120275837D01*
X159156037Y-120131674D01*
X159269305Y-119962156D01*
X159347326Y-119773798D01*
X159387100Y-119573839D01*
X159387100Y-119369961D01*
X159347326Y-119170002D01*
X159269305Y-118981644D01*
X159156037Y-118812126D01*
X159011874Y-118667963D01*
X158842356Y-118554695D01*
X158653998Y-118476674D01*
X158454039Y-118436900D01*
X158391902Y-118436900D01*
X154597500Y-114642499D01*
X154597500Y-114024711D01*
X154641437Y-113980774D01*
X154754705Y-113811256D01*
X154832726Y-113622898D01*
X154872500Y-113422939D01*
X154872500Y-113219061D01*
X154832726Y-113019102D01*
X154754705Y-112830744D01*
X154641437Y-112661226D01*
X154497274Y-112517063D01*
X154327756Y-112403795D01*
X154139398Y-112325774D01*
X153939439Y-112286000D01*
X153735561Y-112286000D01*
X153535602Y-112325774D01*
X153347244Y-112403795D01*
X153177726Y-112517063D01*
X153033563Y-112661226D01*
X152920295Y-112830744D01*
X152842274Y-113019102D01*
X152802500Y-113219061D01*
X146127000Y-113219061D01*
X146127000Y-109660000D01*
X165967721Y-109660000D01*
X166065424Y-109669580D01*
X166065424Y-109669580D01*
G37*
X166065424Y-109669580D02*
X166128356Y-109688580D01*
X166186405Y-109719445D01*
X166237343Y-109760989D01*
X166279248Y-109811644D01*
X166310515Y-109869471D01*
X166329956Y-109932272D01*
X166340001Y-110027845D01*
X166340001Y-118306112D01*
X166301185Y-118258815D01*
X166204494Y-118179463D01*
X166094180Y-118120498D01*
X165974482Y-118084188D01*
X165850000Y-118071928D01*
X164350831Y-118071928D01*
X158644000Y-112365099D01*
X158644000Y-112302961D01*
X158604226Y-112103002D01*
X158526205Y-111914644D01*
X158412937Y-111745126D01*
X158268774Y-111600963D01*
X158099256Y-111487695D01*
X157910898Y-111409674D01*
X157710939Y-111369900D01*
X157507061Y-111369900D01*
X157307102Y-111409674D01*
X157118744Y-111487695D01*
X156949226Y-111600963D01*
X156805063Y-111745126D01*
X156691795Y-111914644D01*
X156613774Y-112103002D01*
X156574000Y-112302961D01*
X156574000Y-112506839D01*
X156613774Y-112706798D01*
X156691795Y-112895156D01*
X156805063Y-113064674D01*
X156949226Y-113208837D01*
X157118744Y-113322105D01*
X157307102Y-113400126D01*
X157507061Y-113439900D01*
X157569199Y-113439900D01*
X163511928Y-119382631D01*
X163511928Y-119537127D01*
X162563804Y-118589003D01*
X162540001Y-118559999D01*
X162424276Y-118465026D01*
X162292247Y-118394454D01*
X162148986Y-118350997D01*
X162110963Y-118347252D01*
X162059774Y-118296063D01*
X161890256Y-118182795D01*
X161701898Y-118104774D01*
X161501939Y-118065000D01*
X161298061Y-118065000D01*
X161098102Y-118104774D01*
X160909744Y-118182795D01*
X160740226Y-118296063D01*
X160596063Y-118440226D01*
X160482795Y-118609744D01*
X160404774Y-118798102D01*
X160365000Y-118998061D01*
X160365000Y-119201939D01*
X160404774Y-119401898D01*
X160482795Y-119590256D01*
X160596063Y-119759774D01*
X160740226Y-119903937D01*
X160909744Y-120017205D01*
X161098102Y-120095226D01*
X161298061Y-120135000D01*
X161501939Y-120135000D01*
X161701898Y-120095226D01*
X161856420Y-120031221D01*
X163559203Y-121734005D01*
X163536487Y-121808889D01*
X163507815Y-122100000D01*
X163536487Y-122391111D01*
X163621401Y-122671034D01*
X163759294Y-122929014D01*
X163944866Y-123155134D01*
X164170986Y-123340706D01*
X164235523Y-123375201D01*
X164118645Y-123444822D01*
X163902412Y-123639731D01*
X163728359Y-123873080D01*
X163603175Y-124135901D01*
X163558524Y-124283110D01*
X163679845Y-124513000D01*
X164873000Y-124513000D01*
X164873000Y-124493000D01*
X165127000Y-124493000D01*
X165127000Y-124513000D01*
X165147000Y-124513000D01*
X165147000Y-124767000D01*
X165127000Y-124767000D01*
X165127000Y-125960814D01*
X165356891Y-126081481D01*
X165631252Y-125984157D01*
X165881355Y-125835178D01*
X166097588Y-125640269D01*
X166271641Y-125406920D01*
X166340000Y-125263401D01*
X166340000Y-133967721D01*
X166330420Y-134065424D01*
X166311420Y-134128357D01*
X166280554Y-134186406D01*
X166239011Y-134237343D01*
X166188356Y-134279248D01*
X166130529Y-134310515D01*
X166067728Y-134329956D01*
X165972165Y-134340000D01*
X146127000Y-134340000D01*
X146127000Y-124996890D01*
X163558524Y-124996890D01*
X163603175Y-125144099D01*
X163728359Y-125406920D01*
X163902412Y-125640269D01*
X164118645Y-125835178D01*
X164368748Y-125984157D01*
X164643109Y-126081481D01*
X164873000Y-125960814D01*
X164873000Y-124767000D01*
X163679845Y-124767000D01*
X163558524Y-124996890D01*
X146127000Y-124996890D01*
X146127000Y-113219061D01*
X152802500Y-113219061D01*
X152802500Y-113422939D01*
X152842274Y-113622898D01*
X152920295Y-113811256D01*
X153033563Y-113980774D01*
X153077501Y-114024712D01*
X153077500Y-114919977D01*
X153073824Y-114957300D01*
X153077500Y-114994622D01*
X153077500Y-114994632D01*
X153088497Y-115106285D01*
X153131954Y-115249546D01*
X153202526Y-115381576D01*
X153242371Y-115430126D01*
X153297499Y-115497301D01*
X153326503Y-115521104D01*
X157317100Y-119511702D01*
X157317100Y-119573839D01*
X157356874Y-119773798D01*
X157434895Y-119962156D01*
X157548163Y-120131674D01*
X157692326Y-120275837D01*
X157861844Y-120389105D01*
X158050202Y-120467126D01*
X158250161Y-120506900D01*
X158454039Y-120506900D01*
X158653998Y-120467126D01*
X158842356Y-120389105D01*
X159011874Y-120275837D01*
X159156037Y-120131674D01*
X159269305Y-119962156D01*
X159347326Y-119773798D01*
X159387100Y-119573839D01*
X159387100Y-119369961D01*
X159347326Y-119170002D01*
X159269305Y-118981644D01*
X159156037Y-118812126D01*
X159011874Y-118667963D01*
X158842356Y-118554695D01*
X158653998Y-118476674D01*
X158454039Y-118436900D01*
X158391902Y-118436900D01*
X154597500Y-114642499D01*
X154597500Y-114024711D01*
X154641437Y-113980774D01*
X154754705Y-113811256D01*
X154832726Y-113622898D01*
X154872500Y-113422939D01*
X154872500Y-113219061D01*
X154832726Y-113019102D01*
X154754705Y-112830744D01*
X154641437Y-112661226D01*
X154497274Y-112517063D01*
X154327756Y-112403795D01*
X154139398Y-112325774D01*
X153939439Y-112286000D01*
X153735561Y-112286000D01*
X153535602Y-112325774D01*
X153347244Y-112403795D01*
X153177726Y-112517063D01*
X153033563Y-112661226D01*
X152920295Y-112830744D01*
X152842274Y-113019102D01*
X152802500Y-113219061D01*
X146127000Y-113219061D01*
X146127000Y-109660000D01*
X165967721Y-109660000D01*
X166065424Y-109669580D01*
M02*
